<svg width="489" height="692" viewBox="0 0 489 692" fill="none" xmlns="http://www.w3.org/2000/svg">
<ellipse cx="279.553" cy="609.457" rx="209.445" ry="7.19123" fill="black"/>
<g clip-path="url(#clip0_565_1988)">
<path d="M189.85 39.6589C188.914 40.6934 190.355 40.5149 189.869 41.3367C189.883 41.4093 190.48 40.9675 190.391 41.1605C189.747 42.0757 190.623 42.3708 191.61 42.4559L191.761 42.3261C191.944 42.2908 191.434 42.7908 191.57 42.8399C191.67 42.7658 191.775 42.6995 191.885 42.6411C191.55 42.869 191.836 42.9142 191.597 43.1111C191.755 43.0805 192.033 42.8882 192.215 42.8529L191.844 43.1509C190.985 43.8692 192.144 43.4691 191.776 43.9797C191.85 43.9131 191.932 43.855 192.02 43.8068C191.647 44.4938 192.018 44.8488 192.026 45.3493C192.201 45.2209 192.385 45.1056 192.577 45.0042C192.177 45.2825 192.136 45.4662 192.113 45.6087C192.576 45.3936 191.828 46.0276 192.187 45.9957L192.285 45.9143C191.889 46.2796 192.613 45.8505 192.131 46.2952L192.492 46.1378C191.916 46.5505 192.893 46.0601 192.629 46.3246L192.495 46.3505C192.389 46.5216 192.702 46.3103 192.647 46.4841L192.732 46.4677C192.664 46.7067 193.044 46.5833 192.57 46.8757C192.99 46.6943 192.66 46.6196 193.255 46.3665C193.207 46.6724 193.229 46.9854 193.321 47.2809C193.412 47.5763 193.57 47.8464 193.783 48.0713C193.952 48.0401 194.116 47.9837 194.268 47.9028C194.201 48.0161 194.314 48.1447 194.087 48.3392C194.181 48.2938 194.286 48.2736 194.391 48.2805C194.622 48.2358 193.94 48.6936 194.212 48.6661C194.333 48.5295 194.478 48.4166 194.64 48.3326C194.324 48.6573 194.45 48.7204 194.395 48.8942C194.467 48.8145 194.552 48.7476 194.647 48.6954C194.301 49.0634 194.862 48.8296 194.658 49.0824L194.91 48.8829C195.323 48.8029 194.369 49.2883 194.646 49.285C194.73 49.1987 194.827 49.1252 194.932 49.0666C194.513 49.5117 194.806 49.5928 194.712 49.8244C194.751 49.8124 194.792 49.8045 194.833 49.8009C194.866 49.9703 195.099 50.0007 194.929 50.2972C195.087 50.2666 195.576 49.8581 195.562 50.049C195.025 50.404 195.498 50.4379 194.837 50.7414C195.001 50.81 195.326 50.8602 195.189 51.0625C195.367 50.8773 195.886 50.689 195.875 50.5657L196.238 50.4201C196.46 50.2641 196.129 50.4417 196.417 50.2353C196.429 50.2958 196.307 50.5829 196.419 50.5739C196.149 50.877 195.586 51.362 195.624 51.5556C195.786 51.3485 196.236 51.1989 196.293 51.1001L195.401 51.9754C195.415 52.048 195.831 51.7166 195.742 51.9095C195.632 51.9887 195.531 52.0797 195.441 52.181C195.514 52.1669 195.497 52.4715 195.978 52.1525C196.207 52.0329 196.037 52.0028 196.261 51.9218C196.282 52.0307 196.14 52.1463 196.195 52.236L196.268 52.2219C196.378 52.2008 196.166 52.5424 195.825 52.6711C195.825 52.6711 196.154 52.4823 195.96 52.52C195.765 52.5576 195.672 52.9268 195.715 53.0189C195.824 52.9139 195.94 52.8157 196.062 52.7256C195.844 52.9739 195.689 53.271 195.611 53.5913C195.354 53.7664 196.034 53.2331 195.885 53.3121C196.347 53.2227 195.638 54.0004 196.23 53.798C196.133 53.8521 196.039 53.9117 195.949 53.9774C196.038 54.048 196.393 53.7912 196.29 53.9115C196.504 53.7821 196.311 54.0209 196.244 54.1342C196.178 54.2475 196.366 54.1106 196.347 54.0138C196.222 54.2137 196.108 54.7376 196.484 54.7275C196.35 54.8162 196.055 55.1871 196.098 55.2163L196.404 54.9691C196.635 54.9244 196.437 55.1385 196.757 54.9009C196.409 55.2568 196.861 54.3285 196.635 54.6609C196.933 54.503 196.23 55.1784 196.67 54.8423C196.688 54.9391 196.399 55.2712 196.728 55.1448C196.667 55.1566 197.146 54.7628 197.163 54.8475C197.179 54.9322 197.025 54.9867 196.982 55.1581L196.899 55.3122C196.576 55.5377 197.015 55.3904 196.624 55.5914C196.895 55.426 196.578 55.8764 197.098 55.4996L197.507 55.1946C197.52 55.2672 197.127 55.5822 196.97 55.7506C197.039 55.7215 197.104 55.6836 197.163 55.6379C196.54 56.0722 197.305 55.7234 196.85 56.1126C197.142 56.0562 197.064 56.3723 197.488 56.1522C197.353 56.3666 197.183 56.6 197.385 56.5987C197.426 56.5195 197.487 56.4519 197.561 56.4016C197.792 56.3569 197.636 56.4623 197.596 56.583C197.831 56.4852 198.073 56.4048 198.319 56.3426C198.112 56.5699 197.874 56.7684 197.612 56.9315C198.298 56.5605 197.38 57.4281 198.004 57.1315C198.075 57.0425 198.23 56.7992 198.437 56.7591C199.112 56.4026 198.073 57.2311 198.509 57.1344L197.967 57.4653C198.325 57.2955 197.801 57.849 198.321 57.4722C198.152 57.6429 198.577 57.4228 198.075 57.8334C198.634 57.7254 198.198 58.4748 199.135 57.9673C199.076 58.0541 199.156 58.0763 198.936 58.2442C198.716 58.4122 199.096 58.0249 198.917 58.1473C198.917 58.1473 198.78 58.2868 198.714 58.3372C198.872 58.3068 198.933 58.2945 199.327 57.9798C199.728 57.9022 198.562 58.7305 198.883 58.7564C199.093 58.6028 199.173 58.5618 199.175 58.6367L198.888 58.9808C199.05 59.0373 199.415 58.7034 199.759 58.4612C199.778 58.558 199.792 58.6307 199.566 58.8373L200.062 58.5909C199.705 58.7726 199.887 58.8004 199.828 58.8872L199.887 58.8004C200.057 58.7674 200.008 58.8396 199.981 58.8949C199.853 58.9951 199.694 59.0485 199.531 59.0452C199.394 59.1848 199.473 59.2068 199.316 59.3754C199.646 59.1233 199.633 59.3141 199.693 59.3024C199.754 59.2906 199.431 59.5788 199.458 59.5863C199.484 59.5938 199.547 59.6566 199.77 59.4377C199.77 59.4377 199.551 59.4806 199.695 59.3774C199.839 59.2742 200.169 59.0851 199.987 59.3209C199.805 59.5569 199.296 59.7931 199.59 59.7488C199.661 59.6599 199.791 59.5466 199.896 59.4383L200.151 59.389L199.829 59.6149C199.926 59.5961 199.95 59.5912 199.987 59.5211C199.686 59.7929 200.029 59.7395 199.646 60.0396C199.66 60.1122 199.937 59.9831 199.998 59.9714C200.229 59.9266 200.167 60.0641 200.052 60.2498L200.124 60.2356C200.124 60.2356 200.148 60.3563 200.017 60.5321C200.321 60.4732 201.219 59.6972 200.888 60.075C200.907 60.1717 200.412 60.6189 200.181 60.7265C200.509 60.7258 200.118 61.2534 200.695 61.0413C200.59 61.1496 200.497 61.1925 200.455 61.301C200.743 61.4211 200.417 62.0236 201.157 61.7425C201.241 61.5882 201.465 61.5071 201.643 61.3848C201.401 61.6325 201.98 61.2318 201.508 61.5991C201.349 61.7528 201.153 61.864 200.94 61.9224C200.884 62.1589 201.023 62.3581 201.34 62.2341C201.223 62.2844 201.125 62.3689 201.058 62.4765C201.498 62.1405 201.631 62.1774 201.532 62.3849L201.269 62.5867L201.578 62.4263C201.509 62.5275 201.035 62.8826 201.34 62.7609C201.441 62.6888 201.546 62.6225 201.655 62.5622C201.488 62.8079 201.183 63.1929 201.468 63.1002L201.914 62.8632C201.84 63.0166 201.71 63.1362 201.55 63.1971C201.83 63.217 202.111 63.1625 202.364 63.0397C201.696 63.8968 201.919 64.2683 202.189 64.4921L202.384 64.3286C202.64 64.2792 202.064 64.6293 202.244 64.582C202.471 64.4301 202.688 64.262 202.891 64.0797C203.183 64.0235 202.64 64.4797 202.603 64.6123C202.353 64.8238 202.733 64.4365 202.396 64.6524C202.31 64.7318 202.712 64.5912 202.328 64.9543C202.544 64.8181 202.746 64.6615 202.931 64.4864L202.794 64.6887C203.321 64.4111 203.498 63.8872 204.134 63.5255L204.153 63.6225C204.619 63.3568 204.509 63.1146 204.769 63.1523C204.51 63.4646 204.198 63.7291 203.847 63.933C203.886 64.1388 202.939 64.7234 203.089 64.8451C203.35 64.6942 203.058 64.6875 203.405 64.4572C203.752 64.227 203.332 64.7346 203.454 64.7111C203.21 64.8249 203 64.9995 202.845 65.2182C203.088 65.171 203.185 64.8893 203.311 64.9527C203.083 65.1473 202.989 65.3789 202.758 65.4238C202.274 65.8562 202.989 65.3787 202.624 65.7756C203.019 65.536 203.4 65.0231 203.672 64.9957C203.306 65.2547 203.291 65.5082 202.713 65.8461C202.95 65.7443 203.162 65.5922 203.334 65.4001C203.613 65.346 202.804 66.0548 203.524 65.539L203.177 65.8316C203.31 65.8057 203.432 65.7824 203.638 65.6045C203.649 65.6651 203.29 66.1614 203.828 65.7437C203.828 65.7437 203.861 65.9131 203.49 66.1481C203.118 66.3829 203.696 65.8446 203.161 66.2115C203.615 65.9479 203.189 66.3566 203.081 66.5157L203.303 66.3593C203.244 66.4461 203.326 66.4807 203.123 66.6705C203.212 66.5692 203.321 66.4879 203.443 66.4327L203.145 66.7167C203.075 66.9436 203.733 66.3013 203.717 66.4801L203.904 66.2058C203.904 66.2058 204.194 66.0744 204.135 66.161L203.308 66.9106C203.238 67.0745 203.669 66.6905 203.409 66.9791L203.706 66.6202C203.792 66.5409 204.226 66.3064 204.281 66.3963C204.128 66.6479 203.903 66.8487 203.635 66.9729C203.635 66.9729 203.891 66.9239 204.082 66.7364C204.112 66.8936 203.747 66.9636 203.626 67.1878C203.855 67.0682 204.21 66.9494 204.535 66.7988L204.961 66.3273L204.973 66.3881C205.316 66.0079 205.3 66.1866 205.687 65.8357C205.784 65.8169 205.712 65.9688 205.597 66.0915C204.843 66.5009 204.784 66.9139 204.151 67.3625C204.103 67.6356 205.702 66.3095 204.881 67.2215C204.698 67.3196 204.301 67.748 204.395 67.5164C204.542 67.5631 203.844 68.0624 204.18 67.9724C204.367 67.6976 204.86 67.5766 205.126 67.1862C204.93 67.3497 204.919 67.2264 204.968 67.2169C205.231 67.078 205.569 66.737 205.651 66.8341C205.733 66.9312 205.688 67.0274 205.368 67.2652C205.048 67.5027 205.345 67.1444 205.012 67.4473C204.979 67.6673 205.521 67.2735 204.953 67.7976C204.932 67.6887 204.566 67.9477 204.336 68.1302L204.261 68.3327L204.477 68.1404C204.732 68.091 204.092 68.5037 204.259 68.5844L204.757 68.287C205.122 67.9531 204.432 68.237 205.084 67.7594C205.174 67.83 204.875 68.1139 205.14 68.0499C205.14 68.0499 205.124 67.9649 205.224 67.8954C205.324 67.8257 206.128 67.2813 205.735 67.7964C205.599 68.011 205.519 67.989 205.292 68.1835C205.329 68.3773 205.121 68.6061 205.156 68.7247C205.599 68.3377 205.318 68.8437 205.718 68.3648C205.41 68.5371 205.281 68.3238 205.634 67.9293C205.987 67.5348 205.474 67.8848 206.003 67.4187C206.099 67.5257 206.634 67.0953 206.998 66.8241C206.998 66.8241 206.929 66.9883 206.89 67.0462C206.564 67.3224 206.543 67.2764 206.191 67.5452C206.377 67.597 206.254 67.8719 206.023 68.1802C206.228 68.0812 206.403 67.9303 206.531 67.7428C206.542 67.8437 206.587 67.938 206.658 68.0107C206.729 68.0832 206.822 68.13 206.924 68.1438C206.309 68.4886 206.97 68.3862 206.424 68.6927C206.11 68.7853 205.826 68.9572 205.598 69.1912C205.598 69.1912 205.828 69.0082 205.965 68.9316C205.707 69.2324 206.504 68.6518 206.095 69.0823C206.155 68.8071 206.731 68.5202 207.178 68.1576C207.018 68.4395 207.484 67.9101 207.553 68.0096C207.415 68.2315 207.325 68.48 207.29 68.7385C207.806 68.5382 207.578 69.0589 207.654 69.1948C207.91 69.0825 208.358 68.6572 208.497 68.6557C208.635 68.654 207.935 69.015 208.251 68.9537L208.335 68.8621C208.246 68.9923 208.821 68.7686 208.172 69.3961L208.654 68.9512C208.727 68.937 208.67 69.0356 208.582 69.103C208.738 69.0021 208.88 68.8821 209.006 68.7452C209.42 68.5397 209.045 68.951 209.063 69.0478L208.722 69.2394C208.596 69.5653 208.968 69.4048 208.961 69.6321L209.253 69.3753L209.143 69.5967C209.41 69.3443 209.661 69.2707 209.46 69.5355L210.027 68.7479C209.796 68.7928 209.716 69.0969 209.392 69.3104C209.067 69.5237 209.1 69.304 209.343 69.0563C209.416 69.0423 209.357 69.1291 209.278 69.2447C209.506 69.0639 209.708 68.8516 209.876 68.6144C209.876 68.6144 210.034 68.5842 209.892 68.6994C210.064 68.478 210.05 68.405 209.997 68.3273C209.882 68.5129 209.716 68.5074 209.613 68.6277C209.983 68.3177 210.028 68.1584 209.848 68.143C209.37 68.4111 209.973 67.7425 209.769 67.7317C209.51 67.9792 209.279 68.2551 209.083 68.5545C208.839 68.6015 209.066 68.4699 208.803 68.6086C209.091 68.3635 209.342 68.0783 209.548 67.7615L209.275 67.9775C209.352 67.787 209.755 67.4579 209.595 67.4136C209.374 67.345 209.176 67.2189 209.021 67.048L208.735 67.2664C209.259 66.7132 208.753 66.8362 208.933 66.5252C208.532 66.6028 208.895 65.9303 208.344 66.2126C208.255 65.7528 208.296 65.3057 207.942 65.0355L207.584 65.4061C207.832 65.1199 207.323 65.5572 207.341 65.4533C207.709 65.2691 207.691 65.046 207.912 64.8153C207.474 64.8998 207.68 64.4588 207.865 64.1092L207.579 64.3274C208.006 63.793 207.426 63.9931 207.219 63.8953C207.011 63.7975 206.799 64.1393 206.797 64.0644C207.019 63.8391 207.187 63.5667 207.287 63.2673C207.212 63.2091 207.124 63.1675 207.031 63.1465C206.938 63.1255 206.841 63.1254 206.747 63.1458C207.104 62.3112 206.425 62.254 206.528 61.6067L206.179 61.825C206.614 60.9376 205.64 60.9879 205.781 60.4084L205.236 60.8529C204.993 60.8999 205.176 60.5384 205.637 60.2482C205.394 60.2953 205.728 59.804 205.216 60.0914C205.058 60.1218 205.396 59.7802 205.407 59.6402C205.048 59.6092 205.039 59.4978 205.012 59.227C204.895 59.3374 204.665 59.5197 204.585 59.4975C204.701 59.3121 204.244 59.3633 204.981 58.9321C204.446 59.0356 204.96 58.2329 204.291 58.4251C204.482 58.3004 204.48 58.2258 204.598 58.1152C204.475 57.938 203.962 58.0246 204.182 57.6559C204.06 57.6794 203.895 57.9373 203.82 57.8764C203.746 57.8157 204.065 57.7039 204.129 57.5785C204.277 57.0352 203.35 57.2643 203.261 56.9302C203.287 56.2099 202.766 55.8594 202.51 55.3817L202.378 55.482C202.795 54.9621 201.589 55.5094 202.255 54.8409C202.085 54.8739 202.101 54.7578 201.842 54.9209C202.134 54.538 201.258 54.8334 201.602 54.3275C201.602 54.3275 201.602 54.3273 201.557 54.4238C201.144 54.5038 201.478 54.0122 201.041 54.034C200.99 54.1204 200.923 54.197 200.845 54.2601C200.517 54.3236 201.314 53.6804 200.613 54.1045C200.613 54.1045 200.929 53.8422 200.924 53.8809C200.389 53.658 200.517 52.943 200.391 52.4153C199.779 52.383 199.272 53.1588 199.576 52.5729C199.43 52.6011 199.83 52.3862 199.684 52.4773C199.807 52.2652 198.833 52.8426 199.149 52.5808C199.464 52.3189 199.35 52.3788 199.606 52.2037C199.203 52.2064 198.792 52.361 199.025 52.0649L198.815 52.2183C199.32 51.6311 198.846 51.6602 199.471 51.0374C198.958 50.0071 198.76 48.8405 198.244 47.8609C197.518 47.035 197.268 45.9289 196.289 45.2274C195.56 45.3685 195.572 45.3661 195.658 44.9603C195.598 45.0157 195.531 45.0626 195.458 45.0996C195.927 44.783 195.418 44.8938 195.838 44.5866C195.594 44.2642 195.395 43.9105 195.246 43.5344C195.262 43.6191 194.849 43.8994 194.845 43.8123L195.11 43.5479L194.952 43.5785C195.057 43.421 195.212 43.3032 195.392 43.2428C195.259 42.0888 193.737 41.7808 193.326 40.8188C193.006 40.73 193.003 40.3166 192.971 40.0215C191.918 39.7232 191.025 39.4062 191.08 38.4418C191.192 38.3699 189.964 39.1977 189.85 39.6589Z" fill="black"/>
<path d="M271.091 19.5162C269.635 19.7866 270.695 20.9593 269.688 21.421C269.605 21.4855 270.389 21.5934 270.172 21.7287C268.988 22.1191 269.282 23.3353 269.837 24.3596L270.046 24.3849C270.145 24.5835 269.447 24.5857 269.484 24.7767C269.523 24.9678 269.681 24.8006 269.865 24.823C269.46 24.7738 269.597 25.0639 269.286 25.0633C269.422 25.1668 269.737 25.2423 269.882 25.3717L269.416 25.3151C268.274 25.2757 269.333 25.9634 268.659 26.1673C268.759 26.1547 268.86 26.167 268.954 26.2031C268.144 26.5893 268.061 27.3373 267.639 27.9074C267.855 27.932 268.066 27.9873 268.266 28.071C268.127 28.0236 267.977 28.0181 267.834 28.0562C267.692 28.0942 267.564 28.174 267.466 28.2845C267.939 28.491 266.946 28.4569 267.16 28.7315L267.27 28.7449C266.721 28.7527 267.494 29.0455 266.851 29.0046L267.212 29.1978C266.5 29.1113 267.508 29.5199 267.169 29.5408L267.034 29.5244C266.825 29.5984 267.155 29.7503 266.995 29.8304L267.081 29.8408C266.83 30.0465 267.16 30.2978 266.63 30.1465C267.029 30.3441 266.891 29.9546 267.477 30.2494C266.863 30.8975 266.458 31.715 266.318 32.594C266.445 32.7185 266.592 32.82 266.753 32.895C266.621 32.9535 266.567 33.1834 266.28 33.1858C266.385 33.2177 266.477 33.2804 266.544 33.3665C266.705 33.5725 265.908 33.3638 266.103 33.5987C266.285 33.5655 266.474 33.5884 266.643 33.6644C266.179 33.6826 266.189 33.8953 266.011 34.0227C266.123 34.0095 266.237 34.0233 266.343 34.063C265.813 34.1105 266.297 34.4178 266.001 34.4935L266.32 34.5323C266.623 34.8923 265.657 34.452 265.81 34.7191C265.935 34.7099 266.06 34.7251 266.178 34.7639C265.549 34.8117 265.65 35.1965 265.393 35.3517C265.438 35.3547 265.483 35.3602 265.528 35.3681C265.389 35.575 265.465 35.858 265.181 36.0347C265.302 36.1612 265.944 36.2141 265.767 36.4287C265.154 36.2424 265.401 36.7572 264.732 36.4272C264.777 36.6565 264.915 37.0462 264.644 37.1127C264.902 37.1439 265.378 37.4252 265.472 37.2751L265.816 37.5039C266.074 37.5353 265.762 37.3477 266.07 37.4722C266.059 37.5578 265.712 37.7392 265.787 37.8352C265.355 37.8946 264.614 37.8422 264.509 38.0779C264.79 38.0251 265.175 38.3327 265.305 38.2865L264.054 38.3207C264.045 38.3941 264.534 38.4661 264.336 38.554C264.203 38.5063 264.06 38.489 263.919 38.5033C263.992 38.5122 263.668 38.8082 264.264 39.0174C264.501 39.1205 264.44 38.9143 264.621 39.0606C264.6 39.2198 264.37 39.1672 264.313 39.3218L264.399 39.3323C264.458 39.4514 264.045 39.5628 263.748 39.3526C263.757 39.2792 264.105 39.4831 263.945 39.3765C263.576 39.3317 263.43 39.5002 263.373 39.6547C263.526 39.6543 263.678 39.6729 263.827 39.7099C263.455 39.7573 263.103 39.9085 262.811 40.146C262.504 40.1087 263.352 40.2113 263.212 40.1322C263.534 40.5442 262.467 40.6008 262.988 41.012C262.988 41.012 262.581 40.8757 262.653 40.8969C262.725 40.918 263.081 41.16 262.887 41.211C263.145 41.2425 262.787 41.3109 262.678 41.3847C262.569 41.4583 262.801 41.3996 262.838 41.404C262.591 41.4858 262.062 41.9191 262.333 42.3372C262.161 42.3163 261.668 42.3682 261.671 42.4429L262.063 42.4908C262.27 42.6277 261.959 42.7265 262.282 42.828C261.78 42.854 262.854 42.3504 262.43 42.448C262.736 42.597 261.741 42.5758 262.277 42.6781C262.258 42.8249 261.745 42.8371 262.064 43.0744C262.064 43.0744 262.629 43.1433 262.57 43.2107C262.512 43.2783 262.374 43.1867 262.203 43.3525L262.008 43.416C261.627 43.3698 261.983 43.6119 261.627 43.3699C261.925 43.4805 261.346 43.6214 261.975 43.7724L262.466 43.8321C262.455 43.9177 261.916 43.8397 261.678 43.848C261.744 43.8903 261.815 43.924 261.89 43.9485C261.141 43.7581 261.862 44.1684 261.294 44.1243C261.499 44.3727 261.233 44.6018 261.616 44.8223C261.357 44.9027 261.051 44.9523 261.161 45.1645C261.253 45.1478 261.347 45.1595 261.431 45.1972C261.623 45.3574 261.414 45.3318 261.27 45.3889C261.38 45.4024 261.639 45.7196 261.878 45.8978C261.575 45.923 261.27 45.8859 260.982 45.789C261.675 46.1219 260.387 46.0525 261.004 46.4008C261.114 46.4143 261.429 46.2909 261.581 46.471C262.274 46.8036 260.954 46.5938 261.253 46.8911L260.656 46.6815C261.006 46.8729 260.218 46.8891 260.848 47.0403C260.614 47.012 260.971 47.3413 260.396 47.1595C260.795 47.643 259.851 47.9134 260.841 48.4563C260.743 48.4443 260.819 48.6277 260.497 48.514C260.175 48.4002 260.764 48.4718 260.516 48.367C260.516 48.367 260.32 48.3432 260.246 48.3343C260.352 48.4837 260.365 48.5726 260.884 48.6108C261.19 48.9463 259.803 48.5788 259.956 48.9452C260.202 48.9752 260.292 49.0483 260.232 49.1279L259.764 49.1827C259.737 49.3908 260.279 49.4441 260.701 49.5575C260.602 49.6451 260.585 49.7796 260.254 49.7393L260.743 50.01C260.393 49.8183 260.465 50.0387 260.351 50.0496L260.462 50.0632C260.646 50.0855 260.443 50.2099 260.435 50.2711C260.27 50.2138 260.133 50.0947 260.054 49.939C259.87 49.9164 259.878 50.0418 259.64 50.05C260.058 50.1009 259.883 50.3033 259.908 50.3933C259.934 50.4835 259.515 50.3452 259.517 50.4325C259.726 50.4578 259.495 50.6043 259.819 50.6064C259.893 50.6153 259.637 50.472 259.836 50.4712C260.036 50.4707 260.347 50.6707 260.04 50.7326C259.733 50.7947 259.248 50.4872 259.452 50.748C259.596 50.7516 259.74 50.7693 259.881 50.8003L260.039 51.0305L259.671 50.9858C259.757 50.9963 259.793 51.0007 259.843 51.0067C259.438 50.9575 259.652 51.2322 259.201 51.1526C259.19 51.2383 259.404 51.4132 259.418 51.5017C259.608 51.6739 259.385 51.7588 259.146 51.7793L259.232 51.7898C259.232 51.7898 259.145 51.9781 258.908 51.9865C259.154 52.203 260.299 52.4169 259.784 52.4413C259.766 52.5882 259.043 52.4878 258.827 52.325C259.009 52.6577 258.319 52.7851 258.817 53.1812C258.67 53.1634 258.572 53.1514 258.474 53.1394C258.506 53.566 257.8 53.8281 258.44 54.3782C258.623 54.3132 258.821 54.4241 259.019 54.5352C258.675 54.4934 259.341 54.7487 258.759 54.6158C258.423 54.5129 258.253 54.4793 258.159 54.3313C258.094 54.364 258.037 54.4128 257.994 54.4726C257.951 54.5324 257.924 54.6019 257.915 54.6748C257.906 54.7475 257.914 54.8207 257.941 54.889C257.967 54.9573 258.01 55.0181 258.066 55.0656C258.013 55.0288 257.952 55.0057 257.887 54.9979C257.823 54.99 257.758 54.9978 257.697 55.0207C258.23 55.1477 258.268 55.3391 258.047 55.4115L257.703 55.3698L258.017 55.5446C257.907 55.5312 257.317 55.4596 257.596 55.6178C257.715 55.651 257.83 55.694 257.941 55.7465C257.634 55.8086 257.128 55.8715 257.362 56.0863L257.803 56.3391C257.723 56.3717 257.636 56.3828 257.55 56.3725C257.464 56.362 257.382 56.3302 257.312 56.2792C257.534 56.5922 257.525 56.7649 257.913 56.9488C256.784 57.0975 256.571 57.6925 256.507 58.1941L256.765 58.2256C256.952 58.4222 256.311 58.1704 256.455 58.3123C256.599 58.4539 256.935 58.5571 257.249 58.5332C257.453 58.794 256.759 58.6599 256.612 58.7415C256.28 58.7011 256.841 58.707 256.428 58.6197C256.317 58.6063 256.612 58.9401 256.113 58.8423C256.354 58.936 256.605 58.9998 256.861 59.0328L256.594 59.0749C257.129 59.376 257.697 59.0347 258.351 59.3753L258.253 59.4628C258.733 59.7076 258.904 59.3432 259.002 59.6532C258.582 59.7024 258.159 59.6294 257.782 59.443C257.569 59.641 256.554 59.2938 256.527 59.5019C256.796 59.6462 256.652 59.3053 257.042 59.477C257.431 59.6487 256.757 59.6539 256.863 59.8035C256.746 59.7353 256.615 59.6916 256.48 59.6751C256.345 59.6588 256.208 59.67 256.077 59.7081C256.264 59.9047 256.556 59.7661 256.557 59.9528C256.263 59.9169 256.014 60.0109 255.845 59.8661C255.194 59.7871 255.976 60.1059 255.458 60.0678C255.883 60.2561 256.538 60.1992 256.659 60.425C256.229 60.2733 256 60.5065 255.431 60.2759C255.641 60.4235 255.893 60.5015 256.151 60.4997C256.388 60.6902 255.296 60.5574 256.109 60.8302L255.654 60.775C255.782 60.8526 255.884 60.9274 256.105 61.0537C256.093 61.1516 255.412 61.2056 256.063 61.3841C255.989 61.3751 255.956 61.6323 255.523 61.4181C255.276 61.2016 255.905 61.3523 255.302 61.0926C255.782 61.3374 255.177 61.2887 254.987 61.3153L255.237 61.4075C255.127 61.3941 255.143 61.5579 254.862 61.5113C255.001 61.5058 255.136 61.5489 255.246 61.6324L254.841 61.5832C254.586 61.7262 255.509 61.8136 255.339 61.9794L255.684 61.9098C255.623 61.9023 255.96 62.0924 255.814 62.1615C255.446 62.1168 254.991 62.0615 254.709 62.0272C254.427 61.9931 255.099 62.1991 254.687 62.1987L255.151 62.1805C255.274 62.1954 255.717 62.4357 255.661 62.5781C255.606 62.7205 254.955 62.6413 254.802 62.4736C254.793 62.547 254.959 62.7036 255.243 62.7257C255.077 62.8547 254.861 62.5923 254.605 62.6481C254.826 62.7744 255.115 63.0459 255.425 63.2574L256.071 63.274L256.059 63.3715C256.562 63.4327 256.399 63.5376 256.926 63.614C256.99 63.6963 256.786 63.7336 256.644 63.7661C255.888 63.3386 255.417 63.6167 254.757 63.4122C254.479 63.6393 256.492 64.0828 255.262 64.0453C255.087 63.9496 254.489 63.9518 254.744 63.8088C254.782 63.9999 253.983 63.7161 254.22 64.006C254.564 63.9484 254.933 64.378 255.432 64.2771C255.174 64.2458 255.279 64.1097 255.356 64.0943C255.61 64.2494 256.104 64.2847 256.044 64.4637C255.984 64.6429 255.892 64.6812 255.52 64.5615C255.149 64.4418 255.541 64.4026 255.16 64.3563C254.951 64.5298 255.585 64.7435 254.814 64.6251C254.904 64.5115 254.488 64.349 254.198 64.2764L253.972 64.3855L254.267 64.4214C254.403 64.7235 253.739 64.3573 253.744 64.6066L254.27 64.8817C254.761 64.9413 254.148 64.4692 254.914 64.7238C254.892 64.8951 254.501 64.8354 254.649 65.0399C254.723 65.049 254.756 64.9783 254.846 64.9643C254.935 64.9504 255.866 65.3738 255.198 65.4295C254.929 65.4837 254.915 65.3952 254.609 65.3579C254.456 65.5755 254.145 65.575 254.051 65.7251C254.628 65.7953 254.013 66.0187 254.65 66.0091C254.348 65.8358 254.481 65.4792 255.047 65.5356C255.685 65.8119 255 65.3187 255.706 65.4542C255.679 65.6621 256.319 65.8267 256.749 65.9784C256.741 66.0396 256.566 66.0429 256.489 66.0586C256.072 66.0077 256.098 65.8995 255.676 65.786C255.731 66.0413 255.437 66.1919 255.012 66.2024C255.182 66.3349 255.607 66.4235 255.667 66.3439C255.587 66.4656 255.535 66.6038 255.517 66.748C255.499 66.8923 255.514 67.039 255.561 67.1763C254.932 66.8264 255.32 67.4077 254.804 67.1463C254.577 66.8965 254.262 66.7431 253.924 66.7164C253.913 66.802 254.219 66.7524 254.353 66.8681C253.961 66.8203 254.885 67.1938 254.318 67.1496C254.604 66.9607 255.143 67.3243 255.679 67.4267C255.33 67.5211 256.059 67.473 256.007 67.6905C255.71 67.7605 255.435 67.9015 255.206 68.1021C255.63 68.4894 255.039 68.7284 254.961 68.9425C255.188 69.1193 255.801 69.2062 255.868 69.3633C255.935 69.5207 255.256 69.0778 255.475 69.3157L255.598 69.3306C255.451 69.3126 255.882 69.8375 255.018 69.6704L255.682 69.7509C255.743 69.7583 255.575 69.8 255.499 69.8154C255.666 69.8931 255.846 69.9403 256.03 69.9548C256.434 70.2027 255.885 70.2104 255.829 70.3525L255.481 70.1489C255.111 70.3152 255.425 70.5896 255.237 70.7905L255.618 70.8366L255.358 70.9168C255.726 70.9615 255.912 71.1708 255.6 71.1701L256.601 71.0429C256.422 70.8844 256.135 70.9862 255.776 70.8681C255.417 70.7498 255.644 70.5292 256.01 70.5984C255.997 70.6963 255.999 70.684 255.784 70.7076C256.299 70.8697 256.312 70.7718 256.668 70.815C256.668 70.815 256.773 70.9646 256.652 70.9375C256.922 70.9704 257.001 70.8431 257.056 70.7009C256.826 70.7474 256.75 70.5643 256.589 70.5573C257.055 70.614 257.223 70.5719 257.151 70.3518C256.662 70.0812 257.581 70.1056 257.5 69.8598C257.134 69.8059 256.76 69.8196 256.398 69.8999C256.199 69.7017 256.417 69.7534 256.254 69.5598C256.635 69.6361 257.026 69.6452 257.41 69.5879L257.074 69.4851C257.288 69.3743 257.774 69.5699 257.747 69.2932C257.716 68.9593 257.738 68.6222 257.812 68.2945L257.476 68.1918C258.225 68.2828 257.878 67.7804 258.252 67.6769C258.018 67.2632 258.781 67.0579 258.236 66.7307C258.693 66.3161 259 65.7636 259.11 65.1592L258.594 65.0964C258.975 65.1427 258.326 64.9521 258.424 64.8647C258.781 65.0944 258.974 64.8567 259.296 64.8711C258.994 64.4989 259.509 64.276 259.927 64.128L259.591 64.0246C260.285 63.9599 259.816 63.5302 259.797 63.1922C259.662 63.1759 259.363 62.9781 259.422 62.9105C259.767 62.9057 260.107 62.8187 260.414 62.6579C260.449 62.4022 260.388 62.1432 260.245 61.9293C261.197 61.4982 260.889 60.6902 261.544 60.1485L261.165 59.9908C262.192 59.5688 261.649 58.5457 262.241 58.1082L261.541 58.0232C261.383 57.7928 261.835 57.6737 262.31 57.8557C262.153 57.6252 262.755 57.4999 262.24 57.2385C262.154 57.0293 262.605 57.1086 262.747 56.9767C262.667 56.8426 262.634 56.6856 262.654 56.5303C262.674 56.3751 262.745 56.2306 262.856 56.1198L262.843 56.2178C262.684 56.1985 262.389 56.1632 262.368 56.0361C262.589 55.9637 262.322 55.5208 263.099 55.8762C262.726 55.3836 263.718 55.1313 263.182 54.6435C263.403 54.6704 263.452 54.6764 263.611 54.6959C263.713 54.3852 263.361 53.9194 263.804 53.7744C263.715 53.6891 263.411 53.7268 263.425 53.6167C263.439 53.5067 263.719 53.6525 263.854 53.6688C264.417 53.265 263.728 52.5105 263.971 52.0678C264.449 51.3497 264.781 50.5454 264.946 49.701L264.787 49.6815C265.486 49.5801 264.328 48.8799 265.32 48.9258C265.185 48.8101 265.352 48.669 264.984 48.6242C265.496 48.5249 264.739 47.9106 265.394 47.7541C265.394 47.7541 265.394 47.7542 265.284 47.7407C265.011 47.3349 265.589 47.2064 265.405 46.7865C265.305 46.8232 265.196 46.8312 265.091 46.8102C264.818 46.6029 265.865 46.7056 265.141 46.4188C265.15 46.3454 265.558 46.4694 265.521 46.465C265.423 45.6702 266.14 45.0365 266.528 44.338C266.213 43.6784 265.22 43.9432 265.926 43.681C265.779 43.6632 266.233 43.7183 266.074 43.6988C266.336 43.5941 265.266 43.1905 265.714 43.1952C266.162 43.2001 265.997 43.2297 266.291 43.2655C266.071 42.8409 265.657 42.6666 266.101 42.5093L265.843 42.478C266.641 42.3761 266.351 41.9178 267.252 41.8907C267.871 40.2633 268.793 38.7973 269.349 37.1747C269.648 35.5209 270.471 34.0551 270.49 32.3424C269.927 31.7646 269.955 31.7434 270.347 31.4058C270.224 31.3909 270.2 31.3879 270.102 31.3759C270.658 31.5058 270.237 31.0942 270.773 31.1966C270.903 30.5951 271.086 30.0058 271.321 29.4362C271.237 29.513 270.772 29.444 270.843 29.378L271.22 29.3493L271.073 29.3314C271.164 29.2956 271.262 29.2834 271.358 29.2951C271.455 29.3068 271.547 29.3422 271.625 29.3985C272.543 27.9691 271.879 26.1366 272.444 24.6394C272.324 24.2147 272.669 23.7595 272.895 23.4515C272.498 22.0735 272.201 20.8812 273.047 19.8159C273.002 19.3879 271.549 19.1494 271.091 19.5162Z" fill="black"/>
<path d="M321.399 75.016C320.152 74.3962 320.697 75.7352 319.766 75.4843C319.694 75.4669 320.28 75.977 320.073 75.9396C319.022 75.5578 318.942 76.4912 319.111 77.4468L319.272 77.5623C319.303 77.7475 318.735 77.3682 318.726 77.5056C318.82 77.5858 318.909 77.6716 318.994 77.7615C318.69 77.4974 318.721 77.7842 318.453 77.6305C318.544 77.7794 318.769 77.9986 318.853 78.1715L318.477 77.8902C317.57 77.2383 318.235 78.2505 317.652 78.0332C317.737 78.0823 317.812 78.1478 317.871 78.2258C317.115 78.0424 316.857 78.4631 316.373 78.6126C316.542 78.7444 316.697 78.8922 316.836 79.0548C316.473 78.7254 316.29 78.7445 316.134 78.7575C316.458 79.1409 315.653 78.6412 315.761 78.8707L315.87 78.8968C315.422 78.5978 315.969 79.2132 315.473 78.8009L315.711 79.1251C315.176 78.6653 315.861 79.4916 315.552 79.3023L315.453 79.1897C315.26 79.1431 315.489 79.4016 315.402 79.3933C315.162 79.3351 315.321 79.7167 314.981 79.2914C315.252 79.6363 315.234 79.3529 315.636 79.8315C314.832 79.8399 314.493 80.3293 314.136 80.7384C314.212 80.8924 314.303 81.038 314.409 81.173C314.289 81.1439 314.187 81.2463 313.953 81.0623C313.953 81.0623 314.124 81.294 314.128 81.3329C314.13 81.3717 313.617 80.9805 313.707 81.2312C313.865 81.3179 314.004 81.4336 314.119 81.5721C313.743 81.3415 313.698 81.4702 313.53 81.4295C313.626 81.4783 313.713 81.5424 313.788 81.6193C313.356 81.362 313.729 81.8587 313.407 81.7173L313.651 81.9165C313.807 82.3101 313.149 81.4773 313.182 81.803C313.285 81.8625 313.378 81.9359 313.459 82.0219C312.948 81.7203 312.924 82.0196 312.678 81.9853C312.715 81.9912 312.751 82.0001 312.786 82.0115C312.63 82.0753 312.705 82.3353 312.342 82.2599C312.396 82.4001 312.91 82.7912 312.709 82.8314C312.261 82.38 312.325 82.8398 311.871 82.2599C311.829 82.4276 311.859 82.7654 311.64 82.6741C311.862 82.8042 312.151 83.2804 312.265 83.2318L312.487 83.5654C312.686 83.7405 312.517 83.4451 312.698 83.6922C312.698 83.6922 312.349 83.6079 312.373 83.7662C312.016 83.5651 311.424 83.1297 311.241 83.1996C311.493 83.2606 311.71 83.7198 311.827 83.7609L310.788 83.0772C310.728 83.0628 311.13 83.4396 310.953 83.3841C310.857 83.2838 310.744 83.2003 310.62 83.1376C310.62 83.1376 310.337 83.1969 310.77 83.6573C310.926 83.8476 310.926 83.695 311.044 83.8887C311.023 83.9724 310.803 83.8305 310.713 83.8849L310.786 83.9024C310.759 84.0102 310.461 83.8235 310.257 83.5707C310.272 83.5108 310.506 83.8471 310.449 83.6174C310.149 83.392 309.99 83.4171 309.909 83.4864C310.032 83.5705 310.149 83.6623 310.26 83.7618C309.967 83.6103 309.642 83.5315 309.311 83.5322C309.098 83.3152 309.738 83.8642 309.641 83.7394C309.786 84.1808 308.918 83.6276 309.225 84.1848C309.285 84.1992 308.933 83.8725 308.996 83.926C309.059 83.9793 309.264 84.3338 309.102 84.269C309.285 84.4532 308.993 84.2428 308.897 84.2195C308.801 84.1962 308.973 84.3267 309.042 84.2545C308.813 84.1992 308.276 84.1577 308.388 84.5785C308.267 84.4479 307.85 84.2324 307.838 84.2803L308.129 84.5415C308.259 84.7378 307.979 84.632 308.223 84.8817C307.802 84.6272 308.796 84.8809 308.43 84.7159C308.643 84.9834 307.841 84.4208 308.25 84.7739C308.229 84.8579 307.784 84.5976 307.983 84.925C307.998 84.8653 308.424 85.2483 308.349 85.2936C308.274 85.339 308.187 85.1782 308.001 85.2092L307.832 85.1686C307.553 84.9102 307.8 85.3002 307.502 84.9613C307.725 85.1929 307.22 84.9693 307.685 85.3996L308.058 85.7437C307.829 85.6248 307.612 85.483 307.412 85.3205C307.456 85.3833 307.505 85.4425 307.56 85.4963C307.016 84.9707 307.521 85.6515 307.028 85.2783C307.124 85.5556 306.812 85.5306 307.113 85.9085C306.873 85.8503 306.62 85.6878 306.659 85.8877C306.742 85.9144 306.818 85.9589 306.882 86.0179C306.993 86.2356 306.858 86.1136 306.705 86.0638C306.836 86.2764 306.955 86.4959 307.062 86.7218C306.8 86.5696 306.564 86.3755 306.366 86.1466C306.84 86.7444 305.825 86.0154 306.258 86.5778C306.438 86.6411 306.592 86.7639 306.693 86.9251C307.168 87.5229 306.174 86.6589 306.327 87.0138L305.906 86.5565C306.135 86.8658 305.498 86.4575 305.964 86.8878C305.766 86.7636 305.985 87.1598 305.561 86.7141C305.76 87.2448 304.928 86.9036 305.601 87.7782C305.505 87.7549 305.574 87.886 305.307 87.6306C305.04 87.3751 305.559 87.6916 305.385 87.5733C305.211 87.4547 305.235 87.4607 305.172 87.4073C305.109 87.3539 305.205 87.6315 305.613 87.9337C305.77 88.3275 304.758 87.3321 304.782 87.6429C304.806 87.9537 305.025 87.8926 304.956 87.914L304.553 87.6893C304.514 87.8449 304.911 88.1443 305.215 88.4592C305.119 88.4361 305.068 88.5379 304.806 88.3604L305.128 88.8066C304.891 88.4823 304.897 88.6618 304.807 88.6147L304.902 88.6378C305.02 88.7807 304.873 88.7574 304.869 88.7695C304.758 88.6509 304.68 88.505 304.644 88.3463C304.491 88.2457 304.476 88.3058 304.287 88.1966C304.599 88.4754 304.419 88.4824 304.401 88.5542C304.383 88.6261 304.083 88.35 304.077 88.3738C304.071 88.3979 304.05 88.4819 304.287 88.6538C304.347 88.6683 304.17 88.4604 304.308 88.5701C304.446 88.6798 304.666 88.9742 304.405 88.8472C304.143 88.7205 303.828 88.2499 303.924 88.5273C304.032 88.5535 304.149 88.6967 304.269 88.7765L304.336 89.0209L304.059 88.751C304.099 88.7999 304.143 88.8442 304.191 88.8843C303.873 88.6292 303.963 88.9308 303.618 88.6311C303.558 88.6165 303.726 88.9118 303.708 88.9835C303.822 89.1892 303.666 89.1507 303.42 89.0148L303.492 89.0323C303.492 89.0323 303.372 89.105 303.192 88.9597C303.327 89.2337 304.204 90.0052 303.775 89.7361C303.697 89.7934 303.159 89.3457 303.018 89.1463C303.078 89.4658 302.477 89.1679 302.79 89.7009C302.706 89.6164 302.606 89.5489 302.496 89.5023C302.421 89.8018 301.787 89.5849 302.166 90.2612C302.346 90.3049 302.443 90.5313 302.596 90.6828C302.313 90.4873 302.8 90.9864 302.356 90.6246C302.112 90.3752 301.989 90.2563 301.95 90.1069C301.911 89.9577 301.53 90.2591 301.698 90.5541C301.637 90.441 301.536 90.3541 301.416 90.3082C301.818 90.6852 301.794 90.8317 301.596 90.7581L301.35 90.5204L301.557 90.812C301.449 90.7858 301.026 90.3405 301.194 90.6352C301.282 90.7153 301.362 90.803 301.434 90.8969C301.173 90.7702 300.749 90.5278 300.894 90.766L301.188 91.1674C301.106 91.1445 301.029 91.1044 300.963 91.049C300.898 90.9936 300.846 90.9251 300.81 90.8474C300.891 91.1848 300.84 91.2863 301.114 91.6195C300.161 91.0965 299.913 91.3284 299.652 91.659L299.838 91.8313C299.946 92.0608 299.502 91.5464 299.562 91.7644C299.741 91.9702 299.935 92.1615 300.144 92.3372C300.241 92.6148 299.721 92.1458 299.574 92.1227C299.427 92.0999 299.775 92.2349 299.466 91.9439C299.358 91.9177 299.517 92.2485 299.166 91.8713C299.333 92.0652 299.519 92.2425 299.721 92.3998L299.469 92.3387C299.821 92.8176 300.37 92.9126 300.812 93.4897L300.716 93.4663C301.044 93.8887 301.269 93.7532 301.269 94.0073C300.924 93.8004 300.619 93.5327 300.371 93.2176C300.149 93.24 299.46 92.4253 299.37 92.5815C299.539 92.8254 299.523 92.53 299.788 92.8483C300.052 93.1663 299.512 92.7811 299.557 92.9572C299.407 92.7338 299.202 92.5526 298.962 92.4315C299.07 92.661 299.347 92.728 299.29 92.8541C299.07 92.6611 298.83 92.6028 298.758 92.3822C298.265 91.9579 298.791 92.6062 298.385 92.2918C298.677 92.6548 299.238 92.9562 299.302 93.2129C299.001 92.886 298.752 92.9147 298.334 92.3943C298.464 92.6111 298.639 92.7966 298.848 92.9382C298.989 93.1884 298.139 92.5118 298.795 93.1533L298.449 92.8536C298.545 92.9787 298.596 93.0797 298.737 93.2791C298.723 93.339 298.143 93.0081 298.684 93.495C298.612 93.4774 298.531 93.5977 298.23 93.22C298.095 92.9458 298.557 93.3879 298.146 92.8943C298.461 93.3138 297.993 92.9463 297.845 92.8217L298.029 93.0062C297.921 92.9799 297.915 93.0548 297.68 92.9218C297.793 92.9932 297.886 93.0898 297.954 93.2039L297.648 92.9516C297.407 92.8935 298.128 93.4744 297.948 93.4816L298.242 93.6293C298.17 93.6118 298.417 93.9002 298.276 93.8533C297.993 93.6069 297.654 93.3345 297.431 93.1536C297.209 92.9727 297.699 93.4596 297.405 93.2611L297.789 93.5069C297.897 93.5331 298.18 93.9827 298.102 94.0399C297.829 93.9223 297.598 93.725 297.441 93.4735C297.441 93.4735 297.507 93.7182 297.732 93.8871C297.564 93.8464 297.462 93.5931 297.231 93.4988C297.372 93.6982 297.528 94.0407 297.733 94.3442L298.244 94.697L298.229 94.7566C298.64 95.0469 298.46 95.054 298.86 95.3921C298.842 95.4639 298.727 95.3602 298.595 95.328C298.102 94.6497 297.673 94.6346 297.162 94.079C296.898 94.0148 298.397 95.4582 297.412 94.7622C297.289 94.5925 296.811 94.2608 297.048 94.331C297.015 94.4629 296.456 93.8447 296.568 94.2145C296.862 94.3622 297.037 94.8361 297.466 95.0544C297.28 94.8825 297.388 94.8579 297.505 94.899C297.622 94.9401 298.058 95.4392 297.974 95.5206C297.89 95.6019 297.782 95.5757 297.508 95.2936C297.235 95.0112 297.622 95.245 297.283 94.9722C297.079 94.9227 297.521 95.4487 296.932 94.9503C297.028 94.9736 296.739 94.5987 296.526 94.382L296.322 94.3325L296.541 94.5258C296.565 94.7857 296.13 94.1847 296.049 94.4063L296.406 94.8615C296.785 95.1819 296.424 94.535 296.977 95.1263C296.95 95.234 296.598 94.9587 296.683 95.1822C296.683 95.1822 296.779 95.2056 296.851 95.2229C296.923 95.2405 297.575 96.0461 297.02 95.7209C296.794 95.6028 296.8 95.5281 296.584 95.3232C296.404 95.3812 296.139 95.2159 296.028 95.2525C296.464 95.6502 295.98 95.4439 296.449 95.7608C296.239 95.4811 296.443 95.3275 296.89 95.6772C297.329 96.2156 296.929 95.5218 297.437 95.9877C297.347 96.0929 297.84 96.5682 298.14 96.8951C298.14 96.8951 297.972 96.8542 297.9 96.8369C297.591 96.5458 297.636 96.5182 297.329 96.2154C297.284 96.3949 297.029 96.3458 296.692 96.0611C296.808 96.2561 296.975 96.4155 297.177 96.5213C297.079 96.5472 296.992 96.6037 296.929 96.6823C296.866 96.7606 296.83 96.857 296.825 96.9572C296.42 96.389 296.579 96.9738 296.222 96.5189C296.096 96.2198 295.893 95.9602 295.632 95.7663C295.615 95.8382 295.849 95.9709 295.933 96.0929C295.615 95.8887 296.279 96.5959 295.807 96.2404C296.083 96.3073 296.432 96.7987 296.849 97.1665C296.525 97.0879 297.126 97.4364 297.042 97.5177C296.807 97.4013 296.549 97.3387 296.286 97.3345C296.535 97.8141 295.992 97.6444 295.869 97.7289C296.01 97.9791 296.484 98.3734 296.491 98.5018C296.497 98.6303 296.082 97.9967 296.172 98.2982L296.28 98.3243C296.136 98.2895 296.389 98.8079 295.74 98.1933L296.242 98.6325C296.242 98.6325 296.133 98.6063 296.061 98.5888C296.174 98.7378 296.309 98.8689 296.461 98.9779C296.723 99.3587 296.275 99.0595 296.197 99.1168L295.96 98.7925C295.623 98.711 295.815 99.0626 295.596 99.0729L295.873 99.3433L295.633 99.2851C295.915 99.5314 296.024 99.7609 295.762 99.5831L296.612 100.056C296.498 99.8503 296.231 99.7984 295.987 99.4982C295.744 99.1978 295.96 99.1989 296.242 99.4452C296.224 99.5172 296.242 99.4452 296.038 99.3957C296.246 99.6008 296.48 99.7775 296.735 99.9205C296.954 100.063 297.032 100.056 297.107 100.011C296.903 99.9614 296.903 99.7582 296.774 99.6634C297.113 99.9869 297.281 100.028 297.29 99.7885C296.969 99.3423 297.699 99.8871 297.692 99.6571C297.419 99.4242 297.118 99.2271 296.794 99.0709C296.698 98.8445 296.812 98.9993 296.779 98.7751C297.055 99.0329 297.364 99.2528 297.698 99.4297L297.458 99.1685C297.662 99.218 298.028 99.5861 298.055 99.4276C298.098 99.1992 298.204 98.9871 298.361 98.8156L298.121 98.5539C298.719 99.0162 298.55 98.5187 298.871 98.6601C298.793 98.26 299.46 98.5484 299.117 98.0336C299.585 97.9438 300.02 97.8837 300.23 97.5026L299.813 97.1855C300.128 97.4018 299.641 96.9537 299.743 96.9529C299.975 97.3012 300.191 97.2523 300.452 97.4298C300.299 97.0242 300.773 97.1642 301.149 97.2933L300.893 97.041C301.482 97.3871 301.211 96.8388 301.277 96.6261C301.343 96.4134 300.992 96.2393 301.058 96.2299C301.315 96.4146 301.609 96.542 301.92 96.6038C301.973 96.5213 302.005 96.427 302.014 96.3296C302.023 96.2321 302.008 96.1342 301.97 96.0442C302.859 96.2595 302.819 95.6021 303.492 95.6128L303.227 95.2948C304.188 95.5277 303.992 94.6293 304.593 94.673L304.058 94.2128C303.992 93.9682 304.394 94.1417 304.722 94.5132C304.652 94.2806 305.187 94.5373 304.829 94.0821C304.871 93.9144 305.178 94.1666 305.298 94.1958C305.289 93.825 305.397 93.8002 305.655 93.7357L305.64 93.7961C305.496 93.707 305.377 93.5819 305.297 93.4332C305.513 93.4855 305.39 93.0621 305.928 93.7133C305.762 93.203 306.624 93.5769 306.336 92.9481C306.431 93.0555 306.548 93.1409 306.681 93.1973C306.843 93.0587 306.674 92.5605 307.083 92.7103C307.019 92.6061 306.758 92.4788 306.804 92.4008C306.848 92.3229 307.02 92.6061 307.161 92.653C307.722 92.7 307.367 91.8263 307.673 91.6718C308.385 91.5775 308.657 90.9959 309.098 90.6583L308.975 90.539C309.558 90.8581 308.809 89.7747 309.608 90.3495C309.518 90.2006 309.653 90.1701 309.41 89.9713C309.839 90.1897 309.403 89.3852 309.965 89.6358C309.965 89.6358 309.965 89.6356 309.857 89.6097C309.745 89.1886 310.25 89.4127 310.169 89.0245C310.071 88.9854 309.982 88.9292 309.904 88.8587C309.745 88.5787 310.553 89.2195 309.97 88.5955C309.97 88.5955 310.285 88.8621 310.246 88.8652C310.387 88.3024 311.12 88.277 311.612 88.0406C311.533 87.4372 310.656 87.072 311.29 87.2889C311.197 87.152 311.533 87.4878 311.422 87.321C311.662 87.3792 310.899 86.5592 311.259 86.799C311.62 87.0388 311.499 86.9588 311.713 87.1757C311.644 86.7905 311.349 86.4398 311.749 86.5747L311.55 86.3994C312.232 86.7805 312.117 86.3213 312.85 86.8038C313.78 86.089 314.9 85.636 315.77 84.9066C316.441 84.0023 317.483 83.5052 317.953 82.3871C317.652 81.7044 317.688 81.7133 318.123 81.7046C318.027 81.6812 317.991 81.6721 317.946 81.5469C318.361 81.9268 318.126 81.4384 318.532 81.8035C318.754 81.4253 319.138 81.264 319.444 80.957C319.36 80.9367 318.993 80.6703 319.077 80.6399L319.399 80.8319L319.29 80.704C319.472 80.7648 319.627 80.8876 319.726 81.0509C320.84 80.622 320.781 79.0711 321.654 78.4315C321.663 78.0908 322.071 77.9861 322.341 77.8737C322.376 76.7643 322.459 75.819 323.42 75.5945C322.8 75.2504 322.109 75.0527 321.399 75.016Z" fill="black"/>
<path d="M350.183 136.779C349.321 135.636 348.851 137.098 348.036 136.43C347.96 136.389 348.223 137.137 348.018 136.998C347.178 136.148 346.357 136.969 345.803 137.92L345.894 138.111C345.798 138.284 345.464 137.666 345.331 137.805C345.197 137.944 345.423 137.968 345.432 138.156C345.304 137.776 345.14 137.997 344.989 137.76C344.965 137.93 345.047 138.242 345.011 138.434L344.813 138.002C344.328 136.993 344.255 138.22 343.798 137.747C343.838 137.853 343.896 137.927 343.891 138.037C343.215 137.502 342.616 137.795 341.955 137.69C342.03 137.892 342.085 138.1 342.118 138.313C341.976 137.856 341.769 137.772 341.582 137.727C341.628 138.23 341.216 137.345 341.098 137.66L341.137 137.767C340.88 137.289 340.964 138.081 340.736 137.549L340.742 137.946C340.52 137.277 340.632 138.351 340.439 138.035L340.406 137.891C340.233 137.797 340.286 138.107 340.168 138.015L340.132 138.08C339.861 137.933 339.822 138.362 339.688 137.839C339.708 138.286 339.948 137.98 339.982 138.632C339.199 138.394 338.356 138.433 337.595 138.744C337.551 138.91 337.536 139.083 337.552 139.255C337.443 139.196 337.243 139.228 337.097 139.008C337.116 139.116 337.107 139.228 337.072 139.332C336.952 139.549 336.784 138.782 336.69 139.055C336.793 139.206 336.856 139.38 336.874 139.562C336.641 139.168 336.492 139.285 336.308 139.185C336.364 139.278 336.409 139.378 336.44 139.482C336.152 139.058 336.155 139.665 335.933 139.403L336.071 139.69C335.925 140.131 335.836 139.07 335.686 139.34C335.784 139.393 335.772 139.542 335.811 139.675C335.489 139.163 335.247 139.369 335.009 139.24C335.026 139.283 335.039 139.328 335.048 139.374C334.822 139.349 334.651 139.581 334.36 139.394C334.282 139.535 334.578 140.146 334.331 140.083C334.186 139.454 333.9 139.919 333.853 139.19C333.686 139.338 333.452 139.634 333.276 139.468C333.417 139.671 333.372 140.237 333.543 140.26L333.521 140.656C333.604 140.913 333.592 140.526 333.667 140.876C333.591 140.835 333.298 140.676 333.243 140.801C333.014 140.451 332.699 139.773 332.417 139.747C332.586 139.951 332.527 140.44 332.617 140.531L332.003 139.424C331.928 139.383 332.11 139.919 331.961 139.781C331.923 139.644 331.86 139.515 331.777 139.4C331.741 139.465 331.42 139.332 331.49 139.919C331.507 140.168 331.653 140.008 331.615 140.254C331.469 140.288 331.406 140.071 331.279 140.072L331.248 140.126C331.183 140.246 330.902 139.938 330.922 139.569C330.922 139.569 330.985 139.941 331.037 139.744C330.885 139.408 330.694 139.346 330.548 139.38C330.624 139.509 330.679 139.648 330.714 139.794C330.509 139.501 330.23 139.267 329.905 139.116C329.823 138.831 330.117 139.624 330.107 139.464C329.932 139.933 329.381 139.07 329.311 139.68C329.311 139.68 329.228 139.269 329.242 139.346C329.255 139.424 329.238 139.837 329.116 139.701C329.161 139.951 328.997 139.636 328.889 139.577C328.78 139.519 328.834 139.675 328.982 139.713C328.802 139.53 328.202 139.289 328.013 139.707C327.976 139.546 327.687 139.15 327.624 139.187L327.753 139.566C327.743 139.814 327.514 139.591 327.567 139.901C327.308 139.479 328.21 140.166 327.929 139.859C327.96 140.185 327.514 139.31 327.681 139.823C327.542 139.846 327.315 139.441 327.276 139.842C327.312 139.777 327.511 140.335 327.4 140.332C327.289 140.328 327.307 140.169 327.117 140.08L326.954 139.991C326.864 139.619 326.806 140.08 326.774 139.654C326.828 139.965 326.471 139.489 326.626 140.151L326.773 140.625C326.697 140.584 326.515 140.147 326.391 139.938L326.414 140.177C326.218 139.437 326.244 140.281 326.001 139.727C325.899 140.038 325.574 139.862 325.647 140.366C325.456 140.177 325.266 139.934 325.171 140.107C325.238 140.173 325.29 140.254 325.322 140.344C325.273 140.584 325.209 140.395 325.091 140.303C325.076 140.562 325.038 140.818 324.976 141.071C324.784 140.882 324.729 140.473 324.65 140.233C324.724 140.991 324.173 139.847 324.188 140.558C324.275 140.606 324.469 140.866 324.41 141.074C324.467 141.837 324.025 140.597 323.932 140.997L323.824 140.375C323.83 140.773 323.448 140.087 323.638 140.711C323.519 140.519 323.483 140.992 323.331 140.375C323.146 140.964 322.487 140.269 322.57 141.369C322.483 141.322 322.407 141.408 322.353 141.097C322.3 140.787 322.517 141.312 322.493 141.074C322.493 141.074 322.4 140.911 322.376 140.828C322.292 140.979 322.25 141.055 322.458 141.52C322.335 141.946 321.982 140.571 321.765 140.862C321.838 141.112 321.839 141.212 321.751 141.192L321.495 140.814C321.334 140.952 321.527 141.394 321.631 141.817C321.547 141.811 321.468 141.778 321.404 141.723C321.341 141.668 321.296 141.594 321.278 141.513L321.294 142.07C321.288 141.673 321.154 141.839 321.08 141.743L321.178 141.796C321.203 141.979 321.112 141.915 321.004 141.856C320.966 141.692 320.99 141.521 321.073 141.373C320.986 141.199 320.911 141.285 320.798 141.055C320.926 141.462 320.713 141.388 320.595 141.423C320.477 141.458 320.404 141.08 320.392 141.102C320.38 141.124 320.25 141.18 320.394 141.455C320.459 141.49 320.403 141.235 320.507 141.404C320.611 141.573 320.59 141.941 320.351 141.685C320.112 141.429 320.179 140.874 320.073 141.168C320.143 141.297 320.206 141.43 320.262 141.566L320.13 141.805L320.04 141.432L320.055 141.609C319.91 141.235 319.792 141.55 319.649 141.121C319.562 141.074 319.493 141.402 319.451 141.478C319.413 141.725 319.252 141.609 319.111 141.378L319.081 141.433C319.081 141.433 318.903 141.448 318.767 141.262C318.704 141.58 319.08 142.684 318.815 142.245C318.676 142.267 318.442 141.62 318.431 141.36C318.257 141.674 317.836 141.136 317.765 141.774C317.694 141.622 317.692 141.523 317.601 141.459C317.286 141.696 316.758 141.199 316.664 142.006C316.827 142.094 316.76 142.368 316.806 142.59C316.642 142.275 316.802 142.954 316.62 142.391C316.551 142.057 316.503 141.89 316.565 141.727C316.507 141.691 316.441 141.671 316.373 141.668C316.305 141.666 316.238 141.68 316.177 141.711C316.116 141.742 316.064 141.787 316.026 141.843C315.988 141.9 315.965 141.964 315.959 142.032C315.965 141.966 315.957 141.9 315.935 141.837C315.914 141.775 315.88 141.718 315.836 141.669C315.991 142.204 315.853 142.326 315.688 142.166L315.595 141.848L315.598 142.201C315.511 142.154 315.382 141.522 315.345 141.868C315.375 141.984 315.394 142.103 315.403 142.222C315.207 141.99 314.931 141.572 314.85 141.922L314.868 142.424C314.792 142.383 314.625 142.124 314.688 141.961C314.508 142.286 314.448 142.394 314.448 142.802C313.809 141.892 313.245 141.994 312.822 142.173L312.902 142.412C312.83 142.669 312.73 142.01 312.683 142.196C312.637 142.382 312.717 142.721 312.883 142.98C312.782 143.291 312.56 142.621 312.425 142.534C312.333 142.217 312.561 142.721 312.434 142.314C312.394 142.208 312.267 142.617 312.12 142.144C312.155 142.397 312.222 142.646 312.317 142.884L312.148 142.679C312.168 143.281 312.696 143.624 312.709 144.391L312.601 144.332C312.629 144.868 312.995 144.843 312.791 145.084C312.574 144.741 312.442 144.35 312.406 143.946C312.178 143.822 312.021 142.807 311.795 142.91C311.81 143.214 312.01 142.928 312.059 143.349C312.108 143.77 311.777 143.196 311.727 143.338C311.731 143.066 311.645 142.802 311.481 142.585C311.42 142.848 311.674 143.027 311.509 143.121C311.421 142.848 311.206 142.675 311.293 142.441C311.08 141.832 311.167 142.668 310.925 142.241C310.984 142.695 311.349 143.232 311.227 143.503C311.146 143.065 310.845 142.971 310.789 142.308C310.775 142.562 310.829 142.815 310.947 143.041C310.902 143.326 310.5 142.32 310.67 143.186L310.532 142.746C310.532 142.9 310.51 143.015 310.522 143.275C310.421 143.304 310.078 142.752 310.251 143.409C310.185 143.373 310 143.428 309.97 142.947C309.94 142.466 310.195 143.253 310.15 142.623C310.188 143.164 309.945 142.61 309.835 142.452L309.885 142.718C309.788 142.665 309.725 142.702 309.631 142.439C309.693 142.558 309.716 142.694 309.698 142.827L309.559 142.442C309.32 142.313 309.69 143.147 309.488 143.079L309.693 143.346C309.693 143.346 309.669 143.67 309.567 143.573L309.195 142.54C309.032 142.452 309.244 142.961 309.059 142.607L309.286 143.012C309.337 143.124 309.344 143.621 309.215 143.649C309.086 143.678 308.835 143.063 308.922 142.828C308.922 142.828 308.791 143.067 308.94 143.331C308.756 143.231 308.862 142.937 308.671 142.748C308.682 143.008 308.6 143.385 308.579 143.754L308.861 144.315L308.771 144.351C309.002 144.8 308.8 144.732 308.996 145.219C308.942 145.316 308.844 145.136 308.725 145.072C308.704 144.216 308.253 144.013 308.117 143.264C307.835 143.111 308.402 145.094 307.865 144C307.863 143.802 307.607 143.269 307.811 143.436C307.727 143.588 307.53 142.721 307.415 143.081C307.631 143.353 307.461 143.865 307.756 144.25C307.688 144.016 307.857 144.066 307.845 144.088C307.85 144.386 308.036 144.839 307.879 144.866C307.723 144.894 307.636 144.847 307.559 144.453C307.481 144.059 307.719 144.469 307.553 144.055C307.336 143.938 307.447 144.603 307.195 143.861C307.314 143.926 307.257 143.444 307.18 143.149L306.985 143.044L307.073 143.317C306.924 143.588 306.894 142.826 306.684 142.951L306.716 143.531C306.879 144 306.988 143.243 307.127 144.036C306.991 144.103 306.852 143.718 306.765 143.952C306.83 143.987 306.873 144.011 306.927 144.04C306.981 144.07 307.087 145.126 306.734 144.568C306.582 144.359 306.645 144.295 306.568 144C306.321 143.964 306.177 143.689 306.016 143.7C306.181 144.268 305.767 143.818 306.072 144.363C306.07 144.01 306.404 143.967 306.609 144.487C306.692 145.179 306.771 144.349 306.975 145.023C306.801 145.083 306.973 145.74 307.038 146.184C307.038 146.184 306.886 146.101 306.857 146.001C306.747 145.589 306.808 145.58 306.715 145.163C306.531 145.317 306.278 145.137 306.053 144.805C306.033 145.019 306.15 145.42 306.249 145.445C306.12 145.421 305.986 145.43 305.861 145.47C305.735 145.51 305.622 145.58 305.53 145.674C305.509 144.973 305.229 145.581 305.198 145.001C305.289 144.679 305.269 144.337 305.143 144.029C305.101 144.104 305.22 144.324 305.219 144.478C305.028 144.135 305.199 145.1 304.967 144.552C305.248 144.705 305.199 145.354 305.367 145.867C305.139 145.617 305.456 146.24 305.311 146.274C305.123 146.053 304.886 145.881 304.617 145.77C304.512 146.318 304.057 145.916 303.862 145.937C303.811 146.233 304.014 146.809 303.932 146.933C303.849 147.057 303.887 146.274 303.752 146.595L303.792 146.701C303.673 146.636 303.522 147.188 303.239 146.401L303.451 147.037C303.415 147.102 303.354 146.984 303.288 146.949C303.33 147.154 303.333 147.353 303.433 147.478C303.408 147.957 303.156 147.468 303.023 147.48L303.017 147.083C302.717 146.836 302.661 147.242 302.41 147.162L302.499 147.534L302.325 147.341C302.438 147.697 302.366 147.954 302.228 147.668L302.781 148.503C302.819 148.256 302.566 148.077 302.548 147.701C302.531 147.325 302.716 147.398 302.861 147.773C302.819 147.848 302.785 147.731 302.666 147.667C302.761 148.183 302.868 148.142 303.01 148.472C303.01 148.472 302.926 148.624 302.923 148.425C303.046 148.661 303.145 148.687 303.302 148.631C303.166 148.445 303.277 148.294 303.211 148.16C303.314 148.61 303.482 148.715 303.616 148.549C303.611 147.997 304.028 148.772 304.161 148.633C304.045 148.286 303.864 147.964 303.63 147.683C303.701 147.426 303.769 147.66 303.797 147.38C303.9 147.749 304.072 148.096 304.304 148.401L304.223 148.062C304.429 148.174 304.529 148.706 304.69 148.568C304.932 148.38 305.207 148.238 305.5 148.149L305.436 147.806C305.729 148.499 305.923 147.971 306.195 148.217C306.417 147.817 306.93 148.391 306.94 147.763C307.464 147.97 308.048 147.977 308.58 147.78L308.361 147.309C308.552 147.652 308.356 147.011 308.492 147.071C308.486 147.49 308.75 147.549 308.898 147.841C309.044 147.399 309.462 147.738 309.766 148.03L309.686 147.691C310.055 148.271 310.186 147.653 310.437 147.479C310.438 147.325 310.407 146.998 310.495 147.018C310.647 147.314 310.869 147.569 311.14 147.762C311.252 147.718 311.353 147.652 311.436 147.566C311.52 147.481 311.585 147.378 311.626 147.267C312.409 147.889 312.907 147.244 313.637 147.555L313.582 147.145C314.389 147.851 314.933 146.894 315.552 147.202L315.33 146.532C315.462 146.294 315.748 146.618 315.827 147.112C315.959 146.874 316.293 147.364 316.263 146.757C316.365 146.573 316.551 147.026 316.704 147.081C316.979 146.737 317.105 146.763 317.447 146.808L317.405 146.884C317.338 146.75 317.262 146.454 317.326 146.39C317.521 146.497 317.708 146.106 317.79 146.952C318.001 146.392 318.658 147.142 318.821 146.414C318.844 146.652 318.943 146.677 319.009 146.812C319.311 146.75 319.494 146.217 319.824 146.537C319.878 146.439 319.656 146.178 319.769 146.127C319.882 146.075 319.845 146.421 319.958 146.524C320.521 146.83 320.811 145.848 321.272 145.83C322.143 146.064 322.881 145.648 323.617 145.541L323.568 145.374C323.971 145.944 323.999 144.594 324.411 145.48C324.489 145.339 324.611 145.349 324.496 145.047C324.801 145.438 324.929 144.494 325.346 144.988C325.346 144.988 325.346 144.988 325.249 144.935C325.476 144.523 325.814 144.932 326.035 144.531C325.953 144.465 325.895 144.374 325.869 144.272C325.905 143.926 326.314 144.894 326.181 144.09C326.181 144.09 326.32 144.475 326.277 144.451C326.856 143.991 327.679 144.312 328.404 144.326C328.746 143.709 328.099 142.992 328.633 143.479C328.623 143.318 328.737 143.774 328.7 143.613C328.898 143.791 328.711 142.676 328.911 143.052C329.112 143.428 329.05 143.311 329.127 143.606C329.348 143.205 329.3 142.756 329.62 143.071L329.547 142.82C330.008 143.464 330.221 143.003 330.666 143.779C332.211 143.534 333.792 143.632 335.299 143.353C336.734 142.823 338.252 142.83 339.626 142.028C339.818 141.273 339.846 141.274 340.292 141.461C340.253 141.354 340.22 141.336 340.224 141.226C340.374 141.772 340.502 141.208 340.669 141.721C341.195 141.552 341.734 141.43 342.28 141.357C342.183 141.304 342.017 140.891 342.128 140.895L342.33 141.216L342.304 141.06C342.375 141.124 342.431 141.203 342.468 141.291C342.504 141.379 342.521 141.474 342.516 141.569C344.051 141.698 345.198 140.21 346.601 140.043C346.88 139.744 347.402 139.844 347.783 139.868C348.672 138.873 349.498 138.069 350.689 138.335C351.157 138.406 350.705 137.006 350.183 136.779Z" fill="black"/>
</g>
<ellipse cx="93.4843" cy="134.836" rx="25.1693" ry="25.1693" fill="#E74F4F"/>
<path d="M100.021 125.611L100.021 125.609C99.7634 123.911 98.5667 122.655 97.1397 121.788C95.7098 120.918 93.9986 120.405 92.5953 120.201C89.6052 119.767 86.4466 120.645 84.3985 122.978C82.3794 125.267 81.5933 128.894 83.181 131.689L83.1815 131.69C83.6321 132.478 84.5471 133.064 85.565 132.62C85.9935 132.437 86.3472 132.055 86.539 131.625C86.732 131.193 86.7838 130.657 86.5144 130.184C85.5484 128.465 86.088 126.274 87.5984 124.971L87.5991 124.971C89.4811 123.34 92.3952 123.58 94.6091 124.675C95.1194 124.93 95.6347 125.231 96.0141 125.599C96.2308 125.811 96.3183 126.024 96.3435 126.254C96.3705 126.501 96.3276 126.781 96.2484 127.129L96.248 127.131C95.9614 128.42 95.3977 129.661 94.7938 130.868L94.7935 130.869C94.4811 131.497 94.1482 132.119 93.811 132.746C93.786 132.792 93.761 132.839 93.7359 132.885C93.424 133.465 93.1094 134.05 92.8089 134.642C92.1596 135.92 91.5687 137.244 91.1945 138.665L91.1943 138.665C91.0096 139.373 90.7835 140.266 90.7382 141.147C90.6928 142.026 90.8242 142.95 91.4103 143.679C92.1625 144.619 93.2629 144.773 94.1486 144.399C95.0258 144.029 95.7053 143.137 95.6475 142.002L95.6474 142C95.6066 141.251 95.1325 140.792 94.583 140.578C94.5973 140.479 94.6132 140.379 94.6297 140.274C94.6334 140.251 94.6371 140.228 94.6409 140.204C94.7711 139.556 94.9847 138.926 95.228 138.293C95.7508 136.968 96.4207 135.7 97.1008 134.439L97.1067 134.428C97.8199 133.112 98.5451 131.774 99.109 130.346C99.6642 128.964 100.259 127.238 100.021 125.611Z" fill="white" stroke="white" stroke-width="0.719123"/>
<path d="M95.6709 148.09C94.7527 148.09 93.7942 148.612 93.6814 149.708C93.6269 150.175 93.7843 150.672 94.0653 151.051C94.3486 151.433 94.7922 151.739 95.337 151.739C96.2552 151.739 97.2137 151.217 97.3265 150.12C97.381 149.653 97.2236 149.156 96.9426 148.777C96.6593 148.395 96.2157 148.09 95.6709 148.09Z" fill="white" stroke="white" stroke-width="0.719123"/>
<mask id="mask0_565_1988" style="mask-type:alpha" maskUnits="userSpaceOnUse" x="11" y="320" width="240" height="372">
<path d="M130.654 353.593C101.544 355.491 63.1527 332.235 47.5956 320.369L11.208 643.903L250.101 691.365C246.673 567.7 237.128 323.217 226.37 334.608C212.922 348.846 167.042 351.22 130.654 353.593Z" fill="#D9D9D9"/>
</mask>
<g mask="url(#mask0_565_1988)">
<path d="M135.827 602.504C140.253 602.504 150.848 596.665 155.951 591.492H172.134L172.134 611.014H139.764C126.447 611.014 129.704 602.504 135.827 602.504Z" fill="#F1F4FC" stroke="black" stroke-width="1.66203" stroke-linecap="round" stroke-linejoin="round"/>
<path d="M151.136 604.274C155.562 604.274 166.59 596.925 171.693 591.753H187.875L191.375 611.498C186.418 611.331 163.819 611.498 153.76 611.498C140.443 611.498 145.012 604.274 151.136 604.274Z" fill="#F1F4FC" stroke="black" stroke-width="1.66203" stroke-linecap="round" stroke-linejoin="round"/>
<path d="M195.31 423.809C203.708 395.778 191.811 379.427 184.813 374.755L134.952 369.75C131.016 408.792 138.889 475.966 140.638 480.371C142.825 485.877 159.446 586.487 156.384 591.492H162.07H173.879H188.312C180.44 494.471 194.144 455.51 195.31 423.809Z" fill="#F5B896" stroke="black" stroke-width="1.66203" stroke-linecap="round" stroke-linejoin="round"/>
<path d="M169.506 591.299L158.571 475.172L172.13 591.299H169.506Z" fill="black"/>
<path d="M154.198 387.076C150.699 429.622 158.571 475.172 158.571 475.172M158.571 475.172L169.506 591.299H172.13L158.571 475.172Z" stroke="black" stroke-width="1.66203" stroke-linecap="round" stroke-linejoin="round"/>
<path d="M191.513 499.918C210.408 400.517 196.762 376.309 187.577 376.63C176.38 368.154 146.172 369.245 132.467 370.85C124.42 395.893 135.821 467.33 142.527 499.918C149.175 495.68 177.955 498.152 191.513 499.918Z" fill="#4A73FA" stroke="black" stroke-width="1.66203" stroke-linecap="round" stroke-linejoin="round"/>
<path d="M161.195 502.176C160.846 500.635 149.678 499.929 144.138 499.768C145.188 498.612 155.947 498.645 161.195 498.323C161.341 500.571 161.545 503.717 161.195 502.176Z" fill="black" stroke="black" stroke-width="1.66203" stroke-linecap="round" stroke-linejoin="round"/>
<path d="M186.563 504.584C186.213 503.043 166.735 498.966 161.195 498.805C162.245 497.649 180.684 500.09 185.933 499.769C186.078 502.016 186.913 506.125 186.563 504.584Z" fill="black" stroke="black" stroke-width="1.66203" stroke-linecap="round" stroke-linejoin="round"/>
<path d="M166.006 389.771C167.756 397.78 174.404 412.296 187 406.29" stroke="black" stroke-width="1.66203" stroke-linecap="round" stroke-linejoin="round"/>
<path d="M161.624 263.991C148.065 263.991 135.381 261.367 120.51 255.234C114.387 265.294 102.141 273.031 98.6416 277.987C109.489 281.836 132.757 291.536 144.129 293.723C125.934 324.164 128.966 362.401 128.383 381.646C141.942 376.834 157.687 373.835 169.497 379.459C176.844 382.958 194.135 380.333 201.862 378.584C201.862 360.641 198.363 340.522 190.928 321.725C196.176 318.663 209.298 316.477 218.045 314.29C212.447 293.646 191.803 268.657 182.18 258.743L171.902 261.367L161.624 263.991Z" fill="#E9EAEE"/>
<path d="M190.928 321.725C196.176 318.663 209.298 316.477 218.045 314.29C212.447 293.646 191.803 268.657 182.18 258.743L171.902 261.367L161.624 263.991C148.065 263.991 135.381 261.367 120.51 255.234C114.387 265.294 102.141 273.031 98.6416 277.987C109.489 281.836 132.757 291.536 144.129 293.723M190.928 321.725C198.363 340.522 201.862 360.641 201.862 378.584C194.135 380.333 176.844 382.958 169.497 379.459C157.687 373.835 141.942 376.834 128.383 381.646C128.966 362.401 125.934 324.164 144.129 293.723M190.928 321.725L182.18 326.099C182.18 316.029 178.244 291.973 171.902 277.987M144.129 293.723C145.537 291.274 151.713 279.883 153.314 277.987" stroke="black" stroke-width="1.66203" stroke-linecap="round" stroke-linejoin="round"/>
<path d="M218.483 314.802C209.318 320.492 189.313 330.895 182.619 326.994C193.976 322.523 217.049 313.827 218.483 314.802Z" fill="black" stroke="black" stroke-width="1.66203" stroke-linecap="round" stroke-linejoin="round"/>
<path d="M199.104 405.461C201.338 398.618 196.133 354.347 187.228 323.235C196.177 318.216 205.362 317.111 209.204 317.111C214.701 345.206 210.291 377.77 210.946 405.461C213.063 412.342 213.027 422.346 210.071 425.143C208.438 426.688 207.382 425.504 207.62 424.303C207.057 425.766 206.196 426.685 205.8 426.685C205.362 426.685 204.05 427.009 203.613 425.373C202.631 427.4 201.863 427.009 201.073 427.009C198.163 426.893 200.889 422.264 199.104 415.791C198.111 417.695 195.319 420.904 192.09 418.513C191.165 417.828 198.336 410.902 199.104 405.461Z" fill="#F5B896"/>
<path d="M203.613 425.373C202.631 427.4 201.863 427.009 201.073 427.009C198.163 426.893 200.889 422.264 199.104 415.791C198.111 417.695 195.319 420.904 192.09 418.513C191.165 417.828 198.336 410.902 199.104 405.461C201.338 398.618 196.133 354.347 187.228 323.235C196.177 318.216 205.362 317.111 209.204 317.111C214.701 345.206 210.291 377.77 210.946 405.461C213.063 412.342 213.027 422.346 210.071 425.143C208.222 426.893 207.112 425.143 207.785 423.831M203.613 425.373C204.05 427.009 205.362 426.685 205.8 426.685C206.237 426.685 207.241 425.565 207.785 423.831M203.613 425.373C203.613 425.373 205.161 423.394 204.594 415.791M207.785 423.831C207.785 423.831 209.972 419.457 208.66 415.791" stroke="black" stroke-width="1.66203" stroke-linecap="round" stroke-linejoin="round"/>
<rect x="158.566" y="302.909" width="11.3718" height="21.8688" rx="0.874752" fill="#465173" stroke="black" stroke-width="1.31213" stroke-linecap="round" stroke-linejoin="round"/>
</g>
<mask id="mask1_565_1988" style="mask-type:alpha" maskUnits="userSpaceOnUse" x="38" y="97" width="245" height="245">
<path d="M280.352 205.137C288.37 271.2 241.308 331.309 175.206 339.332C109.103 347.355 49.0334 300.288 41.0105 234.186C32.9877 168.083 80.0542 108.013 146.157 99.9904C212.26 91.9675 272.329 139.034 280.352 205.137Z" fill="#6CAEBB" stroke="#344559" stroke-width="2.37311"/>
</mask>
<g mask="url(#mask1_565_1988)">
<path d="M160.614 240.841C142.965 240.841 126.456 237.425 107.1 229.442C99.1295 242.536 83.1892 252.606 78.6348 259.058C92.7534 264.068 123.04 276.694 137.842 279.54C114.159 319.163 118.106 368.933 117.347 393.982C134.995 387.72 155.49 383.816 170.861 391.136C180.425 395.69 202.932 392.274 212.989 389.997C212.989 366.643 208.435 340.455 198.757 315.988C205.588 312.003 222.667 309.157 234.053 306.31C226.766 279.439 199.895 246.913 187.371 234.009L173.992 237.425L160.614 240.841Z" fill="#E9EAEE"/>
<path d="M198.757 315.988C205.588 312.003 222.667 309.157 234.053 306.31C226.766 279.439 199.895 246.913 187.371 234.009L173.992 237.425L160.614 240.841C142.965 240.841 126.456 237.425 107.1 229.442C99.1295 242.536 83.1892 252.606 78.6348 259.058C92.7534 264.068 123.04 276.694 137.842 279.54M198.757 315.988C208.435 340.455 212.989 366.643 212.989 389.997C202.932 392.274 180.425 395.69 170.861 391.136C155.49 383.816 134.995 387.72 117.347 393.982C118.106 368.933 114.159 319.163 137.842 279.54M198.757 315.988L187.371 321.681C187.371 308.574 182.247 277.263 173.992 259.058M137.842 279.54C139.674 276.352 147.714 261.525 149.797 259.058" stroke="black" stroke-width="2.16333" stroke-linecap="round" stroke-linejoin="round"/>
<path d="M78.7289 256.932C76.9106 255.487 84.4733 243.654 87.3096 240.204C89.0759 241.75 90.0367 247.361 92.3093 249.167C88.9708 251.933 80.5472 258.376 78.7289 256.932Z" fill="black" stroke="black" stroke-width="2.16333" stroke-linecap="round" stroke-linejoin="round"/>
<path d="M234.615 306.979C222.685 314.384 196.646 327.925 187.932 322.847C202.715 317.029 232.747 305.709 234.615 306.979Z" fill="black" stroke="black" stroke-width="2.16333" stroke-linecap="round" stroke-linejoin="round"/>
<path d="M209.394 424.982C212.302 416.075 205.528 358.45 193.937 317.955C205.585 311.422 217.541 309.984 222.541 309.984C229.697 346.553 223.956 388.938 224.809 424.982C227.565 433.939 227.517 446.96 223.67 450.6C221.545 452.611 220.169 451.071 220.48 449.507C219.747 451.411 218.626 452.607 218.11 452.607C217.541 452.607 215.833 453.029 215.264 450.9C213.986 453.539 212.986 453.029 211.958 453.029C208.17 452.878 211.718 446.853 209.394 438.428C208.102 440.905 204.468 445.082 200.265 441.971C199.061 441.079 208.395 432.064 209.394 424.982Z" fill="#F5B896"/>
<path d="M215.264 450.9C213.986 453.539 212.986 453.029 211.958 453.029C208.17 452.878 211.718 446.853 209.394 438.428C208.102 440.905 204.468 445.082 200.265 441.971C199.061 441.079 208.395 432.064 209.394 424.982C212.302 416.075 205.528 358.45 193.937 317.955C205.585 311.422 217.541 309.984 222.541 309.984C229.697 346.553 223.956 388.938 224.809 424.982C227.565 433.939 227.517 446.96 223.67 450.6C221.263 452.878 219.818 450.6 220.694 448.893M215.264 450.9C215.833 453.029 217.541 452.607 218.11 452.607C218.679 452.607 219.986 451.15 220.694 448.893M215.264 450.9C215.264 450.9 217.278 448.323 216.541 438.428M220.694 448.893C220.694 448.893 223.541 443.2 221.833 438.428" stroke="black" stroke-width="2.16333" stroke-linecap="round" stroke-linejoin="round"/>
<path d="M87.9514 214.877C84.1034 221.733 94.2563 225.907 107.315 229.314C102.272 239.475 94.8567 247.436 90.3263 250.834C85.0406 246.505 54.0591 235.027 61.9551 220.89C66.3968 212.937 106.689 167.431 124.427 150.561C122.987 144.232 131.762 138.908 135.969 136.466C139.334 134.513 143.163 142.357 144.657 146.524C155.554 142.202 159.587 152.472 155.446 152.295C146.914 151.931 144.84 156.484 140.326 159.901C134.197 159.297 92.7614 206.307 87.9514 214.877Z" fill="#F5B896" stroke="black" stroke-width="2.16333" stroke-linecap="round" stroke-linejoin="round"/>
<path d="M138.838 151.543C136.809 150.096 139.49 144.908 141.864 141.581C144.238 138.254 145.941 138.428 147.434 139.494C148.928 140.559 149.647 142.112 147.273 145.44C144.899 148.767 140.866 152.99 138.838 151.543Z" fill="#F5B896" stroke="black" stroke-width="2.16333" stroke-linecap="round" stroke-linejoin="round"/>
<path d="M133.961 147.83C131.933 146.383 134.614 141.195 136.988 137.868C139.362 134.54 141.064 134.715 142.558 135.781C144.051 136.846 144.771 138.399 142.397 141.726C140.023 145.054 135.989 149.277 133.961 147.83Z" fill="#F5B896" stroke="black" stroke-width="2.16333" stroke-linecap="round" stroke-linejoin="round"/>
<path d="M129.145 206.706V162.87L185.094 161.748C185.094 174.273 181.52 180.708 182.659 183.365C187.024 180.139 196.208 175.85 198.03 184.504C199.852 193.157 194.013 198.183 189.079 198.752C185.435 218.336 185.506 230.996 187.783 235.74C183.228 244.849 167.288 243.331 159.887 241.433V227.201C129.373 228.112 129.145 216.954 129.145 206.706Z" fill="#F5B896" stroke="black" stroke-width="2.16333" stroke-linejoin="round"/>
<path d="M160.449 227.201C164.438 227.02 170.991 225.833 172.758 222.55C172.833 222.389 172.904 222.231 172.974 222.077C172.913 222.24 172.841 222.397 172.758 222.55C169.994 228.579 163.998 239.977 160.449 240.864V227.201Z" fill="black" stroke="black" stroke-width="2.16333" stroke-linecap="round" stroke-linejoin="round"/>
<path d="M187.37 249.368C201.602 260.754 222.856 255.82 231.206 249.368C215.835 232.858 225.513 124.743 166.306 136.129C152.643 129.867 131.579 134.991 124.178 166.871C124.791 168.476 137.271 173.703 137.271 173.703C137.271 173.703 141.256 175.625 143.534 175.625C144.285 175.771 149.03 154.788 149.796 154.917C149.227 170.857 150.171 176.439 149.796 176.55C151.537 176.746 158.943 176.96 163.459 177.127C163.459 177.127 181.426 177.359 182.815 177.127V182.251C187.18 179.784 196.479 176.9 198.756 185.098C201.033 193.296 192.114 198.381 187.37 199.899C187.37 214.693 185.662 240.828 187.37 249.368Z" fill="black" stroke="black" stroke-width="2.16333" stroke-linecap="round" stroke-linejoin="round"/>
<path d="M152.072 141.201C145.43 143.668 131.577 151.676 129.3 163.973" stroke="white" stroke-width="2.16333" stroke-linecap="round" stroke-linejoin="round"/>
<path d="M155.416 193.613C154.5 190.605 151.319 188.91 148.311 189.826C145.303 190.743 143.608 193.924 144.525 196.931C145.067 198.713 146.405 200.034 148.03 200.625" stroke="black" stroke-width="1.70789" stroke-linecap="round" stroke-linejoin="round"/>
<circle cx="159.479" cy="190.173" r="0.853947" fill="black" stroke="black" stroke-width="1.70789"/>
<circle cx="149.797" cy="210.655" r="0.853947" fill="black" stroke="black" stroke-width="1.70789"/>
<circle cx="141.26" cy="189.021" r="0.853947" fill="black" stroke="black" stroke-width="1.70789"/>
<path d="M157.76 175.371C157.76 178.774 165.73 172.512 165.73 181.064" stroke="black" stroke-width="1.70789" stroke-linecap="round" stroke-linejoin="round"/>
<path d="M142.964 177.648C141.256 175.358 139.548 174.22 136.702 181.064" stroke="black" stroke-width="1.70789" stroke-linecap="round" stroke-linejoin="round"/>
<path d="M164.2 263.304C161.428 257.549 160.096 250.169 160.805 238.615L187.935 235.135C187.403 251.889 176.75 256.527 164.2 263.304Z" fill="#F5B896" stroke="black" stroke-width="2.16333" stroke-linecap="round" stroke-linejoin="round"/>
<path d="M186.677 236.746L185.655 233.682L167.444 236.274L160.613 241.967L186.677 236.746Z" fill="#F5B896"/>
<path d="M160.707 246.991C160.707 246.991 171.54 231.399 171.858 227.222C172.175 223.045 159.501 239.769 159.501 239.769L160.707 246.991Z" fill="black" stroke="black" stroke-width="3.41579"/>
<path d="M159.474 243.105C154.92 267.016 159.815 288.08 163.459 290.357C167.102 292.634 165.736 271.57 189.077 235.135" stroke="black" stroke-width="1.70789" stroke-linecap="round" stroke-linejoin="round"/>
<rect x="156.63" y="291.496" width="14.8017" height="28.4649" rx="1.1386" fill="#465173" stroke="black" stroke-width="1.70789" stroke-linecap="round" stroke-linejoin="round"/>
<path d="M157.198 298.896H170.861" stroke="black" stroke-width="1.70789" stroke-linecap="round" stroke-linejoin="round"/>
</g>
<path d="M257.549 294.564L259.389 296.219C261.141 297.796 263.675 300.076 266.799 302.89C273.047 308.516 281.658 316.275 291.109 324.805C310.011 341.867 332.268 362.009 345.697 374.341C352.505 380.592 361.86 389.466 371.158 398.284C379.046 405.766 386.892 413.208 393.103 418.974C423.722 447.397 439.601 462.858 451.976 475.074C457.545 480.57 464.449 488.387 468.135 496.863C471.796 505.282 472.232 514.185 465.186 522.228C461.621 526.298 457.853 528.315 454.131 529.027C450.389 529.743 446.589 529.16 442.95 527.852C435.637 525.223 429.228 519.761 425.741 516.686C423.486 514.698 416.989 507.466 408.109 497.408C405.026 493.917 401.665 490.094 398.108 486.049C391.468 478.498 384.148 470.174 376.697 461.79C355.39 437.819 321.785 401.144 293.512 370.468C279.374 355.129 266.567 341.287 257.295 331.281C252.659 326.277 248.907 322.233 246.314 319.439C245.017 318.042 244.01 316.958 243.327 316.223L242.896 315.758L251.996 300.754L257.549 294.564Z" fill="#4A73FA" stroke="black" stroke-width="2.37311"/>
<g style="mix-blend-mode:screen">
<path d="M214.98 106.175C222.907 109.799 230.551 114.291 237.78 119.752L195.367 337.513C188.347 339.365 181.202 340.594 174.046 341.19C185.378 276.528 204.462 166.851 214.98 106.175Z" fill="white" fill-opacity="0.5"/>
</g>
<g style="mix-blend-mode:screen">
<path d="M254.461 134.765C258.219 138.838 261.653 143.118 264.789 147.575L231.921 321.138C227.662 323.963 223.284 326.484 218.786 328.7L254.461 134.765Z" fill="white" fill-opacity="0.5"/>
</g>
<path d="M285.852 319.111C269.241 323.066 261.33 328.603 258.166 333.35L240.476 315.429L261.834 296.444L285.852 319.111Z" fill="black"/>
<path d="M68.9795 109.37L69.0167 109.343L69.0518 109.314C89.428 92.3481 114.763 80.8617 143.038 77.43C221.215 67.9417 292.322 123.622 301.815 201.837C311.308 280.053 255.623 351.122 177.408 360.615C138.344 365.356 99.8782 351.54 70.5415 327.855C41.1967 304.164 21.0999 270.694 18.6361 236.266C16.8131 210.792 21.4618 184.684 30.5549 162.118C39.6529 139.539 53.1621 120.598 68.9795 109.37ZM174.611 337.571C240.094 329.624 286.715 270.078 278.772 204.634C270.824 139.151 211.318 92.526 145.835 100.474C80.3519 108.421 33.7264 167.928 41.6741 233.411C49.6217 298.893 109.128 345.519 174.611 337.571Z" fill="#4A73FA" stroke="black" stroke-width="2.37311"/>
<defs>
<clipPath id="clip0_565_1988">
<rect width="129.788" height="166.87" fill="white" transform="translate(185.169 38.1008) rotate(-17.0713)"/>
</clipPath>
</defs>
</svg>
