<svg width="919" height="903" viewBox="0 0 919 903" fill="none" xmlns="http://www.w3.org/2000/svg">
<path d="M123.343 794.802C124.676 793.246 126.623 792.351 128.672 792.351H805.094C807.143 792.351 809.089 793.246 810.423 794.802L840.503 829.895C844.405 834.448 841.17 841.481 835.174 841.481H98.5921C92.5957 841.481 89.3607 834.448 93.2631 829.895L123.343 794.802Z" fill="#4A73FA"/>
<path d="M603.45 599.796H536.336C534.284 599.796 532.625 601.46 532.625 603.513V626.811C532.625 628.863 534.284 630.527 536.336 630.527L603.45 630.527L670.569 630.527C672.621 630.527 674.275 629.339 674.275 627.287V603.499C674.275 601.446 672.617 599.796 670.564 599.796H603.45Z" fill="#E9EAEE" stroke="#6786ED" stroke-width="2.35383" stroke-linejoin="round"/>
<path d="M603.45 812.555C609.745 812.555 615.273 811.639 618.413 810.986C620.046 810.647 621.156 809.191 621.156 807.523L621.156 635.892C621.156 633.84 619.492 632.176 617.44 632.176L589.461 632.176C587.408 632.176 585.744 633.84 585.744 635.892L585.744 807.523C585.744 809.191 586.854 810.647 588.487 810.986C591.627 811.639 597.155 812.555 603.45 812.555Z" fill="#4A73FA" stroke="#6786ED" stroke-width="2.35383" stroke-linejoin="round"/>
<path d="M340.36 782.532C347.345 782.532 359.228 771.374 367.281 761.491H392.821V798.791C384.998 798.472 367.282 798.791 346.573 798.791C316.193 798.791 330.696 782.532 340.36 782.532Z" fill="#465173" stroke="black" stroke-width="2.6233" stroke-linecap="round" stroke-linejoin="round"/>
<path d="M389.627 783.889C397.405 783.889 410.639 773.624 419.607 764.531H448.049L452.191 798.847C443.479 798.554 419.607 798.847 396.546 798.847C373.141 798.847 378.865 783.889 389.627 783.889Z" fill="#465173" stroke="black" stroke-width="2.6233" stroke-linecap="round" stroke-linejoin="round"/>
<path d="M672.416 592.932C685.671 548.689 666.893 522.881 655.848 515.507L577.149 507.606C544.894 523.591 435.629 531.153 415.609 572.96C392.426 621.372 391.447 703.703 354.859 759.193L391.447 765.274L385.924 773.635L474.288 781.997C477.477 692.742 485.931 630.487 509.496 623.129C555.748 608.687 655.848 631.491 672.416 592.932Z" fill="#DADEEB" stroke="black" stroke-width="2.6233" stroke-linecap="round" stroke-linejoin="round"/>
<path d="M626.163 539.208C628.924 551.849 639.418 574.761 659.3 565.28" stroke="black" stroke-width="2.6233" stroke-linecap="round" stroke-linejoin="round"/>
<path d="M391.447 765.274L383.847 763.771C383.847 763.771 410.82 709.024 416.99 649.734C425.256 604.223 436.602 593.589 447.982 588.197C448.03 588.173 448.055 588.162 448.055 588.162C448.031 588.174 448.006 588.185 447.982 588.197C446.477 588.929 422.34 601.632 416.99 665.696C411.467 731.828 391.447 765.274 391.447 765.274Z" fill="black"/>
<path d="M599.24 551.676C571.817 560.837 478.43 569.919 448.055 588.162M448.055 588.162C448.055 588.162 422.512 599.565 416.99 665.696C411.467 731.828 391.447 765.274 391.447 765.274L383.847 763.771C383.847 763.771 410.82 709.024 416.99 649.734C425.274 604.125 436.651 593.543 448.055 588.162Z" stroke="black" stroke-width="2.6233" stroke-linecap="round" stroke-linejoin="round"/>
<path d="M546.078 408.216C564.717 390.267 581.975 355.059 622.515 340.543L654.961 332.259C670.148 347.907 702.732 387.349 711.569 419.933C697.762 423.384 677.052 426.836 668.768 431.669C668.768 460.203 672.772 507.33 686.026 514.51C673.83 517.271 653.389 525.3 622.515 520.723C591.64 516.145 581.785 504.845 560.384 512.439C561.216 484.978 568.824 440.929 591.496 397.228C584.946 408.217 580.447 413.784 574.264 424.478C574.124 424.798 573.935 425.13 573.691 425.474C573.884 425.137 574.074 424.805 574.264 424.478C577.29 417.535 556.637 416.135 546.078 408.216Z" fill="#465173"/>
<path d="M668.768 431.669C677.052 426.836 697.762 423.384 711.569 419.933C702.732 387.349 670.148 347.907 654.961 332.259L622.515 340.543C581.975 355.059 564.717 390.267 546.078 408.216C557.123 416.5 579.214 417.65 573.691 425.474C582.362 410.287 587.615 405.454 599.234 383.345C570.516 431.392 561.304 482.064 560.384 512.439C581.785 504.845 591.64 516.145 622.515 520.723C653.389 525.3 673.83 517.271 686.026 514.51C672.772 507.33 668.768 460.203 668.768 431.669ZM668.768 431.669H660.674C664.126 415.791 660.674 403.365 654.961 383.345" stroke="black" stroke-width="2.6233" stroke-linecap="round" stroke-linejoin="round"/>
<path d="M712.259 420.742C697.793 429.722 674.981 449.602 655.651 439.985C673.577 432.929 709.995 419.203 712.259 420.742Z" fill="black" stroke="black" stroke-width="2.6233" stroke-linecap="round" stroke-linejoin="round"/>
<path d="M637.635 369.938L602.944 432.649" stroke="black" stroke-width="2.6233" stroke-linecap="round" stroke-linejoin="round"/>
<path d="M627.213 367.416L598.178 432.937" stroke="black" stroke-width="2.6233" stroke-linecap="round" stroke-linejoin="round"/>
<path d="M664.816 427.526C664.816 441.441 659.289 454.786 649.449 464.625C639.61 474.465 626.265 479.992 612.35 479.992C598.435 479.992 585.091 474.465 575.251 464.625C565.412 454.786 559.884 441.441 559.884 427.526L612.35 427.526H664.816Z" fill="#E74F4F" stroke="black" stroke-width="2.6233" stroke-linecap="round" stroke-linejoin="round"/>
<path d="M719.353 490.348C693.052 496.103 645.381 440.401 639.203 432.979C619.073 430.719 605.361 414.579 603.5 409.331C601.758 404.415 605.83 404.226 608.581 406.084C606.402 403.754 604.156 400.322 605.594 397.783C607.426 394.549 609.508 395.543 611.542 397.136C607.717 388.235 613.521 388.888 616.581 391.356C623.314 396.787 625.81 398.499 629.886 399.238C629.633 392.892 628.422 388.46 634.08 391.587C638.309 393.925 647.371 407.81 647.291 415.462C654.665 420.769 663.269 427.062 671.252 432.641C670.108 430.296 695.254 420.91 708.308 422.004C712.387 430.461 737.257 484.473 719.353 490.348Z" fill="#F5B896"/>
<path d="M611.542 397.136C609.508 395.543 607.426 394.549 605.594 397.783C603.8 400.95 607.74 405.509 610.131 407.583M611.542 397.136C607.717 388.235 613.521 388.888 616.581 391.356C623.314 396.787 625.81 398.499 629.886 399.238C629.633 392.892 628.422 388.46 634.08 391.587C638.309 393.925 647.371 407.81 647.291 415.462C664.047 427.521 687.151 444.669 694.899 446.972C693.12 446.306 675.441 434.212 671.736 432.979C667.104 431.437 694.486 420.846 708.308 422.004C712.387 430.461 737.257 484.473 719.353 490.348C693.052 496.103 645.381 440.401 639.203 432.979C619.073 430.719 605.361 414.579 603.5 409.331C601.374 403.332 607.907 404.372 610.131 407.583M611.542 397.136C615.315 402.209 622.59 406.682 628.285 408.068M610.131 407.583C612.522 409.658 619.763 415.086 624.065 415.866" stroke="black" stroke-width="2.6233" stroke-linecap="round" stroke-linejoin="round"/>
<path d="M548.149 410.288C537.794 420.643 501.205 467.586 511.561 485.535C528.129 496.561 552.005 488.599 568.169 481.373C578.524 481.373 599.234 475.16 599.234 464.805C600.615 462.044 600.114 459.472 599.234 458.592C597.854 457.211 595.552 457.692 595.092 457.231C594.402 455.14 594.402 453.069 589.569 453.069C585.852 453.069 579.691 457.007 575.072 456.521C573.934 456.401 577.834 444.095 576.453 442.024C576.453 442.024 577.143 435.811 569.549 447.546C569.549 447.546 565.407 442.714 561.265 433.049C557.123 423.384 569.36 429.027 573.001 426.836L575.072 422.694L570.24 419.242L548.149 410.288Z" fill="#F5B896"/>
<path d="M599.234 464.805C600.615 462.044 600.114 459.472 599.234 458.592C597.854 457.211 595.552 457.692 595.092 457.231M599.234 464.805C599.234 475.16 578.524 481.373 568.169 481.373C552.005 488.599 528.129 496.561 511.561 485.535C501.205 467.586 537.794 420.643 548.149 410.288L570.24 419.242L575.072 422.694M599.234 464.805C594.862 466.416 586.809 472.399 575.073 472.399M595.092 457.231C594.402 455.14 594.402 453.069 589.569 453.069C585.852 453.069 579.691 457.007 575.072 456.521C573.934 456.401 577.834 444.095 576.453 442.024C576.453 442.024 577.143 435.811 569.549 447.546M595.092 457.231C590.72 459.763 582.805 465.219 575.073 464.115M569.549 447.546C564.487 453.529 544.973 462.044 529.51 462.044M569.549 447.546C569.549 447.546 565.407 442.714 561.265 433.049C557.123 423.384 569.36 429.027 573.001 426.836M575.072 422.694C575.072 422.694 573.001 426.146 573.001 426.836M575.072 422.694L573.001 426.836" stroke="black" stroke-width="2.6233" stroke-linecap="round" stroke-linejoin="round"/>
<path d="M581.094 299.201V246.045H638.392C638.392 261.232 644.605 266.295 645.986 269.516C651.279 265.604 662.416 261.784 664.625 272.278C666.834 282.771 659.753 288.866 653.77 289.556C649.352 313.304 649.438 328.656 652.199 334.408C646.676 345.454 627.347 343.613 618.372 341.312V324.053C581.37 325.158 581.094 311.627 581.094 299.201Z" fill="#F5B896" stroke="black" stroke-width="2.6233" stroke-linejoin="round"/>
<path d="M619.062 324.053C623.899 323.834 631.845 322.395 633.989 318.414C634.079 318.218 634.166 318.027 634.25 317.84C634.176 318.037 634.089 318.228 633.989 318.414C630.636 325.724 623.365 339.546 619.062 340.622V324.053Z" fill="black"/>
<path d="M619.062 324.053C624.125 323.823 632.593 322.259 634.25 317.84C631.028 324.974 623.481 339.517 619.062 340.622V324.053Z" stroke="black" stroke-width="2.6233" stroke-linecap="round" stroke-linejoin="round"/>
<path d="M548.839 246.755C553.257 274.921 572.311 268.616 581.285 261.943V252.968C595.092 255.73 608.209 248.596 613.041 244.684C612.614 254.511 630.99 261.943 640.655 259.872C640.655 259.872 643.625 269.498 646.178 270.227C650.55 265.625 661.227 261.943 664.126 270.227C667.992 281.272 658.834 287.716 653.771 289.556L651.01 310.957C654.462 313.949 665.645 318.827 677.243 314.409C688.841 309.991 683.916 297.38 680.004 291.627C688.288 290.017 704.028 282.515 700.715 265.394C697.401 248.274 682.305 243.534 675.172 243.304C677.473 238.471 679.314 225.355 668.268 211.548C657.223 197.741 636.513 203.954 627.538 208.786C625.697 204.414 617.183 195.946 597.854 197.051C578.524 198.155 574.612 213.159 575.072 220.522C564.487 217.531 544.421 218.589 548.839 246.755Z" fill="#F9F9F9" stroke="black" stroke-width="2.6233" stroke-linecap="round" stroke-linejoin="round"/>
<path d="M651.381 232.948C652.55 229.543 649.062 224.207 641.345 222.593C634.306 221.122 629.164 225.241 628.228 227.033" stroke="black" stroke-width="2.6233" stroke-linecap="round" stroke-linejoin="round"/>
<path d="M598.73 227.057C597.003 223.978 589.587 222.438 583.356 227.057C577.672 231.271 578.551 238.359 579.25 240.215" stroke="black" stroke-width="2.6233" stroke-linecap="round" stroke-linejoin="round"/>
<path d="M612.723 282.86C611.612 279.212 607.755 277.157 604.108 278.268C600.46 279.379 598.405 283.237 599.516 286.884C600.174 289.044 601.796 290.646 603.767 291.362" stroke="black" stroke-width="2.07103" stroke-linecap="round" stroke-linejoin="round"/>
<circle cx="617.655" cy="278.689" r="2.07103" fill="black"/>
<circle cx="595.092" cy="277.722" r="2.07103" fill="black"/>
<path d="M616.492 264.606C617.873 261.844 624.776 261.844 625.467 268.057" stroke="black" stroke-width="2.07103" stroke-linecap="round" stroke-linejoin="round"/>
<path d="M598.543 266.262C597.853 263.915 590.95 262.535 590.95 268.318" stroke="black" stroke-width="2.07103" stroke-linecap="round" stroke-linejoin="round"/>
<path d="M612.898 308.858C621.479 306.48 625.006 294.84 625.697 289.317C618.641 295.597 604.635 300.403 592.603 294.497C594.067 305.553 602.686 311.688 612.898 308.858Z" fill="black" stroke="black" stroke-width="2.07103" stroke-linecap="round" stroke-linejoin="round"/>
<path d="M610.274 304.991C605.865 302.162 601.626 304.456 600.057 305.957C611.688 311.761 617.528 305.41 618.994 301.509C615.655 298.951 611.79 302.765 610.274 304.991Z" fill="white"/>
<path d="M622.015 370.918C611.694 371.479 618.632 350.489 619.492 336.479L652.39 332.259C651.745 352.575 634.916 370.218 622.015 370.918Z" fill="#F5B896" stroke="black" stroke-width="2.6233" stroke-linecap="round" stroke-linejoin="round"/>
<path d="M651.01 334.33V330.879L627.538 333.64L619.254 340.543L651.01 334.33Z" fill="#F5B896"/>
<path d="M619.254 343.305C619.254 343.305 628.178 335.374 628.919 331.569C629.659 327.763 619.254 336.455 619.254 336.455V343.305Z" fill="black"/>
<path d="M624.777 279.793C624.777 283.606 621.686 286.697 617.873 286.697C614.06 286.697 610.97 283.606 610.97 279.793C610.97 279.793 614.06 279.793 617.873 279.793C621.686 279.793 624.777 279.793 624.777 279.793Z" fill="white" stroke="black" stroke-width="2.07103" stroke-linecap="round" stroke-linejoin="round"/>
<path d="M599.924 279.793C599.924 283.606 596.833 286.697 593.021 286.697C589.208 286.697 586.117 283.606 586.117 279.793C586.117 279.793 589.208 279.793 593.021 279.793C596.833 279.793 599.924 279.793 599.924 279.793Z" fill="white" stroke="black" stroke-width="2.07103" stroke-linecap="round" stroke-linejoin="round"/>
<path d="M466.228 469.213H280.141C278.088 469.213 276.442 470.877 276.442 472.93V512.164C276.442 514.217 278.088 515.88 280.141 515.88L466.228 515.88L652.319 515.88C654.371 515.88 656.013 514.959 656.013 512.906V472.912C656.013 470.86 654.367 469.213 652.314 469.213H466.228Z" fill="#4A73FA" stroke="black" stroke-width="2.35383" stroke-linejoin="round"/>
<path d="M466.227 819.606C472.523 819.606 478.052 818.688 481.191 818.035C482.824 817.695 483.934 816.239 483.934 814.571L483.934 520.04C483.934 517.987 482.27 516.323 480.217 516.323L452.238 516.323C450.185 516.323 448.521 517.987 448.521 520.04L448.521 814.571C448.521 816.239 449.631 817.695 451.264 818.035C454.403 818.688 459.931 819.606 466.227 819.606Z" fill="#4A73FA" stroke="black" stroke-width="2.35383" stroke-linejoin="round"/>
<path d="M269.976 823.376C274.947 809.998 278.49 699.728 279.641 646.265H313.468C309.326 672.87 298.51 774.981 294.138 823.376H269.976Z" fill="#BF7657" stroke="black" stroke-width="2.6233" stroke-linecap="round" stroke-linejoin="round"/>
<path d="M323.127 836.545C316.141 836.545 304.257 830.368 296.203 822.204H270.66L272.731 849.856C280.555 849.593 300.098 849.976 316.913 849.976C339.701 849.976 332.792 836.545 323.127 836.545Z" fill="#BABECB" stroke="black" stroke-width="2.6233" stroke-linecap="round" stroke-linejoin="round"/>
<path d="M299.661 839.585C292.675 839.585 280.791 830.368 272.737 822.204H247.194L240.981 849.856C248.805 849.593 275.499 849.856 295.519 849.856C316.538 849.856 309.325 839.585 299.661 839.585Z" fill="#BABECB" stroke="black" stroke-width="2.6233" stroke-linecap="round" stroke-linejoin="round"/>
<path d="M246.504 551.248C233.388 511.721 249.054 479.773 260.168 476.114L339.352 472.194C345.604 502.77 332.01 554.605 330.323 558.825C327.274 566.451 312.263 643.105 317.125 647.025L296.287 645.849L287.258 647.025L239.33 644.673C249.266 568.731 249.265 563.41 246.504 551.248Z" fill="#465173" stroke="black" stroke-width="2.6233" stroke-linecap="round" stroke-linejoin="round"/>
<path d="M289.996 503.814C287.235 516.455 276.742 539.366 256.86 529.886" stroke="black" stroke-width="2.6233" stroke-linecap="round" stroke-linejoin="round"/>
<path d="M296.377 644.722L310.489 554.736L288.615 645.505L296.377 644.722Z" fill="black"/>
<path d="M317.544 485.876C323.189 519.132 310.489 554.736 310.489 554.736M310.489 554.736L296.377 644.722L288.615 645.505L310.489 554.736Z" stroke="black" stroke-width="2.6233" stroke-linecap="round" stroke-linejoin="round"/>
<path d="M247.195 823.376C252.165 809.998 252.717 690.353 252.717 646.265H287.925C287.373 671.805 278.49 774.981 274.118 823.376H247.195Z" fill="#BF7657" stroke="black" stroke-width="2.6233" stroke-linecap="round" stroke-linejoin="round"/>
<path d="M253.408 654.626L286.544 647.025H253.408V654.626Z" fill="black" stroke="black" stroke-width="2.6233" stroke-linecap="round" stroke-linejoin="round"/>
<path d="M288.615 655.386L313.468 647.025H288.615V655.386Z" fill="black" stroke="black" stroke-width="2.6233" stroke-linecap="round" stroke-linejoin="round"/>
<path d="M349.845 406.612C360.338 404.955 372.626 391.654 377.458 385.211L347.083 399.018L349.845 406.612Z" fill="black" stroke="black" stroke-width="2.6233" stroke-linecap="round" stroke-linejoin="round"/>
<path d="M378.839 405.231L365.317 378.27C361.708 376.486 348.595 383.934 345.849 390.771C345.849 390.771 354.371 425.84 365.317 427.322C376.262 428.804 434.814 428.293 466.26 410.968C469.093 409.698 470.212 406.817 470.974 403.658C473.156 402.095 472.932 399.343 471.757 398.053C473.284 395.159 471.684 392.519 470.521 390.754C467.924 386.814 460.256 388.023 455.13 389.614C451.372 375.904 437.318 375.764 440.508 379.647C447.082 387.648 445.482 393.96 445.482 393.96C445.482 393.96 439.589 399.324 417.498 403.658C395.407 407.992 378.839 405.231 378.839 405.231Z" fill="#BF7657" stroke="black" stroke-width="2.6233" stroke-linecap="round" stroke-linejoin="round"/>
<path d="M483.022 374.243V374.243H521.102C521.102 402.168 523.641 428.401 503.331 428.401C483.022 428.401 483.022 404.707 483.022 374.243Z" fill="white" stroke="black" stroke-width="2.53868" stroke-linecap="round" stroke-linejoin="round"/>
<path d="M483.288 389.353V389.353C483.288 389.353 490.191 393.495 503.117 393.495C516.042 393.495 520.467 389.353 520.467 389.353C520.467 409.287 522.946 428.012 503.117 428.012C483.288 428.012 483.288 411.099 483.288 389.353Z" fill="#BF7657" stroke="black" stroke-width="2.53868" stroke-linecap="round" stroke-linejoin="round"/>
<path d="M483.022 386.09C478.509 384.679 469.482 383.89 469.482 392.013C469.482 400.137 469.482 403.296 469.482 404.707C469.482 409.784 476.421 413.846 483.868 406.399" stroke="black" stroke-width="2.53868" stroke-linecap="round" stroke-linejoin="round"/>
<ellipse cx="502.485" cy="374.243" rx="19.4632" ry="6.76981" fill="white" stroke="black" stroke-width="2.53868" stroke-linecap="round" stroke-linejoin="round"/>
<path d="M489.831 386.937C489.549 397.091 489.831 416.555 496.601 416.555" stroke="black" stroke-width="2.53868" stroke-linecap="round" stroke-linejoin="round"/>
<path d="M483.022 358.998C485.73 358.321 492.613 375.089 494.869 380.167L488.946 378.474C485.843 372.551 480.314 359.675 483.022 358.998Z" fill="#465173" stroke="black" stroke-width="2.53868" stroke-linecap="round" stroke-linejoin="round"/>
<path d="M514.332 386.937C514.332 397.091 514.332 417.401 507.562 417.401" stroke="black" stroke-width="2.53868" stroke-linecap="round" stroke-linejoin="round"/>
<path d="M502.485 386.937V416.555" stroke="black" stroke-width="2.53868" stroke-linecap="round" stroke-linejoin="round"/>
<path d="M298.258 305.131C330.515 314.106 353.987 365.881 376.768 384.521C376.768 384.521 354.525 392.805 346.932 400.398C355.899 431.646 359.907 461.113 360.389 477.026C338.989 469.433 300.33 473.575 285.832 480.478C274.235 486.001 246.943 481.859 234.747 479.098C230.416 462.529 238.009 421.799 252.006 396.256C243.721 391.424 223.011 387.972 209.204 384.521C218.041 351.936 250.625 312.495 265.812 296.847L298.258 305.131Z" fill="#FF005C"/>
<path d="M252.006 396.256C243.721 391.424 223.011 387.972 209.204 384.521C218.041 351.936 250.625 312.495 265.812 296.847L298.258 305.131C330.515 314.106 353.987 365.881 376.768 384.521C376.768 384.521 354.525 392.805 346.932 400.398M252.006 396.256C238.009 421.799 230.416 462.529 234.747 479.098C246.943 481.859 274.235 486.001 285.832 480.478C300.33 473.575 338.989 469.433 360.389 477.026C359.469 446.651 345.703 366.891 309.115 319.628M252.006 396.256L265.812 403.16C262.361 387.282 268.384 345.861 272.526 322.39" stroke="black" stroke-width="2.6233" stroke-linecap="round" stroke-linejoin="round"/>
<path d="M209.226 384.521C223.34 393.501 254.834 410.008 265.144 403.851C247.655 396.795 211.435 382.982 209.226 384.521Z" fill="black" stroke="black" stroke-width="2.6233" stroke-linecap="round" stroke-linejoin="round"/>
<path d="M237.744 528.439C234.218 517.638 242.432 447.762 256.488 398.656C242.362 390.734 227.865 388.99 221.801 388.99C213.125 433.335 220.086 484.732 219.052 528.439C215.71 539.3 214.387 559.232 219.052 563.647C221.97 566.408 222.661 563.647 222.661 561.576C223.52 564.313 223.288 566.592 225.736 566.592C228.183 566.592 229.012 562.233 229.077 560.809C229.077 564.987 230.612 566.592 233.255 566.592C237.848 566.408 234.926 554.961 237.744 544.744C239.31 547.748 243.717 552.813 248.813 549.04C250.274 547.959 238.956 537.027 237.744 528.439Z" fill="#BF7657"/>
<path d="M229.077 560.809C229.077 564.987 230.612 566.592 233.255 566.592C237.848 566.408 234.926 554.961 237.744 544.744C239.31 547.748 243.717 552.813 248.813 549.04C250.274 547.959 238.956 537.027 237.744 528.439C234.218 517.638 242.432 447.762 256.488 398.656C242.362 390.734 227.865 388.99 221.801 388.99C213.125 433.335 220.086 484.732 219.052 528.439C215.71 539.3 214.387 559.232 219.052 563.647C221.97 566.408 222.661 563.647 222.661 561.576M229.077 560.809C229.012 562.233 228.183 566.592 225.736 566.592C223.288 566.592 223.52 564.313 222.661 561.576M229.077 560.809C229.077 560.809 228.183 556.743 229.077 544.744M222.661 561.576C222.661 561.576 220.59 550.53 222.661 544.744" stroke="black" stroke-width="2.6233" stroke-linecap="round" stroke-linejoin="round"/>
<path d="M259.621 400.398L241.672 480.478C241.672 474.455 251.337 424.582 256.169 400.398H259.621Z" fill="black" stroke="black" stroke-width="2.6233" stroke-linecap="round" stroke-linejoin="round"/>
<path d="M453.793 393.764C454.828 396.602 461.758 395.147 466.415 393.449C471.071 391.751 471.418 389.705 470.655 387.615C469.893 385.525 468.311 384.182 463.654 385.88C458.998 387.578 452.758 390.925 453.793 393.764Z" fill="#BF7657" stroke="black" stroke-width="2.6233" stroke-linecap="round" stroke-linejoin="round"/>
<path d="M456.554 400.667C457.589 403.506 464.519 402.05 469.176 400.353C473.832 398.655 474.179 396.608 473.417 394.518C472.654 392.428 471.072 391.085 466.416 392.783C461.759 394.481 455.519 397.829 456.554 400.667Z" fill="#BF7657" stroke="black" stroke-width="2.6233" stroke-linecap="round" stroke-linejoin="round"/>
<path d="M457.935 407.571C458.97 410.409 465.9 408.954 470.557 407.256C475.213 405.558 475.56 403.512 474.798 401.422C474.035 399.332 472.453 397.989 467.797 399.687C463.14 401.385 456.9 404.732 457.935 407.571Z" fill="#BF7657" stroke="black" stroke-width="2.6233" stroke-linecap="round" stroke-linejoin="round"/>
<path d="M336.529 261.862V208.706C336.529 208.706 331.006 181.076 297.179 180.386C263.353 179.695 259.901 207.309 259.901 207.309C259.901 220.531 264.087 227.957 269.27 231.981C263.56 228.547 254.915 225.83 252.997 234.939C250.788 245.432 262.202 249.436 268.185 250.126C272.603 273.874 268.185 291.317 265.424 297.07C270.946 308.115 290.276 306.274 299.25 303.973V286.714C336.253 287.819 336.529 274.288 336.529 261.862Z" fill="#BF7657"/>
<path d="M336.529 208.706V261.862C336.529 274.288 336.253 287.819 299.25 286.714V303.973C290.276 306.274 270.946 308.115 265.424 297.07C268.185 291.317 272.603 273.874 268.185 250.126C262.202 249.436 250.788 245.432 252.997 234.939C255.206 224.446 266.344 229.646 271.637 233.558C265.424 230.036 259.901 222.496 259.901 207.309C259.901 207.309 263.353 179.695 297.179 180.386C331.006 181.076 336.529 208.706 336.529 208.706Z" stroke="black" stroke-width="2.6233" stroke-linejoin="round"/>
<path d="M298.56 286.714C293.723 286.494 285.777 285.056 283.634 281.075C283.544 280.878 283.457 280.687 283.373 280.501C283.446 280.698 283.534 280.889 283.634 281.075C286.986 288.385 294.257 302.206 298.56 303.282V286.714Z" fill="black"/>
<path d="M298.56 286.714C293.498 286.484 285.029 284.919 283.373 280.501C286.594 287.634 294.142 302.177 298.56 303.282V286.714Z" stroke="black" stroke-width="2.6233" stroke-linecap="round" stroke-linejoin="round"/>
<path d="M304.493 199.509C280.193 199.509 268.415 217.665 266.114 229.401L260.591 228.02L259.901 214.213L297.179 186.599L335.839 205.929V223.188C332.387 214.213 328.793 199.509 304.493 199.509Z" fill="black" stroke="black" stroke-width="2.6233" stroke-linecap="round" stroke-linejoin="round"/>
<path d="M306.564 203.651C286.876 203.651 266.621 211.704 258.931 216.768L261.281 192.122C276.663 177.411 306.016 174.865 324.103 181.767L337.63 209.174C334.81 208.374 326.252 203.651 306.564 203.651Z" fill="#17884B" stroke="black" stroke-width="2.6233" stroke-linecap="round" stroke-linejoin="round"/>
<path d="M306.191 247.447C307.302 243.8 311.16 241.745 314.807 242.856C318.454 243.967 320.51 247.824 319.399 251.472C318.74 253.632 317.118 255.234 315.147 255.95" stroke="black" stroke-width="2.07103" stroke-linecap="round" stroke-linejoin="round"/>
<circle cx="2.07103" cy="2.07103" r="2.07103" transform="matrix(-1 0 0 1 303.331 241.206)" fill="black"/>
<circle cx="2.07103" cy="2.07103" r="2.07103" transform="matrix(-1 0 0 1 325.894 240.239)" fill="black"/>
<path d="M302.422 229.194C301.042 226.432 294.138 226.432 293.448 232.645" stroke="black" stroke-width="2.07103" stroke-linecap="round" stroke-linejoin="round"/>
<path d="M320.371 230.85C321.061 228.503 327.965 227.122 327.965 232.905" stroke="black" stroke-width="2.07103" stroke-linecap="round" stroke-linejoin="round"/>
<path d="M306.017 273.446C297.435 271.068 293.908 259.428 293.217 253.905C300.273 260.185 314.279 264.991 326.312 259.085C324.847 270.141 316.229 276.276 306.017 273.446Z" fill="black" stroke="black" stroke-width="2.07103" stroke-linecap="round" stroke-linejoin="round"/>
<path d="M308.64 269.579C313.05 266.75 317.289 269.044 318.857 270.545C307.226 276.349 301.386 269.998 299.92 266.097C303.259 263.539 307.125 267.353 308.64 269.579Z" fill="white"/>
<path d="M296.899 335.506C307.22 336.067 300.283 315.077 299.423 301.067L266.524 296.847C267.169 317.162 283.998 334.806 296.899 335.506Z" fill="#BF7657" stroke="black" stroke-width="2.6233" stroke-linecap="round" stroke-linejoin="round"/>
<path d="M267.905 298.918V295.467L291.376 298.228L299.661 305.131L267.905 298.918Z" fill="#BF7657"/>
<path d="M299.661 307.893C299.661 307.893 290.736 299.962 289.996 296.157C289.255 292.351 299.661 301.043 299.661 301.043V307.893Z" fill="black"/>
<path d="M296.899 277.518L296.899 287.182" stroke="black" stroke-width="2.07103" stroke-linecap="round" stroke-linejoin="round"/>
<path d="M302.422 278.898V287.182" stroke="black" stroke-width="2.07103" stroke-linecap="round" stroke-linejoin="round"/>
<path d="M307.945 280.279V287.182" stroke="black" stroke-width="2.07103" stroke-linecap="round" stroke-linejoin="round"/>
<path d="M313.468 280.279V287.182" stroke="black" stroke-width="2.07103" stroke-linecap="round" stroke-linejoin="round"/>
<path d="M318.99 280.279V285.802" stroke="black" stroke-width="2.07103" stroke-linecap="round" stroke-linejoin="round"/>
<path d="M324.513 278.898V284.421" stroke="black" stroke-width="2.07103" stroke-linecap="round" stroke-linejoin="round"/>
</svg>
