<svg width="300" height="300" viewBox="0 0 300 300" fill="none" xmlns="http://www.w3.org/2000/svg">
<rect width="300" height="300" rx="150" fill="#4A73FA"/>
<mask id="mask0_565_1844" style="mask-type:alpha" maskUnits="userSpaceOnUse" x="0" y="0" width="300" height="300">
<circle cx="150" cy="150" r="150" fill="#D9D9D9"/>
</mask>
<g mask="url(#mask0_565_1844)">
<path d="M67.9243 297.048C59.2694 268.159 71.5305 251.306 78.743 246.491L130.132 241.333C151.193 251.77 222.541 256.708 235.614 284.007C250.752 315.619 251.391 369.38 275.282 405.613L251.391 409.584L254.997 415.044L197.298 420.504C195.215 362.222 189.695 321.571 174.308 316.766C144.106 307.336 78.743 322.226 67.9243 297.048Z" fill="#BABECB" stroke="black" stroke-width="1.71296" stroke-linecap="round" stroke-linejoin="round"/>
<path d="M98.126 261.968C96.3229 270.222 89.471 285.183 76.4886 278.992" stroke="black" stroke-width="1.71296" stroke-linecap="round" stroke-linejoin="round"/>
<path d="M251.391 409.584L256.354 408.603C256.354 408.603 238.741 372.854 234.712 334.139C229.314 304.422 221.905 297.478 214.475 293.957C214.443 293.941 214.427 293.934 214.427 293.934C214.443 293.941 214.459 293.949 214.475 293.957C215.457 294.434 231.219 302.73 234.712 344.562C238.318 387.745 251.391 409.584 251.391 409.584Z" fill="black"/>
<path d="M115.707 270.109C133.613 276.091 194.593 282.021 214.427 293.934M214.427 293.934C214.427 293.934 231.106 301.379 234.712 344.562C238.318 387.745 251.391 409.584 251.391 409.584L256.354 408.603C256.354 408.603 238.741 372.854 234.712 334.139C229.303 304.358 221.874 297.448 214.427 293.934Z" stroke="black" stroke-width="1.71296" stroke-linecap="round" stroke-linejoin="round"/>
<path d="M71.2301 272.483C83.6085 269.913 88.2546 287.833 89.0303 297.114L95.1262 295.481C93.9824 285.987 87.3218 267.051 69.8299 267.257C52.3381 267.464 52.3056 287.198 54.4759 297.039L60.1677 297.381C58.6975 290.152 58.8517 275.053 71.2301 272.483Z" fill="white" stroke="black" stroke-width="1.71296" stroke-linecap="round" stroke-linejoin="round"/>
<path d="M36.2655 293.518L110.778 296.42C129.218 346.08 118.589 344.728 116.475 349.028C114.783 352.468 66.6694 343.706 42.8241 338.895C36.2039 319.762 35.6933 300.671 36.2655 293.518Z" fill="white" stroke="black" stroke-width="1.71296" stroke-linecap="round" stroke-linejoin="round"/>
<path d="M114.266 347.753C111.676 334.603 106.865 306.895 108.345 301.272C100.106 307.679 81.5555 320.77 73.2638 321.872C64.9721 322.974 44.9517 305.035 35.978 295.928" stroke="black" stroke-width="1.71296" stroke-linecap="round" stroke-linejoin="round"/>
<path d="M106.695 133.146C117.964 137.203 133.741 155.685 143.208 164.249C145.732 175.789 136.897 173.555 140.503 178.664C129.324 182.631 129.534 156.887 118.866 155.685C137.618 187.059 143.508 224.654 144.109 244.488C130.135 239.529 104.892 242.234 95.4253 246.742C87.8522 250.348 70.0314 247.643 62.0677 245.84V189.933C56.6583 186.778 56.2076 186.337 47.192 184.084C52.962 162.807 70.1817 139.457 79.648 129.089L106.695 133.146Z" fill="#465173" stroke="black" stroke-width="1.71296" stroke-linecap="round" stroke-linejoin="round"/>
<path d="M138.249 242.685C142.937 228.981 136.596 203.167 133.741 189.042C138.43 203.107 143.508 229.913 144.56 244.488L138.249 242.685Z" fill="black" stroke="black" stroke-width="1.71296" stroke-linecap="round" stroke-linejoin="round"/>
<path d="M89.1147 197.146C92.2702 196.244 99.7531 194.441 104.441 194.441C109.129 194.441 115.711 196.244 118.415 197.146" stroke="black" stroke-width="1.35234" stroke-linecap="round" stroke-linejoin="round"/>
<path d="M76.8142 264.13C74.7992 258.34 49.19 210.304 74.6332 172.89C82.3529 157.488 78.7465 139.907 76.0419 133.146C66.5757 148.021 16.99 194.902 64.6892 263.577C63.4871 269.723 60.8388 281.205 64.6892 281.297C66.0851 281.331 66.5034 280.792 66.5468 280.102C67.0045 281.108 67.8456 281.988 69.2093 282.051C70.5903 282.114 70.8535 281.086 70.8279 280.048C71.3183 281.364 72.5186 282.155 73.7885 282.051C76.0378 281.866 73.7885 274.536 76.0378 270.128C76.9143 271.732 79.3447 274.418 82.0543 272.33C84.764 270.241 79.69 265.993 76.8142 264.13Z" fill="#F5B896"/>
<path d="M70.633 278.142C70.3224 280.541 71.9853 282.199 73.7885 282.051C76.0378 281.866 73.7885 274.536 76.0378 270.128C76.9143 271.732 79.3447 274.418 82.0543 272.33C84.764 270.241 79.69 265.993 76.8142 264.13C74.7992 258.34 49.19 210.304 74.6332 172.89C82.3529 157.488 78.7465 139.907 76.0419 133.146C66.5757 148.021 16.99 194.902 64.6892 263.577C63.4871 269.723 60.8388 281.205 64.6892 281.297C67.7695 281.371 66.0894 278.658 66.1252 277.691M70.633 278.142C70.6125 278.911 71.6343 282.161 69.2093 282.051C66.6875 281.936 65.9527 279.024 66.1252 277.691M70.633 278.142C70.633 278.142 70.4309 275.078 71.5346 270.128M66.1252 277.691C66.1252 277.691 65.6744 272.732 67.9283 269.577" stroke="black" stroke-width="1.71296" stroke-linecap="round" stroke-linejoin="round"/>
<path d="M170.705 208.426C180.623 187.239 123.374 138.104 106.244 133.146C106.244 133.146 111.327 147.12 117.514 159.741C123.7 172.363 126.98 172.814 126.98 172.814L116.737 195.791C121.959 200.552 130.508 197.527 137.923 200.854C152.27 207.291 167.436 210.506 170.705 208.426Z" fill="#F5B896" stroke="black" stroke-width="1.71296" stroke-linecap="round" stroke-linejoin="round"/>
<path d="M127.431 182.28C123.103 182.641 124.125 186.337 125.177 188.141C129.143 191.025 134.042 192.047 135.995 192.198M127.431 182.28C126.429 180.477 128.422 177.682 132.389 179.125C136.356 180.567 138.85 180.628 139.602 180.477C140.683 180.449 143.659 173.554 145.011 170.109C147.896 172.634 146.814 179.576 145.912 182.731C145.912 182.731 149.643 190.381 160.913 193.099M127.431 182.28C129.234 185.526 134.793 186.938 137.348 187.239" stroke="black" stroke-width="1.71296" stroke-linecap="round" stroke-linejoin="round"/>
<path d="M111.463 199.349L122.281 157.28C122.64 155.882 124.035 155.013 125.448 155.305L146.28 159.616C147.796 159.929 148.74 161.449 148.35 162.947L146.554 169.831C146.442 170.26 146.054 170.56 145.61 170.56C145.242 170.56 144.906 170.766 144.74 171.094L140.11 180.209C139.735 180.948 139.035 181.468 138.208 181.417C137.016 181.342 135.154 181.026 132.692 180.165C132.434 180.075 132.191 179.938 131.968 179.779C130.428 178.683 129.426 178.532 128.773 178.882C126.946 179.861 124.551 182.933 124.19 184.975C124.043 185.805 124.147 186.747 124.555 187.565C124.913 188.282 125.234 189.049 125.378 189.838C126.168 194.157 132.201 197.84 136.859 199.53C138.288 200.049 139.226 201.53 138.874 203.009L138.403 204.987C138.066 206.403 136.668 207.298 135.241 207.013L113.552 202.675C112.031 202.37 111.077 200.852 111.463 199.349Z" fill="white" stroke="black" stroke-width="1.71296" stroke-linecap="round" stroke-linejoin="round"/>
<circle cx="128.04" cy="162.917" r="2.70467" transform="rotate(-11.4818 128.04 162.917)" fill="black"/>
<path d="M132.335 71.8496C130.792 66.8791 125.001 59.2278 120.164 59.2278C121.886 63.5553 124.858 81.7667 125.001 87.1761C128.728 87.1761 136.392 84.9222 132.335 71.8496Z" fill="#BFC2C8" stroke="black" stroke-width="1.71296" stroke-linecap="round" stroke-linejoin="round"/>
<path d="M126.475 105.217V71.8495C126.475 68.2432 124.221 55.1708 102.133 54.72C80.0444 54.2691 76.4382 69.5953 76.4382 69.5953C76.4382 78.2293 79.1716 83.0778 82.5561 85.7058C78.8277 83.4633 73.1826 81.6893 71.9304 87.637C70.4879 94.4889 77.9408 97.1034 81.8475 97.5542C84.7325 113.061 81.8475 124.451 80.0444 128.207C83.6506 135.42 96.2724 134.218 102.133 132.715V121.445C126.294 122.167 126.475 113.331 126.475 105.217Z" fill="#F5B896"/>
<path d="M126.475 71.8495C126.475 75.4557 126.475 105.217 126.475 105.217C126.475 113.331 126.294 122.167 102.133 121.445V132.715C96.2724 134.218 83.6506 135.42 80.0444 128.207C81.8475 124.451 84.7325 113.061 81.8475 97.5542C77.9408 97.1034 70.4879 94.4889 71.9304 87.637C73.3729 80.7852 80.6455 84.1811 84.1014 86.7355C80.0444 84.4354 76.4382 79.5125 76.4382 69.5953C76.4382 69.5953 80.0444 54.2691 102.133 54.72C124.221 55.1708 126.475 68.2432 126.475 71.8495Z" stroke="black" stroke-width="1.71296" stroke-linejoin="round"/>
<path d="M102.763 121.685C99.6043 121.542 94.4159 120.603 93.0161 118.003C92.9574 117.875 92.9005 117.75 92.8456 117.628C92.8938 117.757 92.9508 117.882 93.0161 118.003C95.2053 122.777 99.9531 131.802 102.763 132.504V121.685Z" fill="black"/>
<path d="M102.763 121.685C99.457 121.535 93.9274 120.513 92.8456 117.628C94.9492 122.286 99.8777 131.783 102.763 132.504V121.685Z" stroke="black" stroke-width="1.71296" stroke-linecap="round" stroke-linejoin="round"/>
<path d="M84.5523 85.373C80.4954 75.4555 79.5938 68.6938 82.7493 61.0304C79.5938 59.453 75.5367 63.7355 72.8321 68.694C68.8977 75.907 72.8321 85.8233 72.8321 85.8233C78.6922 79.5129 86.6798 90.5738 84.5523 85.373Z" fill="#BFC2C8" stroke="black" stroke-width="1.71296" stroke-linecap="round" stroke-linejoin="round"/>
<path d="M100.78 65.3825C103.034 63.7352 112.05 63.2844 116.107 65.3823" stroke="black" stroke-width="1.35234" stroke-linecap="round" stroke-linejoin="round"/>
<path d="M104.837 67.7933C107.843 66.8918 109.165 66.7108 112.05 67.7927" stroke="black" stroke-width="1.35234" stroke-linecap="round" stroke-linejoin="round"/>
<path d="M106.759 93.9568C107.484 91.5753 110.003 90.233 112.385 90.9586C114.766 91.6842 116.109 94.203 115.383 96.5845C114.953 97.9953 113.894 99.0414 112.607 99.509" stroke="black" stroke-width="1.35234" stroke-linecap="round" stroke-linejoin="round"/>
<circle cx="1.35234" cy="1.35234" r="1.35234" transform="matrix(-1 0 0 1 104.892 89.8804)" fill="black"/>
<circle cx="1.35234" cy="1.35234" r="1.35234" transform="matrix(-1 0 0 1 119.317 88.9692)" fill="black"/>
<path d="M103.99 83.1194C103.99 85.8135 102.187 87.6272 97.6793 87.6272" stroke="black" stroke-width="1.35234" stroke-linecap="round" stroke-linejoin="round"/>
<path d="M116.612 83.1194C116.612 84.9119 119.317 87.1658 121.571 85.8241" stroke="black" stroke-width="1.35234" stroke-linecap="round" stroke-linejoin="round"/>
<path d="M105.793 106.099C106.545 107.151 108.047 109.254 111.203 109.254C113.727 109.254 115.26 107.151 115.711 106.099" stroke="black" stroke-width="1.35234" stroke-linecap="round" stroke-linejoin="round"/>
<path d="M100.835 152.078C107.574 152.444 103.044 138.739 102.482 129.59L81.0005 126.835C81.4217 140.1 92.4105 151.621 100.835 152.078Z" fill="#F5B896" stroke="black" stroke-width="1.71296" stroke-linecap="round" stroke-linejoin="round"/>
<path d="M81.9019 128.187V125.933L97.2283 127.736L102.638 132.244L81.9019 128.187Z" fill="#F5B896"/>
<path d="M102.638 134.047C102.638 134.047 96.8105 128.869 96.3269 126.384C95.8433 123.899 102.638 129.574 102.638 129.574V134.047Z" fill="black"/>
<circle cx="102.187" cy="89.4202" r="5.86012" fill="white" stroke="black" stroke-width="1.35234" stroke-linecap="round" stroke-linejoin="round"/>
<path d="M124.558 89.4202C124.558 92.6566 121.934 95.2803 118.698 95.2803C117.722 95.2803 116.802 95.0419 115.993 94.6202C115.993 94.6202 115.993 93.673 115.091 92.5756C114.247 91.5474 113.12 91.2233 113.12 91.2233C112.937 90.6553 112.837 90.0493 112.837 89.4202C112.837 86.1837 115.461 83.5601 118.698 83.5601C121.934 83.5601 124.558 86.1837 124.558 89.4202Z" fill="white" stroke="black" stroke-width="1.35234" stroke-linecap="round" stroke-linejoin="round"/>
<path d="M84.6069 84.9124C87.3116 86.4149 93.2619 89.4201 95.4256 89.4201" stroke="black" stroke-width="1.35234" stroke-linecap="round" stroke-linejoin="round"/>
<circle cx="1.35234" cy="1.35234" r="1.35234" transform="matrix(-1 0 0 1 104.441 89.8708)" fill="black"/>
<circle cx="1.35234" cy="1.35234" r="1.35234" transform="matrix(-1 0 0 1 118.866 89.8708)" fill="black"/>
<path d="M107.146 89.8708H99.0315" stroke="black" stroke-width="1.35234" stroke-linecap="round" stroke-linejoin="round"/>
<path d="M123.374 89.8708H115.26" stroke="black" stroke-width="1.35234" stroke-linecap="round" stroke-linejoin="round"/>
<path d="M231.528 194.04H100.972C99.9037 194.04 99.0742 194.906 99.0742 195.973V224.676C99.0742 225.744 99.9037 226.609 100.972 226.609H231.528H362.083C363.151 226.609 363.981 226.258 363.981 225.191V195.955C363.981 194.887 363.152 194.04 362.084 194.04H231.528Z" fill="#093890" stroke="black" stroke-width="1.5469" stroke-linejoin="round"/>
<path d="M231.205 438.322C251.76 438.322 269.105 437.271 274.548 436.904C275.557 436.836 276.323 435.998 276.323 434.987L276.323 228.845C276.323 227.777 275.458 226.911 274.39 226.911L188.021 226.911C186.953 226.911 186.087 227.777 186.087 228.845L186.087 434.987C186.087 435.998 186.854 436.836 187.862 436.904C193.306 437.271 210.65 438.322 231.205 438.322Z" fill="#093890" stroke="black" stroke-width="1.5469" stroke-linejoin="round"/>
<g opacity="0.5">
<path d="M194.535 227.209V438.424" stroke="white" stroke-width="0.322271" stroke-linejoin="round"/>
<path d="M206.869 227.209V438.424" stroke="white" stroke-width="0.322271" stroke-linejoin="round"/>
<path d="M219.202 227.209V438.424" stroke="white" stroke-width="0.322271" stroke-linejoin="round"/>
<path d="M231.536 227.209V438.424" stroke="white" stroke-width="0.322271" stroke-linejoin="round"/>
<path d="M243.87 227.209V438.424" stroke="white" stroke-width="0.322271" stroke-linejoin="round"/>
<path d="M256.204 227.209V438.424" stroke="white" stroke-width="0.322271" stroke-linejoin="round"/>
<path d="M268.538 227.209V438.424" stroke="white" stroke-width="0.322271" stroke-linejoin="round"/>
</g>
<path opacity="0.5" d="M186.826 270.377H276.246" stroke="white" stroke-width="0.322271" stroke-linejoin="round"/>
<path opacity="0.5" d="M186.826 255.916H276.246" stroke="white" stroke-width="0.322271" stroke-linejoin="round"/>
<path opacity="0.5" d="M186.826 239.158H276.246" stroke="white" stroke-width="0.322271" stroke-linejoin="round"/>
<path opacity="0.5" d="M186.826 285.794H276.246" stroke="white" stroke-width="0.322271" stroke-linejoin="round"/>
<path opacity="0.5" d="M98.9482 205.625C98.9482 205.625 158.31 205.625 231.536 205.625C304.762 205.625 364.123 205.625 364.123 205.625" stroke="white" stroke-width="0.644543" stroke-linejoin="round"/>
<path opacity="0.5" d="M105.115 195.329V226.934" stroke="white" stroke-width="0.644543" stroke-linejoin="round"/>
<path opacity="0.5" d="M117.449 196.009V227.614" stroke="white" stroke-width="0.644543" stroke-linejoin="round"/>
<path opacity="0.5" d="M129.783 196.009V227.614" stroke="white" stroke-width="0.644543" stroke-linejoin="round"/>
<path opacity="0.5" d="M142.116 194.467V226.072" stroke="white" stroke-width="0.644543" stroke-linejoin="round"/>
<path opacity="0.5" d="M154.45 194.467V226.072" stroke="white" stroke-width="0.644543" stroke-linejoin="round"/>
<path opacity="0.5" d="M166.784 194.467V226.072" stroke="white" stroke-width="0.644543" stroke-linejoin="round"/>
<path opacity="0.5" d="M179.118 194.467V226.072" stroke="white" stroke-width="0.644543" stroke-linejoin="round"/>
<path opacity="0.5" d="M191.451 194.467V226.072" stroke="white" stroke-width="0.644543" stroke-linejoin="round"/>
<path opacity="0.5" d="M203.785 194.467V226.072" stroke="white" stroke-width="0.644543" stroke-linejoin="round"/>
<path opacity="0.5" d="M216.119 194.467V226.072" stroke="white" stroke-width="0.644543" stroke-linejoin="round"/>
<path opacity="0.5" d="M228.452 194.467V226.072" stroke="white" stroke-width="0.644543" stroke-linejoin="round"/>
<path opacity="0.5" d="M240.786 194.467V226.072" stroke="white" stroke-width="0.644543" stroke-linejoin="round"/>
<path opacity="0.5" d="M253.12 194.467V226.072" stroke="white" stroke-width="0.644543" stroke-linejoin="round"/>
<path opacity="0.5" d="M265.454 194.467V226.072" stroke="white" stroke-width="0.644543" stroke-linejoin="round"/>
<path opacity="0.5" d="M277.787 194.467V226.072" stroke="white" stroke-width="0.644543" stroke-linejoin="round"/>
<path opacity="0.5" d="M290.121 194.467V226.072" stroke="white" stroke-width="0.644543" stroke-linejoin="round"/>
<path d="M186.087 239.158L276.967 226.267H186.087V239.158Z" fill="black" stroke="black" stroke-width="1.18513" stroke-linecap="round" stroke-linejoin="round"/>
</g>
</svg>

