<svg width="300" height="300" viewBox="0 0 300 300" fill="none" xmlns="http://www.w3.org/2000/svg">
<rect width="300" height="300" rx="150" fill="#4A73FA"/>
<mask id="mask0_565_1382" style="mask-type:alpha" maskUnits="userSpaceOnUse" x="0" y="0" width="300" height="300">
<circle cx="150" cy="150" r="150" fill="#0E0808"/>
</mask>
<g mask="url(#mask0_565_1382)">
<path d="M-12.9224 27.2295H501.711" stroke="#BFC2C8" stroke-width="0.416948" stroke-linejoin="round"/>
<path d="M-12.9224 59.0952H501.711" stroke="#BFC2C8" stroke-width="0.416948" stroke-linejoin="round"/>
<path d="M-12.9224 90.9617H501.711" stroke="#BFC2C8" stroke-width="0.416948" stroke-linejoin="round"/>
<path d="M-12.9224 122.827H501.711" stroke="#BFC2C8" stroke-width="0.416948" stroke-linejoin="round"/>
<path d="M-12.9224 154.694H501.711" stroke="#BFC2C8" stroke-width="0.416948" stroke-linejoin="round"/>
<path d="M-12.9224 186.559H501.711" stroke="#BFC2C8" stroke-width="0.416948" stroke-linejoin="round"/>
<path d="M-12.9224 218.425H501.711" stroke="#BFC2C8" stroke-width="0.416948" stroke-linejoin="round"/>
<path d="M-12.9224 250.29H501.711" stroke="#BFC2C8" stroke-width="0.416948" stroke-linejoin="round"/>
<path d="M-12.9224 282.156H501.711" stroke="#BFC2C8" stroke-width="0.416948" stroke-linejoin="round"/>
<path d="M276.26 -7.02588L276.26 507.608" stroke="#BFC2C8" stroke-width="0.416948" stroke-linejoin="round"/>
<path d="M244.395 -7.02588L244.395 507.608" stroke="#BFC2C8" stroke-width="0.416948" stroke-linejoin="round"/>
<path d="M212.529 -7.02588L212.529 507.608" stroke="#BFC2C8" stroke-width="0.416948" stroke-linejoin="round"/>
<path d="M180.663 -7.02588L180.663 507.608" stroke="#BFC2C8" stroke-width="0.416948" stroke-linejoin="round"/>
<path d="M148.797 -7.02588L148.797 507.608" stroke="#BFC2C8" stroke-width="0.416948" stroke-linejoin="round"/>
<path d="M116.931 -7.02588L116.931 507.608" stroke="#BFC2C8" stroke-width="0.416948" stroke-linejoin="round"/>
<path d="M85.0654 -7.02588L85.0654 507.608" stroke="#BFC2C8" stroke-width="0.416948" stroke-linejoin="round"/>
<path d="M53.1992 -7.02588L53.1992 507.608" stroke="#BFC2C8" stroke-width="0.416948" stroke-linejoin="round"/>
<path d="M21.3335 -7.02588L21.3335 507.608" stroke="#BFC2C8" stroke-width="0.416948" stroke-linejoin="round"/>
<path d="M248.259 158.635H213.779C213.779 158.635 213.075 175.489 220.346 182.185H241.691C248.962 175.489 248.259 158.635 248.259 158.635Z" fill="#BABECB" stroke="black" stroke-width="1.5844"/>
<path d="M251.308 159.559H210.495C209.792 159.559 209.088 158.866 209.088 158.173C209.088 157.481 209.792 156.788 210.495 156.788H251.308C252.012 156.788 252.715 157.481 252.715 158.173C252.715 158.866 252.012 159.559 251.308 159.559Z" fill="black" stroke="black" stroke-width="1.5844"/>
<path d="M191.698 158.635H157.218C157.218 158.635 156.514 175.489 163.785 182.185H185.13C192.401 175.489 191.698 158.635 191.698 158.635Z" fill="#BABECB" stroke="black" stroke-width="1.5844"/>
<path d="M194.747 159.559H153.934C153.23 159.559 152.526 158.866 152.526 158.173C152.526 157.481 153.23 156.788 153.934 156.788H194.747C195.45 156.788 196.154 157.481 196.154 158.173C196.154 158.866 195.45 159.559 194.747 159.559Z" fill="black" stroke="black" stroke-width="1.5844"/>
<path d="M304.633 158.635H270.153C270.153 158.635 269.449 175.489 276.72 182.185H298.065C305.336 175.489 304.633 158.635 304.633 158.635Z" fill="#BABECB" stroke="black" stroke-width="1.5844"/>
<path d="M307.682 159.559H266.869C266.166 159.559 265.462 158.866 265.462 158.173C265.462 157.481 266.166 156.788 266.869 156.788H307.682C308.386 156.788 309.089 157.481 309.089 158.173C309.089 158.866 308.386 159.559 307.682 159.559Z" fill="black" stroke="black" stroke-width="1.5844"/>
<path d="M248.259 213.831H213.779C213.779 213.831 213.075 230.685 220.346 237.381H241.691C248.962 230.685 248.259 213.831 248.259 213.831Z" fill="#BABECB" stroke="black" stroke-width="1.5844"/>
<path d="M251.308 214.753H210.495C209.792 214.753 209.088 214.061 209.088 213.368C209.088 212.676 209.792 211.983 210.495 211.983H251.308C252.012 211.983 252.715 212.676 252.715 213.368C252.715 214.061 252.012 214.753 251.308 214.753Z" fill="black" stroke="black" stroke-width="1.5844"/>
<path d="M191.698 213.831H157.218C157.218 213.831 156.514 230.685 163.785 237.381H185.13C192.401 230.685 191.698 213.831 191.698 213.831Z" fill="#BABECB" stroke="black" stroke-width="1.5844"/>
<path d="M194.747 214.753H153.934C153.23 214.753 152.526 214.061 152.526 213.368C152.526 212.676 153.23 211.983 153.934 211.983H194.747C195.45 211.983 196.154 212.676 196.154 213.368C196.154 214.061 195.45 214.753 194.747 214.753Z" fill="black" stroke="black" stroke-width="1.5844"/>
<path d="M304.633 213.831H270.153C270.153 213.831 269.449 230.685 276.72 237.381H298.065C305.336 230.685 304.633 213.831 304.633 213.831Z" fill="#BABECB" stroke="black" stroke-width="1.5844"/>
<path d="M307.682 214.753H266.869C266.166 214.753 265.462 214.061 265.462 213.368C265.462 212.676 266.166 211.983 266.869 211.983H307.682C308.386 211.983 309.089 212.676 309.089 213.368C309.089 214.061 308.386 214.753 307.682 214.753Z" fill="black" stroke="black" stroke-width="1.5844"/>
<path d="M248.259 104.046H213.779C213.779 104.046 213.075 120.901 220.346 127.596H241.691C248.962 120.901 248.259 104.046 248.259 104.046Z" fill="#BABECB" stroke="black" stroke-width="1.5844"/>
<path d="M251.308 104.97H210.495C209.792 104.97 209.088 104.278 209.088 103.585C209.088 102.892 209.792 102.2 210.495 102.2H251.308C252.012 102.2 252.715 102.892 252.715 103.585C252.715 104.278 252.012 104.97 251.308 104.97Z" fill="black" stroke="black" stroke-width="1.5844"/>
<path d="M191.698 104.046H157.218C157.218 104.046 156.514 120.901 163.785 127.596H185.13C192.401 120.901 191.698 104.046 191.698 104.046Z" fill="#BABECB" stroke="black" stroke-width="1.5844"/>
<path d="M194.747 104.97H153.934C153.23 104.97 152.526 104.278 152.526 103.585C152.526 102.892 153.23 102.2 153.934 102.2H194.747C195.45 102.2 196.154 102.892 196.154 103.585C196.154 104.278 195.45 104.97 194.747 104.97Z" fill="black" stroke="black" stroke-width="1.5844"/>
<path d="M304.633 104.046H270.153C270.153 104.046 269.449 120.901 276.72 127.596H298.065C305.336 120.901 304.633 104.046 304.633 104.046Z" fill="#BABECB" stroke="black" stroke-width="1.5844"/>
<path d="M307.682 104.97H266.869C266.166 104.97 265.462 104.278 265.462 103.585C265.462 102.892 266.166 102.2 266.869 102.2H307.682C308.386 102.2 309.089 102.892 309.089 103.585C309.089 104.278 308.386 104.97 307.682 104.97Z" fill="black" stroke="black" stroke-width="1.5844"/>
<path d="M327.789 193.137L327.789 185.469C327.789 183.627 326.295 182.133 324.453 182.133L146.302 182.133C144.46 182.133 142.967 183.627 142.967 185.469L142.967 193.137C142.967 194.98 144.46 196.473 146.302 196.473L324.453 196.473C326.295 196.473 327.789 194.98 327.789 193.137Z" fill="white" stroke="black" stroke-width="1.5844"/>
<path d="M327.789 138.169L327.789 131.297C327.789 129.455 326.295 127.962 324.453 127.962L146.302 127.962C144.46 127.962 142.967 129.455 142.967 131.297L142.967 138.169C142.967 140.012 144.46 141.505 146.302 141.505L324.453 141.505C326.295 141.505 327.789 140.012 327.789 138.169Z" fill="white" stroke="black" stroke-width="1.5844"/>
<path d="M165.378 275.198C160.495 255.167 150.241 254.689 142.429 249.437C142.429 249.437 132.631 242.186 114.109 240.02C95.5862 237.855 86.7651 243.81 86.7651 243.81C82.3707 287.701 91.1596 363.215 93.1127 368.167C95.5541 374.357 123.418 371.543 130.222 371.543L134.617 358.031L147.8 380.77L186.862 361.821C163.425 304.043 170.261 295.23 165.378 275.198Z" fill="#BABECB"/>
<path d="M134.617 358.031L130.222 371.543C123.418 371.543 95.5541 374.357 93.1127 368.167C91.1596 363.215 82.3707 287.701 86.7651 243.81C86.7651 243.81 95.5862 237.855 114.109 240.02C132.631 242.186 142.429 249.437 142.429 249.437C150.241 254.689 160.495 255.167 165.378 275.198C170.261 295.23 163.425 304.043 186.862 361.821L147.8 380.77L134.617 358.031ZM134.617 358.031C127.455 344.677 113.328 314.72 114.109 301.727" stroke="black" stroke-width="2.04781" stroke-linecap="round" stroke-linejoin="round"/>
<path d="M131.895 268.028C133.871 277.036 141.38 293.363 155.606 286.607" stroke="black" stroke-width="2.04781" stroke-linecap="round" stroke-linejoin="round"/>
<path d="M152.198 288.653C137.4 285.58 131.845 307.003 130.918 318.099L123.631 316.146C124.998 304.797 132.961 282.159 153.872 282.406C174.783 282.653 174.822 306.244 172.227 318.009L165.423 318.418C167.18 309.776 166.996 291.725 152.198 288.653Z" fill="white" stroke="black" stroke-width="2.04781" stroke-linecap="round" stroke-linejoin="round"/>
<path d="M193.997 313.8L104.919 317.269C82.8741 376.637 95.5812 375.021 98.1091 380.162C100.131 384.274 157.65 373.799 186.157 368.048C194.071 345.174 194.682 322.352 193.997 313.8Z" fill="white" stroke="black" stroke-width="2.04781" stroke-linecap="round" stroke-linejoin="round"/>
<path d="M100.749 378.637C103.846 362.916 109.597 329.792 107.827 323.07C117.677 330.73 139.854 346.38 149.766 347.697C159.679 349.014 183.613 327.569 194.341 316.682" stroke="black" stroke-width="2.04781" stroke-linecap="round" stroke-linejoin="round"/>
<path d="M109.8 122.078C96.3278 126.928 77.4664 149.023 66.1496 159.262C63.1318 173.058 73.6941 170.387 69.3829 176.494C82.7476 181.237 82.4961 150.46 95.25 149.023C72.8319 186.53 65.7903 231.474 65.0718 255.186C81.7776 249.258 111.956 252.491 123.273 257.88C132.326 262.191 153.63 258.958 163.151 256.802V189.967C169.618 186.194 170.157 185.668 180.934 182.974C174.037 157.538 153.451 129.623 142.134 117.228L109.8 122.078Z" fill="#465173" stroke="black" stroke-width="2.04781" stroke-linecap="round" stroke-linejoin="round"/>
<path d="M72.0772 253.03C66.4726 236.648 74.0532 205.787 77.4662 188.901C71.8616 205.715 65.7901 237.761 64.5327 255.186L72.0772 253.03Z" fill="black" stroke="black" stroke-width="2.04781" stroke-linecap="round" stroke-linejoin="round"/>
<path d="M130.817 198.589C127.045 197.511 118.099 195.355 112.495 195.355C106.89 195.355 99.0225 197.511 95.7891 198.589" stroke="black" stroke-width="1.61669" stroke-linecap="round" stroke-linejoin="round"/>
<path d="M145.522 278.668C147.931 271.746 178.546 214.32 148.129 169.591C138.901 151.179 143.212 130.162 146.445 122.078C157.762 139.862 217.041 195.907 160.017 278.006C161.454 285.354 164.62 299.08 160.017 299.19C158.349 299.23 157.849 298.586 157.797 297.762C157.249 298.964 156.244 300.017 154.614 300.091C152.963 300.166 152.648 298.938 152.679 297.697C152.092 299.27 150.657 300.216 149.139 300.091C146.45 299.87 149.139 291.107 146.45 285.838C145.402 287.756 142.497 290.967 139.258 288.47C136.018 285.973 142.084 280.895 145.522 278.668Z" fill="#F5B896"/>
<path d="M152.912 295.418C153.283 298.286 151.295 300.268 149.139 300.091C146.45 299.87 149.139 291.107 146.45 285.838C145.402 287.756 142.497 290.967 139.258 288.47C136.018 285.973 142.084 280.895 145.522 278.668C147.931 271.746 178.546 214.32 148.129 169.591C138.901 151.179 143.212 130.162 146.445 122.078C157.762 139.862 217.041 195.907 160.017 278.006C161.454 285.354 164.62 299.08 160.017 299.19C156.335 299.278 158.343 296.035 158.301 294.879M152.912 295.418C152.936 296.337 151.715 300.223 154.614 300.091C157.628 299.953 158.507 296.473 158.301 294.879M152.912 295.418C152.912 295.418 153.153 291.756 151.834 285.838M158.301 294.879C158.301 294.879 158.839 288.951 156.145 285.179" stroke="black" stroke-width="2.04781" stroke-linecap="round" stroke-linejoin="round"/>
<path d="M33.2768 212.074C21.421 186.746 89.8608 128.006 110.339 122.078C110.339 122.078 104.262 138.784 96.8665 153.873C89.4708 168.962 85.5497 169.501 85.5497 169.501L97.7954 196.969C91.5522 202.662 81.3321 199.045 72.4673 203.022C55.3154 210.717 37.1848 214.561 33.2768 212.074Z" fill="#F5B896" stroke="black" stroke-width="2.04781" stroke-linecap="round" stroke-linejoin="round"/>
<path d="M85.011 180.818C90.1844 181.249 88.9629 185.668 87.7055 187.824C82.9632 191.273 77.1072 192.494 74.772 192.674M85.011 180.818C86.2085 178.662 83.8254 175.321 79.0831 177.046C74.3408 178.77 71.359 178.842 70.4608 178.662C69.1674 178.629 65.6107 170.386 63.994 166.268C60.5451 169.286 61.8384 177.585 62.9162 181.357C62.9162 181.357 58.4561 190.503 44.9837 193.752M85.011 180.818C82.8554 184.698 76.209 186.387 73.1553 186.746" stroke="black" stroke-width="2.04781" stroke-linecap="round" stroke-linejoin="round"/>
<path d="M104.1 201.223L91.1677 150.931C90.7379 149.26 89.0712 148.22 87.3811 148.57L62.4766 153.723C60.6643 154.098 59.5359 155.914 60.003 157.705L62.1499 165.935C62.2839 166.448 62.7477 166.807 63.2784 166.807C63.7175 166.807 64.1193 167.053 64.3182 167.445L69.8531 178.342C70.3017 179.225 71.1379 179.847 72.1265 179.785C73.5523 179.696 75.7783 179.318 78.7213 178.289C79.0297 178.181 79.3206 178.017 79.5867 177.828C81.4276 176.517 82.6261 176.337 83.4063 176.755C85.5908 177.926 88.454 181.599 88.8853 184.039C89.0606 185.031 88.9367 186.157 88.4488 187.135C88.0212 187.993 87.6372 188.91 87.4648 189.852C86.5205 195.016 79.3087 199.419 73.7399 201.44C72.0319 202.059 70.9103 203.83 71.3311 205.598L71.8942 207.963C72.2973 209.656 73.9676 210.726 75.6738 210.385L101.603 205.199C103.421 204.835 104.562 203.019 104.1 201.223Z" fill="white" stroke="black" stroke-width="2.04781" stroke-linecap="round" stroke-linejoin="round"/>
<circle cx="3.23338" cy="3.23338" r="3.23338" transform="matrix(-0.979988 -0.199056 -0.199056 0.979988 88.0952 155.145)" fill="black"/>
<path d="M79.1485 48.8C80.9926 42.8579 87.9154 33.7109 93.6987 33.7109C91.6395 38.8843 88.087 60.6558 87.9154 67.1225C83.4597 67.1225 74.2985 64.428 79.1485 48.8Z" fill="#838894" stroke="black" stroke-width="2.04781" stroke-linecap="round" stroke-linejoin="round"/>
<path d="M86.1538 88.6906V48.7999C86.1538 44.4888 88.8483 28.8609 115.254 28.322C141.66 27.783 145.971 46.1052 145.971 46.1052C145.971 56.4269 142.704 62.2232 138.657 65.3649C143.115 62.684 149.863 60.5633 151.36 67.6736C153.085 75.8649 144.175 78.9905 139.505 79.5294C136.056 98.0674 139.505 111.684 141.66 116.174C137.349 124.797 122.26 123.36 115.254 121.563V108.091C86.3694 108.953 86.1538 98.3907 86.1538 88.6906Z" fill="#F5B896"/>
<path d="M86.1538 48.7999C86.1538 53.1111 86.1538 88.6906 86.1538 88.6906C86.1538 98.3907 86.3694 108.953 115.254 108.091V121.563C122.26 123.36 137.349 124.797 141.66 116.174C139.505 111.684 136.056 98.0674 139.505 79.5294C144.175 78.9905 153.085 75.8649 151.36 67.6736C149.636 59.4824 140.942 63.5421 136.81 66.5958C141.66 63.8461 145.971 57.9609 145.971 46.1052C145.971 46.1052 141.66 27.783 115.254 28.322C88.8483 28.8609 86.1538 44.4888 86.1538 48.7999Z" stroke="black" stroke-width="2.04781" stroke-linejoin="round"/>
<path d="M114.501 108.378C118.277 108.206 124.479 107.083 126.153 103.976C126.223 103.822 126.291 103.673 126.357 103.528C126.299 103.681 126.231 103.831 126.153 103.976C123.536 109.682 117.86 120.471 114.501 121.311V108.378Z" fill="black"/>
<path d="M114.501 108.378C118.453 108.198 125.063 106.977 126.357 103.528C123.842 109.096 117.95 120.449 114.501 121.311V108.378Z" stroke="black" stroke-width="2.04781" stroke-linecap="round" stroke-linejoin="round"/>
<path d="M136.271 64.967C141.121 53.1107 142.199 45.0273 138.427 35.8658C142.199 33.9802 147.049 39.0997 150.283 45.0276C154.986 53.6506 150.283 65.5053 150.283 65.5053C143.277 57.9614 133.728 71.1844 136.271 64.967Z" fill="#838894" stroke="black" stroke-width="2.04781" stroke-linecap="round" stroke-linejoin="round"/>
<path d="M116.871 41.0689C114.177 39.0996 103.399 38.5607 98.5486 41.0687" stroke="black" stroke-width="1.61669" stroke-linecap="round" stroke-linejoin="round"/>
<path d="M112.021 43.951C108.428 42.8732 106.848 42.6569 103.399 43.9503" stroke="black" stroke-width="1.61669" stroke-linecap="round" stroke-linejoin="round"/>
<path d="M108.993 75.7685C108.125 72.9215 105.114 71.3167 102.267 72.1842C99.4203 73.0517 97.8155 76.0628 98.683 78.9099C99.1969 80.5964 100.463 81.847 102.002 82.406" stroke="black" stroke-width="1.61669" stroke-linecap="round" stroke-linejoin="round"/>
<path d="M109.563 64.013C111.404 61.7699 116.485 60.9429 118.771 65.0979" stroke="black" stroke-width="1.61669" stroke-linecap="round" stroke-linejoin="round"/>
<path d="M98.2301 63.0878C97.0765 61.8334 93.4849 61.2004 91.4778 63.046" stroke="black" stroke-width="1.61669" stroke-linecap="round" stroke-linejoin="round"/>
<path d="M121.465 74.6682C122.004 78.9794 119.956 87.3735 113.92 90.8225C107.885 94.2714 101.526 92.9907 98.2925 91.374" stroke="black" stroke-width="1.61669" stroke-linecap="round" stroke-linejoin="round"/>
<path d="M116.054 70.8423C115.774 72.0145 115.095 73.321 113.273 73.153C111.576 72.9966 110.683 71.5452 110.84 69.8482" stroke="black" stroke-width="1.61669" stroke-linecap="round" stroke-linejoin="round"/>
<path d="M97.6134 70.0883C97.3878 71.272 96.7684 72.608 94.9413 72.5231C93.239 72.4441 92.2809 71.0348 92.3599 69.3325" stroke="black" stroke-width="1.61669" stroke-linecap="round" stroke-linejoin="round"/>
<path d="M116.806 144.712C108.749 145.149 114.165 128.765 114.836 117.828L140.517 114.534C140.014 130.392 126.877 144.165 116.806 144.712Z" fill="#F5B896" stroke="black" stroke-width="2.04781" stroke-linecap="round" stroke-linejoin="round"/>
<path d="M139.439 116.151V113.456L121.117 115.612L114.65 121.001L139.439 116.151Z" fill="#F5B896"/>
<path d="M114.65 123.156C114.65 123.156 121.617 116.965 122.195 113.995C122.773 111.024 114.65 117.809 114.65 117.809V123.156Z" fill="black"/>
<path d="M118.962 73.5776C118.962 76.5539 116.549 78.9666 113.573 78.9666C110.596 78.9666 108.184 76.5539 108.184 73.5776C108.184 73.5776 110.596 73.5777 113.573 73.5777C116.549 73.5777 118.962 73.5776 118.962 73.5776Z" fill="white" stroke="black" stroke-width="1.61669" stroke-linecap="round" stroke-linejoin="round"/>
<path d="M99.5611 73.5776C99.5611 76.5539 97.1484 78.9666 94.1722 78.9666C91.1959 78.9666 88.7832 76.5539 88.7832 73.5776C88.7832 73.5776 91.1959 73.5777 94.1722 73.5777C97.1484 73.5777 99.5611 73.5776 99.5611 73.5776Z" fill="white" stroke="black" stroke-width="1.61669" stroke-linecap="round" stroke-linejoin="round"/>
<path d="M517.495 246.599H132.235C130.393 246.599 128.9 248.093 128.9 249.935V498.436C128.9 500.278 130.393 501.771 132.235 501.771H517.495C519.337 501.771 520.831 500.278 520.831 498.436V249.935C520.831 248.093 519.337 246.599 517.495 246.599Z" fill="#465173" stroke="black" stroke-width="1.5844"/>
<path d="M167.485 192.939C167.485 192.939 170.949 195.93 171.503 199.898C171.866 203.856 171.177 206.072 171.177 206.072C171.177 206.072 172.459 207.076 174.93 207.202C177.401 207.328 178.971 206.47 178.971 206.47C178.971 206.47 178.489 204.757 178.696 200.828C178.903 196.899 183.253 193.931 183.253 193.931L181.431 192.337C181.431 192.337 178.441 194.811 177.002 196.802L177.288 191.375L173.676 191.191L173.381 196.804C172.388 193.939 169.645 191.736 169.645 191.736L167.485 192.939Z" fill="black"/>
<path d="M165.627 195.658C161.996 195.848 160.043 193.122 160.571 190.334C159.44 190.089 156.697 187.885 157.625 184.743C158.343 181.966 161.624 181.195 163.885 181.686C163.623 179.421 165.072 177.244 167.212 176.415C169.352 175.586 171.994 176.096 173.436 177.671C175.075 175.503 178.185 174.348 180.817 175.045C183.448 175.743 185.611 178.104 185.844 180.93C187.813 179.718 190.645 180.237 191.877 182.176C193.109 184.115 192.391 186.893 190.421 188.106C192.083 189.128 192.935 191.048 192.456 192.9C191.977 194.751 190.187 196.161 188.277 196.251C186.366 196.341 184.685 195.693 183.823 193.96C182.833 194.66 181.132 194.386 180.021 193.766C178.91 193.146 178.219 191.798 178.468 190.685C177.629 192.143 175.879 192.804 174.348 192.914C172.818 193.023 171.897 192.413 170.455 190.839C170.107 193.823 168.688 195.439 165.627 195.658Z" fill="#2D978C" stroke="black" stroke-width="1.5844" stroke-linejoin="round"/>
<path d="M161.56 188.721C161.603 187.902 162.347 186.461 164.976 187.252" stroke="black" stroke-width="0.5" stroke-dasharray="0.01 0.01"/>
<path d="M171.764 185.134C172.917 184.371 175.522 183.518 176.715 186.208C177.648 184.339 180.295 181.625 183.418 185.728" stroke="black" stroke-width="0.5" stroke-linejoin="round" stroke-dasharray="0.01 0.01"/>
<path d="M203.042 194.94C203.042 194.94 207.279 196.722 209.059 200.324C210.655 203.974 210.701 206.292 210.701 206.292C210.701 206.292 212.236 206.853 214.625 206.216C217.013 205.579 218.234 204.283 218.234 204.283C218.234 204.283 217.235 202.803 216.19 199.005C215.145 195.207 218.341 191.055 218.341 191.055L216.105 190.098C216.105 190.098 214.046 193.365 213.308 195.697L211.864 190.453L208.374 191.383L209.867 196.809C208.018 194.39 204.715 193.135 204.715 193.135L203.042 194.94Z" fill="black"/>
<path d="M202.135 198.093C198.744 199.386 196.026 197.393 195.647 194.582C194.495 194.695 191.192 193.441 191.081 190.17C190.885 187.311 193.76 185.574 196.064 185.348C195.099 183.276 195.788 180.763 197.56 179.319C199.333 177.876 202.004 177.552 203.872 178.607C204.745 176.045 207.336 173.996 210.057 173.852C212.779 173.709 215.581 175.291 216.694 177.906C218.183 176.15 221.039 175.777 222.822 177.243C224.606 178.708 224.801 181.568 223.312 183.324C225.215 183.787 226.631 185.351 226.761 187.257C226.891 189.163 225.636 191.051 223.849 191.722C222.061 192.392 220.258 192.291 218.892 190.908C218.172 191.876 216.469 192.136 215.217 191.888C213.966 191.639 212.882 190.569 212.768 189.435C212.431 191.078 210.976 192.242 209.556 192.815C208.136 193.387 207.069 193.09 205.201 192.035C205.813 194.977 204.975 196.948 202.135 198.093Z" fill="#2D978C" stroke="black" stroke-width="1.5844" stroke-linejoin="round"/>
<path d="M196.077 192.747C195.859 191.955 196.111 190.358 198.86 190.305" stroke="black" stroke-width="0.5" stroke-dasharray="0.01 0.01"/>
<path d="M204.642 186.213C205.496 185.135 207.702 183.527 209.687 185.718C209.983 183.656 211.641 180.267 215.905 183.21" stroke="black" stroke-width="0.5" stroke-linejoin="round" stroke-dasharray="0.01 0.01"/>
<path d="M237.449 195.757C237.449 195.757 241.686 197.541 243.464 201.143C245.058 204.795 245.103 207.112 245.103 207.112C245.103 207.112 246.638 207.674 249.026 207.038C251.415 206.403 252.637 205.107 252.637 205.107C252.637 205.107 251.638 203.626 250.595 199.828C249.552 196.029 252.75 191.879 252.75 191.879L250.515 190.921C250.515 190.921 248.454 194.187 247.714 196.518L246.274 191.273L242.783 192.202L244.273 197.628C242.425 195.209 239.123 193.953 239.123 193.953L237.449 195.757Z" fill="black"/>
<path d="M236.541 198.908C233.149 200.199 230.432 198.205 230.054 195.394C228.902 195.507 225.6 194.25 225.49 190.98C225.296 188.12 228.172 186.385 230.476 186.16C229.512 184.087 230.202 181.574 231.975 180.132C233.748 178.69 236.42 178.367 238.287 179.423C239.161 176.861 241.753 174.813 244.475 174.671C247.196 174.529 249.997 176.113 251.11 178.728C252.6 176.973 255.455 176.601 257.238 178.067C259.021 179.534 259.215 182.394 257.725 184.149C259.627 184.613 261.043 186.177 261.172 188.083C261.301 189.99 260.045 191.877 258.257 192.547C256.469 193.217 254.667 193.114 253.301 191.731C252.581 192.699 250.878 192.958 249.626 192.709C248.375 192.46 247.292 191.389 247.177 190.255C246.84 191.898 245.385 193.061 243.965 193.633C242.544 194.205 241.477 193.907 239.609 192.851C240.22 195.794 239.381 197.764 236.541 198.908Z" fill="#2D978C" stroke="black" stroke-width="1.5844" stroke-linejoin="round"/>
<path d="M230.485 193.558C230.268 192.766 230.52 191.169 233.269 191.118" stroke="black" stroke-width="1.5844" stroke-dasharray="0.01 0.01"/>
<path d="M239.053 187.029C239.908 185.951 242.115 184.344 244.098 186.536C244.395 184.474 246.055 181.086 250.317 184.031" stroke="black" stroke-width="0.5" stroke-linejoin="round" stroke-dasharray="0.01 0.01"/>
<path d="M268.614 194.101C268.614 194.101 271.339 197.759 271.007 201.751C270.492 205.693 269.333 207.71 269.333 207.71C269.333 207.71 270.363 208.963 272.748 209.612C275.133 210.261 276.855 209.758 276.855 209.758C276.855 209.758 276.761 207.983 277.826 204.191C278.892 200.398 283.79 198.427 283.79 198.427L282.362 196.483C282.362 196.483 278.9 198.262 277.057 199.899L278.529 194.662L275.043 193.713L273.521 199.131C273.181 196.122 270.987 193.387 270.987 193.387L268.614 194.101Z" fill="black"/>
<path d="M266.202 196.36C262.615 195.773 261.307 192.695 262.435 190.086C261.385 189.606 259.192 186.871 260.788 184C262.099 181.442 265.472 181.388 267.572 182.348C267.814 180.081 269.707 178.264 271.978 177.91C274.25 177.557 276.717 178.617 277.779 180.461C279.855 178.694 283.146 178.229 285.562 179.47C287.978 180.711 289.571 183.477 289.176 186.286C291.366 185.521 294.016 186.631 294.793 188.787C295.57 190.942 294.259 193.501 292.069 194.266C293.466 195.618 293.876 197.674 293.002 199.379C292.128 201.085 290.071 202.081 288.186 201.762C286.3 201.443 284.801 200.452 284.341 198.577C283.22 199.049 281.62 198.419 280.672 197.578C279.723 196.736 279.344 195.273 279.832 194.239C278.693 195.484 276.839 195.757 275.32 195.538C273.802 195.319 273.037 194.527 271.975 192.683C270.98 195.523 269.239 196.798 266.202 196.36Z" fill="#2D978C" stroke="black" stroke-width="1.5844" stroke-linejoin="round"/>
<path d="M263.756 188.721C263.978 187.93 265.02 186.682 267.413 188.014" stroke="black" stroke-width="0.5" stroke-dasharray="0.01 0.01"/>
<path d="M274.507 187.392C275.8 186.893 278.53 186.615 279.105 189.495C280.426 187.868 283.607 185.783 285.754 190.454" stroke="black" stroke-width="0.5" stroke-linejoin="round" stroke-dasharray="0.01 0.01"/>
<path d="M153.28 216.356C153.28 216.356 157.719 217.572 159.966 220.911C162.038 224.323 162.394 226.614 162.394 226.614C162.394 226.614 163.991 226.971 166.273 226.029C168.555 225.088 169.591 223.645 169.591 223.645C169.591 223.645 168.403 222.307 166.858 218.678C165.313 215.049 167.924 210.518 167.924 210.518L165.58 209.86C165.58 209.86 163.977 213.366 163.557 215.773L161.424 210.762L158.088 212.138L160.295 217.322C158.138 215.165 154.696 214.35 154.696 214.35L153.28 216.356Z" fill="black"/>
<path d="M152.804 219.6C149.615 221.322 146.654 219.699 145.902 216.962C144.775 217.224 141.332 216.409 140.784 213.182C140.207 210.373 142.824 208.278 145.077 207.754C143.843 205.826 144.189 203.245 145.753 201.584C147.316 199.924 149.921 199.256 151.914 200.059C152.435 197.406 154.729 195.038 157.407 194.542C160.086 194.047 163.075 195.251 164.53 197.698C165.77 195.765 168.551 195.024 170.515 196.245C172.48 197.466 173.057 200.275 171.816 202.209C173.764 202.421 175.377 203.787 175.762 205.66C176.147 207.533 175.155 209.567 173.473 210.464C171.791 211.361 169.991 211.494 168.451 210.301C167.867 211.355 166.214 211.834 164.94 211.75C163.666 211.666 162.449 210.746 162.183 209.637C162.069 211.309 160.783 212.652 159.453 213.404C158.122 214.156 157.023 214 155.03 213.197C156.032 216.034 155.465 218.096 152.804 219.6Z" fill="#2D978C" stroke="black" stroke-width="1.5844" stroke-linejoin="round"/>
<path d="M146.082 215.085C145.76 214.329 145.795 212.713 148.513 212.304" stroke="black" stroke-width="0.5" stroke-dasharray="0.01 0.01"/>
<path d="M153.696 207.497C154.399 206.317 156.37 204.437 158.631 206.351C158.648 204.268 159.837 200.693 164.458 203.057" stroke="black" stroke-width="0.5" stroke-linejoin="round" stroke-dasharray="0.01 0.01"/>
<path d="M166.792 225.833C166.792 225.833 170.421 228.628 171.2 232.559C171.788 236.491 171.227 238.742 171.227 238.742C171.227 238.742 172.564 239.673 175.038 239.663C177.513 239.652 179.031 238.709 179.031 238.709C179.031 238.709 178.453 237.025 178.435 233.09C178.418 229.156 182.591 225.953 182.591 225.953L180.681 224.462C180.681 224.462 177.838 227.097 176.515 229.164L176.491 223.731L172.874 223.746L172.899 229.367C171.744 226.561 168.88 224.513 168.88 224.513L166.792 225.833Z" fill="black"/>
<path d="M165.092 228.651C161.477 229.041 159.372 226.427 159.74 223.615C158.597 223.433 155.733 221.384 156.48 218.196C157.039 215.383 160.27 214.432 162.556 214.797C162.165 212.55 163.488 210.296 165.578 209.351C167.667 208.405 170.333 208.768 171.863 210.26C173.376 208.006 176.415 206.681 179.083 207.232C181.75 207.782 184.044 210.021 184.437 212.83C186.334 211.51 189.191 211.872 190.532 213.74C191.873 215.608 191.314 218.421 189.416 219.741C191.134 220.67 192.094 222.54 191.721 224.415C191.349 226.29 189.642 227.796 187.74 227.992C185.837 228.187 184.122 227.633 183.163 225.95C182.214 226.704 180.5 226.524 179.356 225.967C178.211 225.41 177.444 224.101 177.629 222.976C176.875 224.478 175.165 225.235 173.643 225.429C172.121 225.623 171.167 225.065 169.638 223.573C169.461 226.571 168.136 228.263 165.092 228.651Z" fill="#2D978C" stroke="black" stroke-width="1.5844" stroke-linejoin="round"/>
<path d="M160.635 221.949C160.632 221.129 161.292 219.649 163.962 220.294" stroke="black" stroke-width="0.5" stroke-dasharray="0.01 0.01"/>
<path d="M170.62 217.803C171.727 216.978 174.279 215.982 175.624 218.602C176.449 216.684 178.937 213.829 182.288 217.753" stroke="black" stroke-width="0.5" stroke-linejoin="round" stroke-dasharray="0.01 0.01"/>
<path d="M198.118 223.551C198.118 223.551 200.721 227.294 200.258 231.273C199.613 235.196 198.388 237.175 198.388 237.175C198.388 237.175 199.376 238.46 201.739 239.185C204.101 239.91 205.838 239.462 205.838 239.462C205.838 239.462 205.803 237.685 206.993 233.929C208.183 230.173 213.144 228.359 213.144 228.359L211.78 226.371C211.78 226.371 208.261 228.038 206.366 229.615L208.009 224.428L204.556 223.368L202.856 228.734C202.616 225.716 200.514 222.912 200.514 222.912L198.118 223.551Z" fill="black"/>
<path d="M195.633 225.733C192.067 225.031 190.862 221.913 192.075 219.342C191.041 218.828 188.939 216.024 190.629 213.207C192.024 210.691 195.397 210.745 197.464 211.772C197.78 209.514 199.732 207.758 202.015 207.477C204.297 207.196 206.727 208.335 207.728 210.212C209.861 208.512 213.165 208.153 215.539 209.47C217.913 210.787 219.414 213.603 218.927 216.398C221.141 215.703 223.753 216.898 224.459 219.077C225.164 221.256 223.769 223.772 221.555 224.466C222.907 225.862 223.249 227.93 222.319 229.607C221.389 231.284 219.3 232.213 217.427 231.834C215.553 231.455 214.087 230.417 213.689 228.528C212.554 228.964 210.975 228.284 210.055 227.412C209.134 226.541 208.804 225.066 209.326 224.048C208.146 225.256 206.284 225.47 204.773 225.202C203.263 224.935 202.524 224.119 201.524 222.242C200.436 225.048 198.654 226.268 195.633 225.733Z" fill="#2D978C" stroke="black" stroke-width="1.5844" stroke-linejoin="round"/>
<path d="M193.44 218.02C193.688 217.237 194.771 216.022 197.119 217.43" stroke="black" stroke-width="1.5844" stroke-dasharray="0.01 0.01"/>
<path d="M204.229 217.033C205.538 216.576 208.276 216.385 208.755 219.282C210.13 217.699 213.377 215.716 215.369 220.453" stroke="black" stroke-width="0.5" stroke-linejoin="round" stroke-dasharray="0.01 0.01"/>
<path d="M231.417 227.597C231.417 227.597 235.462 229.768 236.886 233.52C238.122 237.304 237.944 239.615 237.944 239.615C237.944 239.615 239.417 240.318 241.856 239.907C244.295 239.497 245.636 238.321 245.636 238.321C245.636 238.321 244.785 236.754 244.112 232.875C243.439 228.997 247.021 225.163 247.021 225.163L244.889 224.001C244.889 224.001 242.523 227.06 241.562 229.313L240.633 223.957L237.068 224.556L238.029 230.097C236.423 227.516 233.256 225.958 233.256 225.958L231.417 227.597Z" fill="black"/>
<path d="M230.209 230.652C226.708 231.621 224.195 229.382 224.09 226.549C222.932 226.554 219.765 224.995 219.971 221.729C220.053 218.865 223.082 217.405 225.398 217.395C224.638 215.242 225.566 212.805 227.47 211.535C229.374 210.264 232.064 210.192 233.822 211.417C234.938 208.948 237.716 207.151 240.439 207.263C243.162 207.375 245.798 209.213 246.654 211.92C248.306 210.312 251.184 210.208 252.818 211.834C254.452 213.46 254.37 216.325 252.718 217.933C254.567 218.573 255.826 220.262 255.771 222.172C255.716 224.082 254.284 225.843 252.44 226.343C250.596 226.843 248.811 226.573 247.584 225.069C246.774 225.965 245.054 226.065 243.832 225.7C242.61 225.335 241.635 224.169 241.63 223.029C241.136 224.633 239.576 225.655 238.107 226.092C236.638 226.53 235.604 226.133 233.846 224.908C234.172 227.895 233.147 229.778 230.209 230.652Z" fill="#2D978C" stroke="black" stroke-width="1.5844" stroke-linejoin="round"/>
<path d="M224.695 224.76C224.555 223.951 224.96 222.385 227.701 222.59" stroke="black" stroke-width="1.5844" stroke-dasharray="0.01 0.01"/>
<path d="M233.853 219.059C234.808 218.066 237.159 216.672 238.923 219.039C239.417 217.014 241.395 213.796 245.355 217.125" stroke="black" stroke-width="0.5" stroke-linejoin="round" stroke-dasharray="0.01 0.01"/>
<path d="M273.938 224.36C273.938 224.36 276.688 227.999 276.384 231.993C275.897 235.939 274.752 237.964 274.752 237.964C274.752 237.964 275.791 239.209 278.181 239.842C280.57 240.475 282.288 239.96 282.288 239.96C282.288 239.96 282.182 238.186 283.22 234.386C284.259 230.587 289.144 228.583 289.144 228.583L287.702 226.648C287.702 226.648 284.252 228.451 282.421 230.1L283.856 224.853L280.364 223.928L278.88 229.356C278.519 226.35 276.306 223.629 276.306 223.629L273.938 224.36Z" fill="black"/>
<path d="M271.541 226.637C267.95 226.073 266.621 223.005 267.73 220.388C266.677 219.915 264.464 217.195 266.04 214.314C267.334 211.746 270.706 211.669 272.812 212.615C273.038 210.347 274.919 208.517 277.188 208.148C279.457 207.779 281.931 208.822 283.006 210.659C285.07 208.878 288.357 208.39 290.782 209.615C293.207 210.839 294.819 213.595 294.444 216.406C296.629 215.626 299.287 216.718 300.079 218.869C300.871 221.019 299.577 223.586 297.393 224.366C298.8 225.709 299.224 227.761 298.362 229.473C297.5 231.185 295.45 232.194 293.562 231.888C291.675 231.582 290.169 230.601 289.695 228.729C288.578 229.21 286.973 228.591 286.019 227.756C285.065 226.921 284.676 225.459 285.156 224.423C284.025 225.675 282.173 225.961 280.653 225.752C279.133 225.543 278.363 224.757 277.288 222.92C276.313 225.766 274.581 227.054 271.541 226.637Z" fill="#2D978C" stroke="black" stroke-width="1.5844" stroke-linejoin="round"/>
<path d="M269.041 219.013C269.258 218.221 270.292 216.966 272.694 218.282" stroke="black" stroke-width="0.5" stroke-dasharray="0.01 0.01"/>
<path d="M279.783 217.611C281.073 217.103 283.801 216.806 284.395 219.683C285.706 218.047 288.871 215.94 291.051 220.596" stroke="black" stroke-width="0.5" stroke-linejoin="round" stroke-dasharray="0.01 0.01"/>
<path d="M185.46 212.983C185.46 212.983 189.398 215.338 190.641 219.152C191.696 222.988 191.408 225.288 191.408 225.288C191.408 225.288 192.847 226.058 195.303 225.761C197.758 225.464 199.154 224.351 199.154 224.351C199.154 224.351 198.378 222.746 197.89 218.841C197.402 214.936 201.164 211.271 201.164 211.271L199.089 210.012C199.089 210.012 196.58 212.959 195.513 215.164L194.839 209.771L191.25 210.206L191.947 215.785C190.465 213.132 187.376 211.43 187.376 211.43L185.46 212.983Z" fill="black"/>
<path d="M184.108 215.978C180.565 216.784 178.162 214.432 178.191 211.597C177.035 211.548 173.945 209.846 174.306 206.593C174.524 203.735 177.62 202.416 179.933 202.514C179.277 200.328 180.321 197.937 182.282 196.755C184.244 195.574 186.936 195.626 188.633 196.93C189.866 194.516 192.726 192.848 195.44 193.086C198.155 193.324 200.701 195.281 201.427 198.025C203.153 196.494 206.034 196.523 207.588 198.223C209.143 199.922 208.925 202.78 207.198 204.311C209.015 205.035 210.191 206.78 210.046 208.685C209.9 210.591 208.386 212.284 206.52 212.699C204.654 213.113 202.884 212.761 201.73 211.202C200.879 212.06 199.155 212.08 197.952 211.659C196.749 211.239 195.831 210.028 195.88 208.89C195.31 210.469 193.703 211.419 192.215 211.787C190.727 212.156 189.712 211.713 188.015 210.408C188.198 213.406 187.085 215.24 184.108 215.978Z" fill="#2D978C" stroke="black" stroke-width="1.5844" stroke-linejoin="round"/>
<path d="M178.881 209.839C178.78 209.025 179.258 207.479 181.987 207.81" stroke="black" stroke-width="0.5" stroke-dasharray="0.01 0.01"/>
<path d="M188.3 204.565C189.302 203.617 191.716 202.333 193.366 204.779C193.956 202.778 196.085 199.655 199.882 203.163" stroke="black" stroke-width="0.5" stroke-linejoin="round" stroke-dasharray="0.01 0.01"/>
<path d="M218.447 208.841C218.447 208.841 222.064 211.652 222.825 215.586C223.396 219.521 222.825 221.769 222.825 221.769C222.825 221.769 224.157 222.706 226.632 222.706C229.106 222.706 230.629 221.769 230.629 221.769C230.629 221.769 230.058 220.083 230.058 216.148C230.058 212.214 234.246 209.029 234.246 209.029L232.342 207.53C232.342 207.53 229.487 210.153 228.155 212.214V206.78H224.538V212.401C223.396 209.591 220.541 207.53 220.541 207.53L218.447 208.841Z" fill="black"/>
<path d="M216.734 211.652C213.118 212.026 211.024 209.403 211.405 206.593C210.263 206.405 207.407 204.344 208.169 201.159C208.74 198.349 211.976 197.412 214.26 197.787C213.879 195.539 215.211 193.29 217.305 192.353C219.399 191.417 222.064 191.791 223.586 193.29C225.109 191.042 228.155 189.73 230.819 190.292C233.484 190.855 235.768 193.103 236.149 195.913C238.052 194.602 240.908 194.976 242.24 196.85C243.572 198.724 243.001 201.534 241.098 202.846C242.811 203.782 243.763 205.656 243.382 207.53C243.001 209.403 241.288 210.902 239.385 211.089C237.481 211.277 235.768 210.715 234.817 209.028C233.865 209.778 232.152 209.591 231.01 209.028C229.868 208.466 229.106 207.155 229.297 206.031C228.535 207.53 226.822 208.279 225.3 208.466C223.777 208.654 222.825 208.092 221.302 206.593C221.112 209.591 219.78 211.277 216.734 211.652Z" fill="#2D978C" stroke="black" stroke-width="1.5844" stroke-linejoin="round"/>
<path d="M212.308 204.931C212.308 204.111 212.974 202.634 215.642 203.29" stroke="black" stroke-width="0.5" stroke-dasharray="0.01 0.01"/>
<path d="M222.31 200.829C223.421 200.009 225.977 199.024 227.311 201.65C228.144 199.735 230.645 196.891 233.979 200.829" stroke="black" stroke-width="0.5" stroke-linejoin="round" stroke-dasharray="0.01 0.01"/>
<path d="M251.47 210.812C251.47 210.812 254.523 214.208 254.565 218.213C254.419 222.185 253.452 224.298 253.452 224.298C253.452 224.298 254.595 225.453 257.031 225.884C259.466 226.315 261.133 225.659 261.133 225.659C261.133 225.659 260.875 223.9 261.582 220.027C262.29 216.155 266.985 213.75 266.985 213.75L265.381 211.943C265.381 211.943 262.099 214.027 260.417 215.823L261.394 210.476L257.835 209.845L256.824 215.377C256.205 212.412 253.766 209.886 253.766 209.886L251.47 210.812Z" fill="black"/>
<path d="M249.278 213.279C245.651 213.018 244.062 210.071 244.943 207.371C243.852 206.988 241.413 204.462 242.735 201.46C243.803 198.793 247.156 198.435 249.337 199.202C249.367 196.923 251.082 194.943 253.312 194.386C255.541 193.829 258.096 194.662 259.325 196.403C261.228 194.455 264.461 193.695 266.983 194.713C269.505 195.731 271.348 198.342 271.217 201.174C273.326 200.215 276.069 201.081 277.043 203.158C278.018 205.234 276.95 207.9 274.841 208.859C276.358 210.08 276.958 212.09 276.246 213.867C275.534 215.645 273.579 216.822 271.672 216.674C269.765 216.527 268.18 215.675 267.546 213.85C266.475 214.421 264.823 213.938 263.8 213.186C262.777 212.434 262.263 211.01 262.653 209.937C261.634 211.28 259.813 211.719 258.281 211.637C256.748 211.556 255.913 210.837 254.684 209.097C253.957 212.014 252.343 213.441 249.278 213.279Z" fill="#2D978C" stroke="black" stroke-width="1.5844" stroke-linejoin="round"/>
<path d="M246.13 205.893C246.278 205.085 247.2 203.748 249.707 204.859" stroke="black" stroke-width="0.5" stroke-dasharray="0.01 0.01"/>
<path d="M256.712 203.599C257.954 202.985 260.646 202.462 261.487 205.278C262.651 203.539 265.624 201.176 268.197 205.633" stroke="black" stroke-width="0.5" stroke-linejoin="round" stroke-dasharray="0.01 0.01"/>
<path d="M284.733 212.746C284.733 212.746 287.127 216.622 286.447 220.571C285.588 224.454 284.256 226.365 284.256 226.365C284.256 226.365 285.173 227.701 287.493 228.55C289.812 229.399 291.571 229.044 291.571 229.044C291.571 229.044 291.633 227.268 293.027 223.58C294.42 219.892 299.473 218.344 299.473 218.344L298.22 216.286C298.22 216.286 294.615 217.765 292.636 219.239L294.561 214.147L291.172 212.905L289.18 218.173C289.106 215.147 287.16 212.236 287.16 212.236L284.733 212.746Z" fill="black"/>
<path d="M282.132 214.792C278.61 213.902 277.576 210.725 278.929 208.222C277.925 207.654 275.979 204.743 277.821 202.019C279.351 199.581 282.716 199.813 284.724 200.948C285.164 198.711 287.209 197.061 289.503 196.901C291.797 196.742 294.162 198.008 295.058 199.935C297.282 198.351 300.601 198.167 302.899 199.608C305.198 201.049 306.542 203.941 305.903 206.705C308.152 206.129 310.695 207.461 311.28 209.674C311.865 211.887 310.334 214.325 308.086 214.901C309.36 216.367 309.588 218.45 308.567 220.075C307.547 221.701 305.41 222.517 303.56 222.04C301.71 221.562 300.303 220.447 300.009 218.54C298.851 218.916 297.312 218.152 296.441 217.234C295.569 216.315 295.32 214.824 295.897 213.836C294.652 214.979 292.781 215.094 291.288 214.747C289.794 214.4 289.101 213.546 288.205 211.619C286.965 214.363 285.119 215.486 282.132 214.792Z" fill="#2D978C" stroke="black" stroke-width="1.5844" stroke-linejoin="round"/>
<path d="M280.364 206.974C280.654 206.205 281.802 205.05 284.07 206.58" stroke="black" stroke-width="0.5" stroke-dasharray="0.01 0.01"/>
<path d="M291.191 206.562C292.524 206.175 295.268 206.129 295.588 209.048C297.047 207.54 300.398 205.732 302.128 210.567" stroke="black" stroke-width="1.5844" stroke-linejoin="round" stroke-dasharray="0.01 0.01"/>
<path d="M298.891 221.835H154.699C152.857 221.835 151.363 223.329 151.363 225.171V242.671C151.363 244.514 152.857 246.007 154.699 246.007H298.891C300.733 246.007 302.227 244.514 302.227 242.671V225.171C302.227 223.329 300.733 221.835 298.891 221.835Z" fill="#BABECB" stroke="black" stroke-width="1.5844"/>
</g>
</svg>