<svg width="125" height="200" viewBox="0 0 125 200" fill="none" xmlns="http://www.w3.org/2000/svg">
<path d="M44.9536 55.4629L44.9508 55.4518L44.9478 55.4408L34.1594 16.1254L34.1594 16.1254L34.1566 16.1153C33.822 14.9443 32.6915 14.1452 31.5353 14.1452L31.5275 14.1452C31.4735 14.1451 31.325 14.1449 31.1634 14.1718C31.0666 14.1879 30.8908 14.2246 30.704 14.3258L6.38554 20.9206C5.70582 21.094 5.04999 21.5852 4.70725 22.2706L5.32522 22.5796L4.70725 22.2706C4.4281 22.8289 4.2555 23.4718 4.41363 24.2625L4.42085 24.2986L4.43069 24.334L15.3197 63.5343C15.6328 64.764 16.6242 65.6266 17.9461 65.6266L17.9538 65.6266C18.0078 65.6267 18.1563 65.6269 18.3179 65.6C18.4153 65.5838 18.5925 65.5468 18.7804 65.4444L42.9834 58.7499C44.5172 58.3916 45.2776 56.7589 44.9536 55.4629Z" fill="#99BBFF" stroke="black" stroke-width="2"/>
<path d="M29.4874 20.6189L9.33801 25.5629L10.129 28.7868L30.2784 23.8428L29.4874 20.6189Z" fill="white"/>
<path d="M10.9958 30.4979L26.2448 26.7635L27.0747 29.9793L11.8257 33.7137L10.9958 30.4979Z" fill="white"/>
<path d="M98.1328 73.7552L87.2407 62.8631L70.8507 44.2946C70.8507 44.2946 68.1536 43.5685 66.2863 43.8797C64.5229 44.1909 64.5229 42.8423 61.9295 42.3237C59.7511 41.9087 57.5726 42.3237 57.5726 42.3237C57.5726 42.3237 55.8092 41.2863 53.527 41.0788C51.2448 40.9751 47.6141 40.7676 47.6141 40.7676L35.4772 27.3859C35.4772 27.3859 32.8839 28.4232 33.9212 31.4315C34.9585 34.4398 42.8424 45.332 42.8424 45.332L54.4606 63.3817C54.4606 63.3817 55.498 65.0415 52.6971 64.1079C49.7926 63.1743 42.7386 60.6846 40.6639 61.0996C38.5892 61.5145 35.6847 63.7967 35.2697 64.834C34.8548 65.8714 39.5229 65.249 42.8424 66.5975C46.1619 67.9461 56.1204 73.9627 59.1287 74.6888C62.137 75.4149 68.361 76.0373 71.5768 75.9336C74.8963 75.8299 88.693 90.5602 88.693 90.5602L98.1328 73.7552Z" fill="white"/>
<path d="M88.5893 91.7013C88.2781 91.7013 88.0706 91.5975 87.8631 91.3901C81.4316 84.5436 73.3403 77.0747 71.5768 77.0747C68.1536 77.1784 61.9295 76.6598 58.8175 75.8299C56.9503 75.3112 52.8009 73.1328 48.859 70.9544C46.1619 69.5021 43.6723 68.1535 42.4274 67.6349C40.9752 67.0125 39.1079 66.805 37.6557 66.7013C35.8922 66.4938 34.8548 66.39 34.4399 65.6639C34.2324 65.3527 34.2324 64.834 34.3362 64.4191C34.9586 62.9668 38.0706 60.5809 40.4565 60.0623C42.3237 59.6473 46.6805 60.9959 51.3486 62.5519C51.971 62.7593 52.5934 62.9668 53.0083 63.0705H53.1121L42.0125 45.8506C41.7013 45.4357 34.1287 34.8548 32.9876 31.7427C31.8465 28.6307 33.9212 26.8672 35.0623 26.3486C35.4772 26.1411 35.8922 26.2448 36.2034 26.6598L48.1328 39.7303C49.1702 39.7303 51.7635 39.9378 53.6308 40.0415C55.498 40.1452 57.1577 40.8714 57.7801 41.1826C58.5063 41.0788 60.3735 40.8714 62.137 41.2863C63.5893 41.4938 64.4191 42.0125 64.9378 42.4274C65.4565 42.7386 65.5602 42.8423 66.0789 42.7386C68.0498 42.4274 70.9544 43.1535 71.0581 43.2573C71.2656 43.361 71.4731 43.4647 71.5768 43.5685L87.9669 62.1369L98.7552 72.9253C99.0664 73.2365 99.1702 73.7552 98.9627 74.1701L89.5229 91.0788C89.3154 91.3901 89.1079 91.5975 88.693 91.5975C88.693 91.7013 88.693 91.7013 88.5893 91.7013ZM71.4731 75C74.7926 75 84.3361 84.6473 88.3818 88.9004L96.7843 73.8589L86.5146 63.5892L70.332 45.2282C69.5021 45.0208 67.7386 44.7096 66.5976 44.917C65.249 45.1245 64.5229 44.7096 63.9005 44.1909C63.3818 43.8797 62.9669 43.5685 61.9295 43.361C59.9586 43.0498 57.8839 43.361 57.8839 43.361C57.6764 43.361 57.3652 43.361 57.1577 43.2573C57.1577 43.2573 55.498 42.3237 53.527 42.2199C51.3486 42.1162 47.7179 41.9087 47.7179 41.9087C47.4067 41.9087 47.1992 41.805 46.9918 41.5975L35.2698 28.7344C34.8548 29.1494 34.4399 29.8755 34.9586 31.1203C35.7884 33.5062 41.5976 41.7013 43.6722 44.7096L55.2905 62.8631C55.6017 63.3818 55.8092 64.2116 55.3942 64.834C54.6681 65.7676 53.4233 65.4564 52.3859 65.1452C51.971 65.0415 51.3486 64.834 50.7262 64.6266C48.0291 63.693 42.4274 61.8257 40.8714 62.2407C39.5229 62.5519 37.7594 63.7967 36.8258 64.6266C37.137 64.6266 37.4482 64.7303 37.7594 64.7303C39.3154 64.834 41.3901 65.0415 43.1536 65.7676C44.6059 66.3901 47.0955 67.7386 49.7926 69.1909C53.4233 71.1618 57.5727 73.444 59.2324 73.8589C62.137 74.5851 68.2573 75.2075 71.4731 75Z" fill="black"/>
<path d="M67.22 47.3029C66.9088 47.3029 66.5976 47.1992 66.3901 46.888C66.2864 46.6805 63.0706 42.4274 56.8465 43.361C56.3279 43.4647 55.7055 43.0498 55.7055 42.5311C55.6017 42.0125 56.0167 41.39 56.5353 41.39C64.0042 40.249 67.8424 45.5394 68.0499 45.7469C68.3611 46.1618 68.2573 46.888 67.8424 47.1992C67.6349 47.1992 67.4274 47.3029 67.22 47.3029Z" fill="black"/>
<path d="M59.025 46.1618C58.61 46.1618 58.1951 45.8506 58.0914 45.4357C57.9876 45.2282 56.3279 40.9751 47.4067 41.805C46.888 41.9087 46.3694 41.39 46.2656 40.8714C46.2656 40.3527 46.6806 39.834 47.1992 39.7303C57.7801 38.7967 59.8548 44.5021 59.9586 44.7095C60.166 45.2282 59.8548 45.8506 59.3362 46.0581C59.3362 46.1618 59.2324 46.1618 59.025 46.1618Z" fill="black"/>
<path d="M50.415 45.6432C50.1038 45.6432 49.7926 45.5394 49.5851 45.332L34.6473 28.112C34.2324 27.6971 34.3361 27.0747 34.7511 26.6598C35.166 26.2448 35.7884 26.3486 36.2033 26.7635L51.1411 43.8797C51.556 44.2946 51.4523 44.917 51.0374 45.332C50.8299 45.5394 50.6224 45.6432 50.415 45.6432Z" fill="black"/>
<path d="M103.527 176.867L106.328 200H29.7718L29.4606 174.793L103.527 176.867Z" fill="black"/>
<path d="M27.6971 110.685C27.6971 110.685 46.3693 74.1701 60.1659 66.4938C73.9626 58.9212 79.1493 60.2697 82.5726 59.9585C85.9958 59.6473 107.78 54.7718 107.78 54.7718C107.78 54.7718 125.726 58.195 124.689 74.4813C123.651 90.6639 116.39 174.481 114.73 174.17C112.967 173.859 87.4481 185.581 59.5435 181.432C31.639 177.282 23.3402 172.51 23.3402 172.51L27.6971 110.685Z" fill="#0040C2"/>
<path d="M17.9461 69.2946C17.9461 69.2946 20.2283 60.9959 18.8797 55.9129C17.5312 50.8299 17.9461 41.1826 17.9461 38.4855C17.9461 35.6847 13.7967 36.2033 12.8631 39.4191C11.9295 42.6349 10.9959 48.6515 8.71373 47.1992C6.43157 45.8506 5.9129 37.0332 5.9129 37.0332L-0.311167 49.7925C-1.97092 53.112 -2.17839 56.9502 -1.03731 60.5809L2.28219 70.7469C2.28219 70.7469 -0.518636 91.4938 1.86726 112.137C4.14941 132.884 16.5975 160.892 16.5975 160.892C16.5975 160.892 43.1536 168.568 51.1411 144.813C51.556 143.465 29.9793 106.224 29.9793 106.224L17.9461 69.2946Z" fill="white"/>
<path d="M25.9336 162.967C20.4357 162.967 16.39 161.826 16.2863 161.826C15.9751 161.722 15.7676 161.515 15.6639 161.203C15.4564 160.892 3.11204 132.78 0.829884 112.137C-1.34854 92.7386 0.933618 73.1328 1.24482 70.7469L-1.97095 60.8921C-3.21576 57.054 -2.90456 52.9046 -1.14107 49.3776L5.083 36.6183C5.29046 36.2033 5.7054 35.9959 6.22407 36.0996C6.63901 36.2033 7.05395 36.6183 7.05395 37.0332C7.26142 40.9751 8.19503 45.6432 9.33611 46.2656C9.33611 46.3693 9.33611 46.3693 9.33611 46.3693C10.0622 46.1618 10.8921 42.5311 11.3071 41.0788C11.5145 40.3527 11.6183 39.7303 11.8257 39.1079C12.5519 36.6183 14.834 35.3735 16.5975 35.6847C18.0498 35.8921 18.9834 37.0332 18.9834 38.4855C18.9834 38.9004 18.9834 39.5228 18.9834 40.249C18.8797 44.1909 18.7759 51.556 19.917 55.6017C21.2656 60.3735 19.5021 67.6349 19.0871 69.1909L30.9129 105.602C52.6971 143.154 52.2822 144.398 52.0747 145.021C46.9917 160.062 34.751 162.967 25.9336 162.967ZM17.3237 159.959C18.9834 160.373 24.5851 161.515 30.8091 160.685C40.4564 159.336 46.888 153.942 50 144.71C49.1701 141.909 36.8257 120.124 29.0457 106.743C29.0457 106.639 28.9419 106.639 28.9419 106.535L16.9087 69.6058C16.805 69.3983 16.805 69.1909 16.9087 68.9834C16.9087 68.8797 19.0871 60.8921 17.8423 56.2241C16.5975 51.8672 16.805 44.2946 16.9087 40.249C16.9087 39.5228 16.9087 38.9004 16.9087 38.4855C16.9087 37.9668 16.7013 37.7593 16.2863 37.7593C15.5602 37.6556 14.2116 38.278 13.7967 39.7303C13.5892 40.249 13.4855 40.9751 13.278 41.5975C12.3444 45.2282 11.6183 47.7179 10.0622 48.3403C9.64731 48.5477 8.92117 48.6515 8.09129 48.1328C6.43154 47.0954 5.60167 43.7759 5.18673 40.8714L0.622415 50.3112C-0.829867 53.3195 -1.03734 56.9502 8.34465e-06 60.166L3.31951 70.332C3.31951 70.4357 3.42324 70.6432 3.31951 70.7469C3.31951 70.9544 0.622415 91.5975 2.90457 111.929C4.97926 130.809 15.6639 156.224 17.3237 159.959Z" fill="black"/>
<path d="M22.1992 120.124C21.9917 120.124 21.888 120.124 21.6805 120.021C21.1619 119.71 21.0581 119.087 21.2656 118.568L29.0457 104.979C29.3569 104.461 29.9793 104.357 30.498 104.564C31.0166 104.876 31.1204 105.498 30.9129 106.017L23.1328 119.606C22.8216 119.917 22.5104 120.124 22.1992 120.124Z" fill="black"/>
<path d="M56.3278 155.809C55.9129 155.809 55.6017 155.602 55.3942 155.29L50.1037 145.124C49.7925 144.606 50 143.983 50.5187 143.776C51.0373 143.465 51.6598 143.672 51.8672 144.191L56.2241 152.593L75.9336 117.324C76.2448 116.805 76.8672 116.598 77.3859 116.909C77.9046 117.22 78.112 117.842 77.8008 118.361L57.0539 155.29C57.0539 155.705 56.7427 155.809 56.3278 155.809Z" fill="black"/>
<path d="M105.602 40.1452C105.602 40.1452 99.6888 52.1784 100.207 57.5726C100.726 62.9668 75 61.5145 75 61.5145L72.1992 38.278L71.9917 34.8548L70.1245 31.0166C70.1245 31.0166 79.4606 21.1618 81.0166 17.7386C82.5726 14.3154 113.589 11.5145 105.602 40.1452Z" fill="white"/>
<path d="M82.0539 62.7593C78.527 62.7593 75.8299 62.6556 75 62.5519C74.4813 62.5519 74.0664 62.1369 74.0664 61.6183L71.3693 38.3817L71.1618 35.0622L69.3983 31.4315C69.1909 31.0166 69.2946 30.6017 69.6058 30.2905C72.1992 27.5934 79.0456 20.0207 80.2905 17.3237C81.5353 14.6266 90.5602 13.4855 97.5104 15.9751C102.905 17.9461 111.411 23.7552 106.743 40.4564C106.743 40.5602 106.743 40.5602 106.639 40.6639C106.535 40.7676 100.934 52.4896 101.349 57.5726C101.452 58.4025 101.141 59.1286 100.519 59.751C98.029 62.2407 88.7967 62.7593 82.0539 62.7593ZM76.0373 60.4772C84.1286 60.7884 96.7842 60.4772 99.0664 58.0913C99.2739 57.8838 99.2739 57.6763 99.2739 57.5726C98.7552 52.1784 104.149 40.8714 104.668 39.7303C107.573 29.0456 105.29 21.6805 98.029 18.361C91.0788 15.1452 82.8838 17.0124 82.1577 18.0498C80.7054 21.2656 73.5477 29.0456 71.5768 31.1203L73.1328 34.2324C73.2365 34.3361 73.2365 34.5436 73.2365 34.6473L73.444 38.0705L76.0373 60.4772Z" fill="black"/>
<path d="M90.8714 39.834C89.7303 41.0788 89.5229 42.8423 90.1453 44.2946C91.4938 47.1992 93.9835 51.6598 96.9918 52.3859C101.452 53.4232 101.141 51.6598 101.141 51.6598L111.307 32.1577C113.693 27.5934 112.863 21.9917 109.232 18.2573L92.8424 1.65976C90.1453 -1.03734 85.581 -0.311196 83.8175 3.00831L81.1204 8.29876C79.7718 10.8921 79.5644 13.7967 80.3942 16.5975L81.2241 19.3983C81.8465 21.3693 82.054 23.3403 81.9503 25.3112V27.9046C81.8465 29.4606 81.5353 31.0166 80.9129 32.3652L78.6308 37.8631C77.8009 39.9378 74.8963 40.3527 73.5478 38.4855C73.5478 38.4855 73.5478 38.4855 73.5478 38.3817C72.1992 36.3071 72.1992 34.5436 72.1992 34.5436L70.5395 37.6556L71.7843 41.39L68.4648 41.5975L67.6349 44.7095C66.5976 48.8589 67.5312 53.2158 70.0208 56.5353L72.5104 59.751H76.1411C78.0083 59.751 79.5644 58.2988 79.6681 56.3278L80.498 42.6349L84.1287 35.6847L85.7884 32.7801C86.6183 31.3278 87.8631 30.2905 89.4191 29.7718L89.9378 29.5643C91.1826 29.3569 92.4274 29.5643 93.4648 30.1867C94.0872 30.4979 94.5021 31.1203 94.6059 31.8465C94.8133 33.0913 94.8133 35.0622 93.361 36.722C92.6349 37.8631 91.7013 38.9004 90.8714 39.834Z" fill="black"/>
</svg>
