<svg width="225" height="160" viewBox="0 0 225 160" fill="none" xmlns="http://www.w3.org/2000/svg">
<path d="M184.007 157.159L197.298 106.025C197.298 89.0814 183.5 75.2832 166.556 75.2832H123.843C106.9 75.2832 93.1017 89.0814 93.1017 106.025V157.159H184.007Z" fill="#0040C2"/>
<path d="M183.804 91.8206L181.065 98.5168C181.065 98.5168 153.671 144.477 150.12 158.884H191.008L208.357 112.518C208.357 112.518 214.647 103.59 220.43 93.4439C226.213 83.2982 222.053 74.573 220.633 69.5001C219.213 64.4273 215.459 62.804 215.459 62.804C215.459 62.804 215.865 59.1515 215.053 57.6297C214.241 56.1078 208.255 50.832 208.255 50.832C208.255 50.832 204.197 44.4403 203.588 43.1213C202.98 41.7009 200.747 42.0053 200.747 42.0053C200.747 42.0053 199.733 38.9616 199.023 38.7587C198.313 38.5558 196.486 39.7732 195.472 42.7155C194.559 45.6577 199.327 54.586 199.124 57.0209C198.921 59.4559 196.994 67.8768 192.732 73.1526C190.297 76.0948 187.254 77.3123 186.036 75.8919C184.819 74.4715 179.847 66.152 178.528 64.3258C177.108 62.4996 174.166 62.9054 174.369 63.5142C174.572 64.1229 176.702 73.4569 178.123 79.3414C179.543 85.2259 183.804 91.8206 183.804 91.8206Z" fill="white"/>
<path d="M191.008 159.898H150.12C149.816 159.898 149.512 159.797 149.309 159.492C149.106 159.289 149.004 158.884 149.106 158.579C152.657 144.477 178.731 100.444 180.152 98.0094L182.688 91.922C181.673 90.2987 178.224 84.82 177.006 79.6457C176.195 76.2976 175.18 71.935 174.47 68.6883C173.861 66.2534 173.354 64.1228 173.354 63.8184C173.253 63.4126 173.354 62.7024 174.166 62.2966C175.383 61.6878 178.021 61.9922 179.34 63.717C179.949 64.5286 181.268 66.6592 182.688 68.7898C184.311 71.3262 186.239 74.3699 186.848 75.1816C186.949 75.283 187.152 75.486 187.659 75.486C188.674 75.486 190.5 74.5728 192.022 72.5437C196.182 67.3694 198.008 59.1514 198.211 56.9193C198.312 56.1077 197.399 53.7742 196.689 51.6436C195.37 48.0926 194.051 44.3387 194.66 42.411C195.269 40.5848 196.182 39.4688 196.791 38.86C197.704 37.9469 198.718 37.5411 199.53 37.8454C199.834 37.9469 200.646 38.1498 201.661 40.9906C202.777 41.0921 204.095 41.4979 204.704 42.7154C205.11 43.7299 208.052 48.2955 209.168 50.2232C210.386 51.3392 215.256 55.6004 216.067 57.1223C216.879 58.4412 216.778 60.9776 216.676 62.1951C217.894 62.9053 220.531 64.9344 221.749 69.1956C221.952 69.9058 222.155 70.616 222.459 71.4277C224.184 76.7034 226.72 84.82 221.445 93.9511C217.488 100.952 211.299 110.489 209.473 112.924L191.921 159.289C191.819 159.695 191.413 159.898 191.008 159.898ZM151.439 157.869H190.297L207.444 112.112C207.444 112.01 207.545 111.909 207.545 111.909C207.849 111.503 213.937 102.676 219.517 92.8351C224.285 84.4142 221.952 77.2107 220.329 71.935C220.024 71.1233 219.821 70.3117 219.618 69.7029C218.401 65.1374 215.053 63.717 215.053 63.6155C214.647 63.4126 214.444 63.0068 214.444 62.6009C214.546 61.282 214.647 58.9485 214.14 58.0354C213.531 57.0208 209.777 53.5713 207.545 51.5421C207.444 51.4407 207.444 51.4407 207.342 51.3392C206.936 50.7305 203.284 44.846 202.675 43.4256C202.472 42.9183 201.356 42.8168 200.95 42.9183C200.443 42.9183 200.037 42.7154 199.936 42.2081C199.53 41.1935 199.124 40.0775 198.82 39.6717C198.312 39.8746 197.298 40.8892 196.588 42.9183C196.182 44.2372 197.501 48.0926 198.617 50.8319C199.733 53.8756 200.342 55.7019 200.24 56.9193C200.037 59.4558 198.11 68.0796 193.645 73.6597C191.819 75.8918 189.587 77.3122 187.761 77.3122C186.746 77.3122 186.036 77.0078 185.427 76.3991C184.717 75.5874 183.195 73.2539 181.065 69.8044C179.746 67.6738 178.427 65.6446 177.818 64.833C177.209 64.0213 176.195 63.9199 175.586 63.9199C175.789 64.7315 176.093 66.0505 176.601 68.0796C177.412 71.4277 178.325 75.6889 179.137 79.0369C180.456 84.7185 184.819 91.1103 184.819 91.1103C185.022 91.4147 185.022 91.7191 184.92 92.0234L182.181 98.7196L182.079 98.821C180.862 100.85 156.005 142.752 151.439 157.869Z" fill="black"/>
<path d="M214.444 77.2108C214.241 77.2108 214.038 77.1093 213.835 77.0078L196.892 65.5432C196.385 65.2388 196.283 64.6301 196.588 64.1228C196.892 63.6155 197.501 63.5141 198.008 63.8184L214.951 75.2831C215.459 75.5874 215.56 76.1962 215.256 76.7035C215.053 77.1093 214.748 77.2108 214.444 77.2108Z" fill="black"/>
<path d="M215.763 69.1958C215.662 69.1958 215.56 69.1958 215.56 69.1958C215.256 69.0944 206.936 66.9638 207.545 61.8909C207.545 61.5866 207.748 61.2822 207.951 61.0793C208.255 60.8764 208.864 60.3691 215.662 61.7895C216.169 61.8909 216.575 62.3982 216.473 63.007C216.372 63.5143 215.864 63.9201 215.256 63.8186C213.227 63.4128 210.792 63.007 209.574 62.9055C210.183 65.7463 215.966 67.2682 215.966 67.2682C216.473 67.3696 216.879 67.9784 216.676 68.4856C216.676 68.8915 216.27 69.1958 215.763 69.1958Z" fill="black"/>
<path d="M210.893 62.6007C210.589 62.6007 210.284 62.3978 210.081 62.1949C210.081 62.1949 208.052 59.2526 204.907 57.2235C202.777 55.8031 201.66 53.9769 201.052 52.6579C200.646 51.7448 200.849 49.4113 201.559 48.5997C201.965 48.1938 202.472 47.9909 202.878 48.0924H202.979L208.661 50.223C209.168 50.4259 209.473 51.0346 209.27 51.5419C209.067 52.0492 208.458 52.3536 207.951 52.1507L202.979 50.3244C202.878 50.8317 202.777 51.6434 202.878 51.9477C203.385 52.9623 204.298 54.4842 206.023 55.6002C209.574 57.8322 211.705 60.9774 211.806 61.0789C212.111 61.5861 212.009 62.1949 211.502 62.4992C211.299 62.4992 211.096 62.6007 210.893 62.6007Z" fill="black"/>
<path d="M201.762 51.1362C201.356 51.1362 201.052 50.9333 200.849 50.629C200.747 50.5275 199.226 47.4838 198.718 45.759C198.11 43.6284 199.834 41.5993 200.037 41.3964C200.443 40.9905 201.052 40.9905 201.458 41.2949C201.863 41.7007 201.863 42.3095 201.559 42.7153C201.255 43.1211 200.443 44.2372 200.646 45.2517C201.052 46.7736 202.574 49.7158 202.675 49.7158C202.979 50.2231 202.777 50.8319 202.269 51.1362C202.066 51.0348 201.863 51.1362 201.762 51.1362Z" fill="black"/>
<path d="M203.182 69.0943H203.081C202.574 68.9928 202.168 68.4855 202.269 67.9782L203.487 59.8617L203.385 55.6005C203.385 54.9917 203.791 54.5859 204.4 54.5859C204.907 54.5859 205.414 54.9917 205.414 55.6005L205.516 59.9631C205.516 60.0646 205.516 60.0646 205.516 60.1661L204.298 68.3841C204.095 68.7899 203.69 69.0943 203.182 69.0943Z" fill="black"/>
<path d="M208.56 72.7465H208.458C207.951 72.6451 207.545 72.1378 207.545 71.6305L208.255 65.3402C208.357 64.8329 208.864 64.4271 209.371 64.4271C209.879 64.5285 210.284 65.0358 210.284 65.5431L209.574 71.8334C209.574 72.3407 209.067 72.7465 208.56 72.7465Z" fill="black"/>
<path d="M213.024 75.9933H212.922C212.415 75.8919 211.908 75.4861 212.009 74.8773L212.719 67.6739C212.821 67.1666 213.227 66.7608 213.835 66.7608C214.343 66.8622 214.85 67.268 214.748 67.8768L214.038 75.0802C214.038 75.5875 213.632 75.9933 213.024 75.9933Z" fill="black"/>
<path d="M125.771 158.985H28.3721C25.9372 158.985 23.7051 157.463 22.792 155.13L4.32684 104.401C2.90644 100.546 5.74724 96.4876 9.90697 96.4876H107.306C109.741 96.4876 111.973 98.0095 112.886 100.343L131.351 150.97C132.67 154.927 129.829 158.985 125.771 158.985Z" fill="white"/>
<path d="M125.771 160H28.3722C25.4299 160 22.8935 158.174 21.8789 155.434L3.41379 104.807C2.60213 102.677 2.9065 100.343 4.22544 98.5169C5.54438 96.6907 7.57352 95.5747 9.90703 95.5747H107.306C110.248 95.5747 112.784 97.4009 113.799 100.14L132.264 150.767C133.076 152.898 132.771 155.231 131.452 157.058C130.133 158.884 128.003 160 125.771 160ZM9.90703 97.5024C8.28372 97.5024 6.86332 98.314 5.84875 99.633C4.93564 100.952 4.73273 102.575 5.24001 104.097L23.7052 154.724C24.4154 156.652 26.2416 157.971 28.2707 157.971H125.669C127.293 157.971 128.713 157.159 129.728 155.84C130.742 154.521 130.844 152.898 130.336 151.376L111.871 100.749C111.161 98.8213 109.335 97.5024 107.306 97.5024H9.90703Z" fill="black"/>
<path d="M155.295 158.985L154.28 156.348C153.469 154.014 151.236 152.492 148.7 152.492H51.4029C47.7504 152.492 45.1126 155.637 45.5184 159.087H155.295V158.985Z" fill="white"/>
<path d="M155.295 160H45.5184C45.0111 160 44.6053 159.594 44.5038 159.087C44.3009 157.159 44.9097 155.231 46.2286 153.709C47.5475 152.188 49.3738 151.376 51.4029 151.376H148.801C151.744 151.376 154.28 153.202 155.295 155.942L156.309 158.579C156.411 158.884 156.411 159.188 156.208 159.493C156.005 159.797 155.701 160 155.295 160ZM46.4315 157.971H153.874L153.367 156.652C152.657 154.724 150.831 153.405 148.801 153.405H51.4029C49.9825 153.405 48.6636 154.014 47.7504 155.028C47.0402 155.84 46.533 156.855 46.4315 157.971Z" fill="black"/>
<path d="M121.814 159.999H24.4153C21.9804 159.999 19.7483 158.376 18.8352 155.941L0.370053 103.589C-1.05034 99.6325 1.79045 95.3714 5.95018 95.3714H103.349C105.784 95.3714 108.016 96.9947 108.929 99.4296L127.394 151.781C128.814 155.84 125.872 159.999 121.814 159.999Z" fill="#080717"/>
<path d="M68.5493 126.823C69.7668 130.171 68.042 132.809 64.7954 132.809C61.4473 132.809 57.7948 130.171 56.6788 126.823C55.4613 123.475 57.1861 120.837 60.4327 120.837C63.6793 120.837 67.3318 123.475 68.5493 126.823Z" fill="white"/>
<path d="M64.6938 133.824C60.9399 133.824 56.983 130.882 55.5626 127.128C54.8524 125.2 54.9539 123.272 55.9685 121.852C56.8816 120.533 58.4034 119.823 60.3311 119.823C64.085 119.823 68.0418 122.765 69.4622 126.519C70.1724 128.447 70.071 130.374 69.0564 131.795C68.1433 133.012 66.6214 133.824 64.6938 133.824ZM60.3311 121.852C59.1136 121.852 58.2005 122.258 57.6932 123.069C57.0845 123.983 56.983 125.2 57.4903 126.519C58.5049 129.36 61.853 131.795 64.6938 131.795C65.9112 131.795 66.8244 131.389 67.3316 130.577C67.9404 129.664 68.0418 128.447 67.5346 127.128C66.52 124.287 63.1719 121.852 60.3311 121.852Z" fill="black"/>
<path d="M145.352 42.5127L155.295 79.3416C155.295 79.3416 149.41 91.9223 134.293 90.299C133.989 90.299 128.814 52.557 128.814 52.557L145.352 42.5127Z" fill="white"/>
<path d="M136.931 91.4145C136.018 91.4145 135.206 91.4145 134.192 91.3131C133.279 91.2116 133.279 91.2116 132.264 84.5155C131.757 80.9645 131.047 76.2975 130.336 71.529C129.017 62.0935 127.698 52.658 127.698 52.658C127.597 52.2522 127.8 51.8463 128.206 51.6434L144.743 41.5992C145.048 41.3963 145.352 41.3963 145.656 41.4977C145.961 41.5992 146.164 41.9036 146.265 42.2079L156.208 79.0368C156.309 79.2397 156.208 79.5441 156.106 79.747C156.208 79.8484 150.628 91.4145 136.931 91.4145ZM135.206 89.2839C147.787 90.2985 153.266 81.0659 154.28 79.1382L144.743 44.0342L129.931 53.0638C131.757 66.3547 134.496 85.6315 135.206 89.2839Z" fill="black"/>
<path d="M103.755 28.5112L105.682 43.3239C106.697 50.8317 109.639 57.9337 114.205 64.0211L119.785 71.326C119.785 71.326 137.946 66.7604 146.874 48.5997C155.599 30.4389 138.757 0.00180054 103.755 28.5112Z" fill="white"/>
<path d="M119.785 72.3405C119.481 72.3405 119.176 72.2391 118.973 71.9347L113.393 64.6298C108.726 58.4409 105.682 51.1361 104.668 43.4253L102.74 28.6126C102.74 28.3083 102.842 27.9024 103.146 27.6995C110.349 21.815 128.612 9.33581 142.004 19.8873C150.019 26.2791 152.657 39.0627 147.787 49.0055C138.859 67.3692 120.799 72.0362 120.089 72.2391C119.886 72.3405 119.785 72.3405 119.785 72.3405ZM104.769 29.0184L106.697 43.2224C107.712 50.5273 110.552 57.5278 115.016 63.4123L120.089 70.1085C123.336 69.0939 138.25 63.7167 145.859 48.0923C150.323 38.9612 147.99 27.2937 140.685 21.5106C132.163 14.8145 119.075 17.4524 104.769 29.0184Z" fill="black"/>
<path d="M99.595 39.3675C99.4936 39.3675 99.4936 39.3675 99.3921 39.3675C98.8848 39.266 98.479 38.7587 98.5805 38.2515C98.7834 36.7296 100.407 35.0048 102.436 34.0917C104.566 33.0771 106.798 33.2801 108.726 34.3961C109.233 34.7005 109.335 35.3092 109.031 35.8165C108.726 36.3238 108.117 36.4252 107.61 36.1209C105.885 35.0048 104.161 35.5121 103.247 35.9179C101.726 36.6281 100.711 37.8456 100.61 38.5558C100.508 38.9616 100.102 39.3675 99.595 39.3675Z" fill="black"/>
<path d="M117.046 32.8743C116.944 32.8743 116.944 32.8743 116.843 32.8743C116.335 32.7728 115.93 32.2655 116.031 31.7582C116.234 30.2364 117.857 28.5116 119.886 27.5985C122.017 26.5839 124.249 26.7868 126.177 27.9029C126.684 28.2072 126.785 28.816 126.481 29.3233C126.177 29.8306 125.568 29.932 125.061 29.6276C123.336 28.5116 121.611 29.0189 120.698 29.4247C119.176 30.1349 118.162 31.3524 118.06 32.0626C117.959 32.4684 117.553 32.8743 117.046 32.8743Z" fill="black"/>
<path d="M120.394 42.2079C120.698 43.121 121.51 43.7297 122.118 43.4254C122.829 43.2224 123.031 42.3093 122.727 41.3962C122.423 40.4831 121.611 39.8744 121.002 40.1787C120.292 40.3816 120.089 41.2948 120.394 42.2079Z" fill="black"/>
<path d="M105.885 47.2809C106.19 48.194 107.001 48.8027 107.61 48.4983C108.32 48.2954 108.523 47.3823 108.219 46.4692C107.914 45.5561 107.103 44.9473 106.494 45.2517C105.784 45.4546 105.581 46.3677 105.885 47.2809Z" fill="black"/>
<path d="M106.19 53.1656C104.871 53.1656 103.552 52.7598 102.334 52.151C100.508 51.1365 99.2905 49.4117 98.7832 47.484C98.2759 45.4549 98.5803 43.4257 99.5949 41.5995C100.609 39.7733 102.334 38.5558 104.262 38.0485C108.422 36.9325 112.581 39.4689 113.697 43.5272C114.205 45.5563 113.9 47.5855 112.886 49.4117C111.871 51.2379 110.146 52.4554 108.219 52.9627C107.509 53.0642 106.9 53.1656 106.19 53.1656ZM106.19 39.7733C105.682 39.7733 105.276 39.8748 104.769 39.9762C103.349 40.382 102.03 41.2952 101.32 42.6141C100.508 43.933 100.305 45.4549 100.711 46.9767C101.117 48.3971 102.03 49.7161 103.349 50.4263C104.668 51.2379 106.19 51.4408 107.711 51.035C109.132 50.6292 110.451 49.7161 111.161 48.3971C111.973 47.0782 112.176 45.5563 111.77 44.0345C111.06 41.4981 108.726 39.7733 106.19 39.7733Z" fill="#0040C2"/>
<path d="M116.944 54.687C116.741 54.687 116.64 54.687 116.437 54.5856C116.133 54.4841 115.93 54.1797 115.93 53.8754L111.871 34.1927C111.77 33.6854 112.074 33.0767 112.683 32.9752C113.19 32.8738 113.799 33.1782 113.901 33.7869L117.654 52.252L121.916 50.4258C122.423 50.2229 123.032 50.4258 123.235 50.9331C123.437 51.4404 123.235 52.0491 122.727 52.252L117.249 54.5856C117.249 54.5856 117.147 54.687 116.944 54.687Z" fill="black"/>
<path d="M112.48 44.2373C112.074 44.2373 111.77 44.0343 111.567 43.6285C111.364 43.1212 111.567 42.5125 112.074 42.3096L116.132 40.3819C116.64 40.179 117.248 40.3819 117.451 40.8892C117.654 41.3965 117.451 42.0052 116.944 42.2081L112.886 44.1358C112.683 44.1358 112.581 44.2373 112.48 44.2373Z" fill="#0040C2"/>
<path d="M131.452 24.656L132.568 38.1497L142.613 32.3667L146.874 48.7013C146.874 48.7013 157.222 39.976 152.961 24.4531C147.584 5.27772 104.566 0.0019589 104.566 0.0019589C104.566 0.0019589 90.2609 -0.505326 89.5507 14.2059C89.0434 24.7574 95.3338 33.4827 106.494 30.5405C117.451 27.2939 131.452 24.656 131.452 24.656Z" fill="black"/>
<path d="M138.352 36.9327C136.728 33.7876 137.946 29.9322 141.192 28.3089C144.337 26.6856 148.193 27.9031 149.816 31.1497C151.439 34.2948 150.222 38.1502 146.975 39.7735L138.352 36.9327Z" fill="white"/>
<path d="M146.975 40.6865C146.57 40.6865 146.265 40.4836 146.062 40.1792C145.758 39.6719 145.961 39.0632 146.468 38.8603C147.787 38.2515 148.7 37.034 149.207 35.7151C149.613 34.2947 149.512 32.8743 148.903 31.5554C148.294 30.2364 147.077 29.3233 145.758 28.816C144.338 28.4102 142.917 28.5117 141.598 29.1204C140.279 29.7291 139.366 30.9466 138.859 32.2656C138.453 33.686 138.555 35.1064 139.163 36.4253C139.468 36.9326 139.265 37.5413 138.757 37.7442C138.25 38.0486 137.641 37.8457 137.438 37.3384C136.525 35.6136 136.322 33.5845 137.033 31.6568C137.743 29.7291 138.96 28.2073 140.685 27.2942C142.41 26.3811 144.439 26.2796 146.367 26.8884C148.294 27.4971 149.816 28.816 150.729 30.5408C151.642 32.2656 151.845 34.2947 151.135 36.2224C150.425 38.1501 149.207 39.6719 147.483 40.585C147.28 40.6865 147.178 40.6865 146.975 40.6865Z" fill="black"/>
<path d="M123.64 46.8751C120.495 46.8751 117.553 44.9474 116.335 41.8023C114.915 37.8455 116.944 33.3814 120.901 31.8595C124.858 30.4391 129.322 32.4682 130.844 36.4251C131.554 38.3527 131.452 40.4833 130.539 42.3096C129.626 44.1358 128.104 45.5562 126.177 46.2664C125.365 46.7737 124.452 46.8751 123.64 46.8751ZM123.64 33.4828C123.032 33.4828 122.321 33.5843 121.713 33.7872C118.77 34.9032 117.248 38.1498 118.365 41.0921C119.481 44.0343 122.727 45.5562 125.669 44.4402C127.09 43.9329 128.206 42.9183 128.916 41.4979C129.525 40.0775 129.626 38.5557 129.119 37.1353C128.104 34.9032 125.974 33.4828 123.64 33.4828Z" fill="#0040C2"/>
<path d="M119.582 61.9921C118.973 61.9921 118.669 61.9921 118.567 61.9921C118.06 61.8906 117.654 61.3833 117.654 60.876C117.756 60.3688 118.263 59.9629 118.77 59.9629C119.075 59.9629 125.466 60.6731 129.626 54.3828C129.931 53.8755 130.539 53.7741 131.047 54.0784C131.554 54.3828 131.655 54.9915 131.351 55.4988C127.496 61.3833 121.915 61.9921 119.582 61.9921Z" fill="black"/>
<path d="M200.443 90.8061C199.834 90.8061 199.428 90.2988 199.428 89.7915C199.834 79.24 192.428 74.2686 192.124 74.0657C191.616 73.7613 191.515 73.1526 191.819 72.6453C192.124 72.138 192.732 72.0366 193.24 72.3409C193.544 72.5439 201.965 78.2254 201.458 89.893C201.458 90.4003 201.052 90.8061 200.443 90.8061Z" fill="black"/>
</svg>
