<svg width="194" height="180" viewBox="0 0 194 180" fill="none" xmlns="http://www.w3.org/2000/svg">
<path d="M177.885 176.193V155.781C177.885 124.9 168.049 99.9412 155.887 99.9412H65.9929C53.8307 99.9412 43.9952 124.9 43.9952 155.781V176.193H177.885Z" fill="black"/>
<path d="M121.939 70.6463H102.479V102.374H121.939V70.6463Z" fill="white"/>
<path d="M121.939 103.431H102.479C101.845 103.431 101.422 103.008 101.422 102.374V70.6463C101.422 70.0118 101.845 69.5887 102.479 69.5887H121.939C122.573 69.5887 122.996 70.0118 122.996 70.6463V102.374C122.996 103.008 122.468 103.431 121.939 103.431ZM103.537 101.316H120.881V71.7039H103.537V101.316Z" fill="black"/>
<path d="M92.4324 42.5147C104.172 42.5147 113.69 32.9975 113.69 21.2573C113.69 9.51724 104.172 0 92.4324 0C80.6923 0 71.175 9.51724 71.175 21.2573C71.175 32.9975 80.6923 42.5147 92.4324 42.5147Z" fill="black"/>
<path d="M128.39 24.4301C129.025 31.9389 123.842 38.6016 116.757 39.2362C109.671 39.8707 103.325 34.2656 102.691 26.7568C102.056 19.2479 107.238 12.5852 114.324 11.9506C121.41 11.3161 127.756 16.9213 128.39 24.4301Z" fill="black"/>
<path d="M148.405 38.1294C148.569 29.1947 141.46 21.8181 132.525 21.6534C123.59 21.4887 116.214 28.5982 116.049 37.5329C115.884 46.4676 122.994 53.8442 131.929 54.0089C140.863 54.1736 148.24 47.0641 148.405 38.1294Z" fill="black"/>
<path d="M140.092 66.4404C144.432 61.2376 143.732 53.5019 138.529 49.1622C133.327 44.8226 125.591 45.5223 121.251 50.7252C116.912 55.928 117.611 63.6637 122.814 68.0033C128.017 72.3429 135.753 71.6432 140.092 66.4404Z" fill="black"/>
<path d="M92.7496 41.7744C93.2784 47.4853 89.0481 52.5617 83.3372 53.0905C77.6263 53.6193 72.5499 49.389 72.0211 43.678C71.4923 37.9671 75.7226 32.8907 81.4335 32.3619C87.1445 31.8331 92.2208 36.0635 92.7496 41.7744Z" fill="black"/>
<path d="M129.659 50.7638C129.976 52.3502 130.188 53.9365 130.188 55.6287C130.188 58.5899 129.659 61.4454 128.707 63.8778C132.409 63.5605 135.264 60.7051 135.264 57.215C135.264 54.0423 132.832 51.5041 129.659 50.7638Z" fill="white"/>
<path d="M89.8943 33.7368C89.8943 33.7368 73.7133 71.9154 87.6733 82.1739C101.633 92.4324 112.315 87.6733 119.612 82.1739C126.91 76.6745 129.13 69.2715 129.13 69.2715C129.13 69.2715 122.891 71.8096 122.891 65.5699C122.891 59.3302 126.91 47.5911 123.948 43.5723C121.093 39.6592 110.411 30.8813 89.8943 33.7368Z" fill="white"/>
<path d="M103.854 89.3654C98.3549 89.3654 92.7498 87.2503 87.0388 83.1257C72.55 72.4442 88.2022 35.0059 88.9425 33.4195C89.154 32.8907 89.7885 32.6792 90.3173 32.8907C90.8461 33.1022 91.0576 33.7368 90.8461 34.2656C90.7403 34.6886 75.1939 71.8096 88.3079 81.4336C96.4513 87.356 104.066 88.8367 111.786 85.6639C112.315 85.4524 112.95 85.6639 113.161 86.1927C113.373 86.7215 113.161 87.356 112.632 87.5676C109.671 88.7309 106.816 89.3654 103.854 89.3654Z" fill="black"/>
<path d="M87.6733 43.7838C87.356 43.7838 87.1445 43.678 86.933 43.4665C86.51 43.0435 86.51 42.4089 86.933 41.9859C88.7309 40.188 93.2785 37.6498 97.1915 41.2456C97.6146 41.6686 97.6146 42.3032 97.2973 42.7262C96.8742 43.1492 96.2397 43.1492 95.8167 42.832C92.3267 39.765 88.6251 43.3608 88.4136 43.4665C88.2021 43.678 87.9906 43.7838 87.6733 43.7838Z" fill="black"/>
<path d="M93.7536 48.308C94.2016 47.3569 94.0081 46.3236 93.3212 46C92.6343 45.6764 91.7143 46.185 91.2662 47.1361C90.8181 48.0871 91.0117 49.1204 91.6985 49.4441C92.3854 49.7677 93.3055 49.259 93.7536 48.308Z" fill="black"/>
<path d="M111.152 46.2162C110.729 46.2162 110.411 46.0047 110.2 45.5817C108.19 41.3513 103.326 43.3607 103.114 43.4665C102.585 43.678 101.951 43.4665 101.739 42.9377C101.528 42.4089 101.739 41.7744 102.268 41.5629C104.595 40.611 109.777 39.9765 112.103 44.7356C112.315 45.2644 112.103 45.8989 111.575 46.1105C111.469 46.2162 111.257 46.2162 111.152 46.2162Z" fill="black"/>
<path d="M106.921 49.812C106.498 50.7638 105.546 51.2926 104.806 50.9753C104.066 50.6581 103.96 49.6005 104.383 48.6487C104.806 47.6968 105.758 47.168 106.498 47.4853C107.133 47.8026 107.344 48.8602 106.921 49.812Z" fill="black"/>
<path d="M98.4606 57.4266C98.2491 57.4266 98.0376 57.3208 97.9318 57.215L94.1245 54.7826C93.5957 54.4653 93.49 53.8308 93.8072 53.302L97.2973 47.5911C97.6145 47.0623 98.2491 46.9565 98.7779 47.2738C99.3067 47.5911 99.4124 48.2256 99.0951 48.7544L96.0282 53.6193L98.9894 55.5229C99.5182 55.8402 99.6239 56.4747 99.3067 57.0035C99.2009 57.215 98.8836 57.4266 98.4606 57.4266Z" fill="#080717"/>
<path d="M100.893 65.993C100.576 65.993 100.364 65.993 100.364 65.993C99.8355 65.8872 99.4125 65.3584 99.4125 64.8296C99.5182 64.3008 100.047 63.8778 100.576 63.8778C100.893 63.8778 106.498 64.4066 110.834 55.946C111.046 55.4172 111.68 55.2056 112.209 55.5229C112.738 55.7344 112.949 56.369 112.632 56.8978C108.402 65.2526 102.691 65.993 100.893 65.993Z" fill="#080717"/>
<path d="M118.449 105.969H103.96C101.105 105.969 98.6721 103.643 98.6721 100.682V95.7109C98.6721 92.8555 100.999 90.423 103.96 90.423H118.449C121.304 90.423 123.737 92.7497 123.737 95.7109V100.682C123.631 103.537 121.304 105.969 118.449 105.969Z" fill="black"/>
<path d="M116.757 85.3467C116.439 85.3467 116.016 85.1351 115.911 84.8179C115.593 84.2891 115.805 83.6545 116.228 83.3373C117.18 82.8085 118.132 82.1739 119.083 81.4336C126.063 76.2515 128.179 69.1657 128.284 69.1657C128.496 68.6369 129.025 68.3196 129.553 68.4254C130.082 68.6369 130.4 69.1657 130.294 69.6945C130.188 70.0118 127.861 77.4148 120.353 83.1257C119.295 83.866 118.343 84.6064 117.391 85.1351C117.074 85.2409 116.863 85.3467 116.757 85.3467Z" fill="black"/>
<path d="M163.713 103.008C163.713 106.392 162.127 109.354 159.589 111.152C158.848 111.68 158.425 112.526 158.425 113.584C158.425 115.17 159.589 116.439 161.175 116.651L184.865 116.757L184.548 180L121.304 179.683L121.41 155.147C121.516 155.041 121.516 154.935 121.622 154.724C121.727 154.618 121.727 154.512 121.833 154.407C122.045 154.195 122.15 154.089 122.362 153.878L122.468 153.772C122.573 153.772 122.573 153.666 122.679 153.666C122.785 153.666 122.891 153.561 122.891 153.561C122.996 153.561 122.996 153.455 123.102 153.455C123.208 153.455 123.314 153.349 123.419 153.349C123.525 153.349 123.525 153.349 123.631 153.349C123.843 153.349 123.948 153.349 124.16 153.349C125.112 153.349 125.958 153.772 126.592 154.512C128.496 156.945 131.457 158.531 134.736 158.637C140.447 158.637 145.1 154.089 145.206 148.273C145.206 142.562 140.658 137.908 134.841 137.803C131.457 137.803 128.496 139.389 126.592 141.821C126.063 142.562 125.112 142.985 124.16 142.985C123.948 142.985 123.843 142.985 123.631 142.879C123.525 142.879 123.525 142.879 123.419 142.879C123.314 142.879 123.208 142.773 123.102 142.773C122.996 142.773 122.996 142.667 122.891 142.667C122.785 142.667 122.679 142.562 122.679 142.562C122.573 142.562 122.573 142.456 122.468 142.456C122.468 142.456 122.362 142.456 122.362 142.35C122.15 142.244 121.939 142.033 121.833 141.821C121.727 141.716 121.622 141.61 121.622 141.504C121.516 141.398 121.516 141.293 121.41 141.081L121.622 116.334L145.311 116.439C146.898 116.228 148.061 114.959 148.061 113.373C148.061 112.421 147.638 111.575 146.898 110.94C144.465 109.036 142.879 106.075 142.879 102.691C142.879 96.98 147.532 92.3267 153.349 92.3267C159.06 92.5382 163.713 97.1915 163.713 103.008Z" fill="#99BBFF"/>
<path d="M80.5876 177.25V153.349C80.6933 151.763 82.0682 150.494 83.6546 150.494C84.6064 150.494 85.4525 150.917 86.087 151.657C87.9906 154.195 91.0576 155.781 94.4419 155.781C100.259 155.781 104.912 151.128 104.912 145.311C104.912 139.495 100.259 134.841 94.4419 134.841C91.0576 134.841 88.0964 136.428 86.087 138.966C85.5582 139.706 84.6064 140.129 83.6546 140.129C81.9624 140.129 80.6933 138.86 80.5876 137.274V113.161H56.5805C54.9942 112.949 53.8308 111.68 53.8308 110.094C53.8308 109.142 54.2539 108.296 54.9942 107.662C57.4266 105.758 59.1187 102.691 59.1187 99.3067C59.1187 93.49 54.4654 88.8367 48.6487 88.8367C42.832 88.8367 38.1787 93.49 38.1787 99.3067C38.1787 102.691 39.765 105.652 42.3032 107.662C43.0435 108.19 43.4666 109.142 43.4666 110.094C43.4666 111.68 42.1975 113.055 40.7169 113.161H16.4983V177.25H80.5876Z" fill="#004FF0"/>
<path d="M191.739 156.522C191.739 156.522 192.374 166.675 192.268 169.001C192.268 170.27 191.739 176.722 185.394 177.462C179.048 178.202 168.049 177.145 167.203 173.655C166.463 170.165 167.838 169.318 169.318 168.367C170.799 167.415 177.039 167.309 178.625 167.415C180.317 167.415 183.173 154.195 191.739 156.522Z" fill="white"/>
<path d="M181.269 178.731C175.241 178.731 167.098 177.673 166.251 173.972C165.3 170.059 166.992 168.684 168.895 167.521C170.799 166.357 177.145 166.357 178.519 166.357C178.837 166.04 179.26 165.088 179.683 164.348C181.586 160.646 185.288 153.666 192.162 155.57C192.585 155.676 192.902 156.099 192.902 156.522C192.902 156.945 193.537 166.674 193.431 169.107C193.431 169.953 193.008 177.673 185.605 178.519C184.336 178.625 182.855 178.731 181.269 178.731ZM177.673 168.472C175.029 168.472 170.905 168.79 169.953 169.318C168.578 170.165 167.626 170.693 168.261 173.443C168.79 175.664 177.991 177.25 185.288 176.404C190.893 175.77 191.21 170.165 191.316 169.001C191.316 167.098 190.999 159.8 190.787 157.368C186.451 156.628 183.807 160.858 181.481 165.194C180.423 167.203 179.788 168.367 178.731 168.367C178.731 168.367 178.731 168.367 178.625 168.367C178.414 168.472 177.991 168.472 177.673 168.472Z" fill="black"/>
<path d="M192.162 147.109C192.162 147.109 192.902 158.743 192.797 160.752C192.691 162.127 192.162 169.107 185.288 169.953C178.414 170.799 166.675 172.174 165.828 168.472C164.982 164.771 166.146 161.175 167.838 160.118C169.53 159.06 176.298 158.954 177.991 159.06C179.788 158.954 182.855 144.465 192.162 147.109Z" fill="white"/>
<path d="M173.337 171.857C168.684 171.857 165.3 171.011 164.665 168.578C163.819 164.771 164.877 160.435 167.203 159.06C169.213 157.791 176.193 157.791 177.673 157.791C177.991 157.474 178.519 156.416 178.942 155.464C181.058 151.445 184.971 143.937 192.374 145.946C192.797 146.052 193.114 146.475 193.114 146.898C193.114 147.321 193.854 158.531 193.749 160.646C193.431 166.463 190.259 170.165 185.288 170.799H184.971C180.846 171.434 176.722 171.857 173.337 171.857ZM176.933 159.906C174.289 159.906 169.424 160.223 168.367 160.858C167.203 161.598 166.04 164.665 166.78 168.049C167.415 170.799 180 169.318 184.759 168.79H185.076C190.47 168.155 191.528 163.396 191.633 160.646C191.739 159.166 191.316 152.08 191.105 147.955C186.24 147.109 183.384 151.657 180.846 156.522C179.683 158.743 179.048 160.012 177.885 159.906C177.673 159.906 177.356 159.906 176.933 159.906Z" fill="black"/>
<path d="M191.633 139.177C191.633 139.177 192.691 151.445 192.268 152.82C191.845 154.195 191.633 161.175 184.759 162.021C177.885 162.867 166.146 164.242 165.3 160.541C164.454 156.839 165.617 153.243 167.309 152.186C169.001 151.128 175.77 151.022 177.462 151.128C179.154 151.022 182.327 136.533 191.633 139.177Z" fill="white"/>
<path d="M172.808 163.925C168.155 163.925 164.771 163.079 164.136 160.646C163.29 156.839 164.348 152.503 166.675 151.128C168.684 149.859 175.664 149.859 177.145 149.859C177.462 149.542 177.991 148.484 178.414 147.532C180.529 143.514 184.442 136.005 191.845 138.014C192.268 138.12 192.585 138.543 192.585 138.966C192.902 142.667 193.537 151.551 193.114 152.926C193.008 153.137 193.008 153.349 192.902 153.666C192.479 155.993 191.316 162.021 184.653 162.761H184.336C180.212 163.502 176.193 163.925 172.808 163.925ZM176.404 151.974C173.76 151.974 168.895 152.291 167.838 152.926C166.675 153.666 165.511 156.733 166.251 160.118C166.886 162.867 179.471 161.387 184.23 160.858H184.548C189.73 160.223 190.576 155.887 190.999 153.455C191.105 153.032 191.105 152.609 191.21 152.397C191.422 151.551 191.105 145.523 190.576 140.024C185.711 139.177 182.855 143.725 180.317 148.59C179.154 150.811 178.519 152.08 177.356 151.974C177.145 151.974 176.722 151.974 176.404 151.974Z" fill="black"/>
<path d="M185.817 130.611C193.431 130.611 192.374 140.447 192.268 143.408C192.268 144.888 191.633 152.08 184.442 152.926C177.25 153.772 165.194 155.253 164.242 151.34C163.396 147.427 164.665 143.725 166.357 142.667C168.049 141.61 175.135 141.504 176.933 141.504C178.202 141.504 185.711 141.61 185.711 135.582C185.817 133.149 185.605 130.611 185.817 130.611Z" fill="white"/>
<path d="M172.174 154.83C167.309 154.83 163.819 153.984 163.29 151.445C162.338 147.427 163.502 143.09 165.828 141.61C168.155 140.129 176.933 140.341 176.933 140.341C179.154 140.447 182.009 140.024 183.49 138.543C184.336 137.803 184.653 136.745 184.653 135.476C184.653 134.524 184.653 133.572 184.653 132.832C184.548 130.505 184.548 130.188 184.971 129.765C185.182 129.553 185.499 129.448 185.711 129.448C187.826 129.448 189.518 130.082 190.787 131.457C193.643 134.418 193.431 139.918 193.22 142.562C193.22 142.879 193.22 143.09 193.22 143.302C193.22 144.888 192.585 152.82 184.442 153.772H184.019C179.894 154.407 175.664 154.83 172.174 154.83ZM175.77 142.456C172.914 142.456 168.049 142.773 166.886 143.408C165.617 144.148 164.454 147.427 165.3 150.917C165.934 153.772 179.048 152.291 183.913 151.763H184.336C190.47 151.022 191.105 145.1 191.21 143.302C191.21 143.09 191.21 142.773 191.21 142.562C191.316 140.235 191.528 135.37 189.307 133.043C188.672 132.303 187.826 131.88 186.663 131.774C186.663 132.092 186.663 132.515 186.663 132.938C186.663 133.784 186.663 134.736 186.663 135.687C186.663 137.591 186.028 139.072 184.865 140.341C182.432 142.667 178.414 142.773 176.827 142.667C176.616 142.562 176.193 142.456 175.77 142.456Z" fill="black"/>
<path d="M16.4982 124.371L15.4406 132.409C15.4406 132.409 21.7861 134.841 25.2761 135.476C28.7661 136.005 34.6886 136.639 38.2844 136.322C41.8801 136.005 45.8989 135.264 47.4853 136.639C49.0717 138.014 50.235 140.129 48.9659 141.821C47.6968 143.514 51.0811 142.456 51.0811 142.456C51.0811 142.456 54.4653 142.35 54.6768 144.465C54.9941 146.581 54.2538 148.59 52.7732 150.282C51.2926 151.868 49.7062 153.455 49.7062 153.455C49.7062 153.455 52.7732 153.455 53.6193 155.464C54.4653 157.474 55.0999 159.166 53.4077 160.541C51.7156 161.915 46.5335 165.088 46.5335 165.088L44.101 165.723C44.101 165.723 46.8508 166.569 46.9565 168.472C46.9565 170.27 40.3995 174.183 35.2174 174.395C30.141 174.712 20.4113 177.568 13.6428 172.28C6.7685 166.992 0.423022 160.118 0.634537 151.34C0.846053 142.667 3.17273 134.101 6.34547 130.717C9.5182 127.333 15.5464 123.42 15.5464 123.42L16.4982 124.371Z" fill="white"/>
<path d="M47.2738 144.465C46.9565 144.465 46.6392 144.36 46.4277 144.042C46.1105 143.619 46.1105 142.879 46.6392 142.562C47.8026 141.61 48.5429 140.235 48.4371 139.283C48.3314 138.543 47.9083 138.014 47.0623 137.591C45.7932 136.957 43.3607 137.062 40.188 137.274C37.2268 137.485 33.4195 137.697 29.2949 137.274C22.3149 136.533 14.0658 133.361 13.7485 133.149C13.2197 132.938 12.9025 132.303 13.114 131.774C13.3255 131.246 13.96 130.928 14.4888 131.14C14.5946 131.14 22.8437 134.418 29.5065 135.053C33.4195 135.476 37.121 135.264 39.9765 135.053C43.4665 134.841 46.1105 134.63 47.9083 135.582C49.812 136.639 50.3408 138.014 50.4465 138.966C50.658 141.081 49.1774 143.09 47.8026 144.148C47.6968 144.36 47.4853 144.465 47.2738 144.465Z" fill="black"/>
<path d="M33.208 158.002C28.7661 158.002 25.3819 157.579 25.0646 157.474C24.5358 157.368 24.1128 156.839 24.1128 156.31C24.2186 155.781 24.7473 155.358 25.2761 155.358C25.3819 155.358 38.4959 157.156 46.322 153.666C51.1868 151.551 53.5135 147.532 53.8308 145.84C53.9365 145.206 53.725 144.36 53.1962 143.831C52.879 143.514 52.2444 143.09 51.2926 143.196C50.7638 143.302 50.1292 143.514 49.1774 143.937C47.3795 144.677 44.7356 145.734 40.5053 146.58C34.9001 147.638 26.1222 147.427 25.8049 147.427C25.1704 147.427 24.7473 146.898 24.7473 146.369C24.7473 145.734 25.2761 145.311 25.8049 145.311C25.9107 145.311 34.6886 145.523 40.0822 144.465C44.101 143.619 46.745 142.667 48.4371 142.033C49.4947 141.61 50.235 141.293 50.9753 141.187C52.4559 140.975 53.8308 141.398 54.7826 142.456C55.7344 143.514 56.2632 144.994 55.9459 146.369C55.4171 148.696 52.6674 153.243 47.2738 155.676C43.0435 157.579 37.6498 158.002 33.208 158.002Z" fill="black"/>
<path d="M28.9777 168.367C28.5546 168.367 28.2373 168.367 28.1316 168.261C27.6028 168.049 27.2855 167.415 27.497 166.886C27.7086 166.357 28.2373 166.146 28.7661 166.251C30.2467 166.357 44.2068 164.665 47.6968 162.656C50.8695 160.858 53.8308 158.954 53.6192 157.262C53.302 154.83 49.1774 154.618 49.1774 154.618C48.5429 154.618 48.1198 154.089 48.1198 153.561C48.1198 153.032 48.6486 152.503 49.1774 152.503C49.3889 152.503 55.2056 152.714 55.7344 156.945C56.0517 160.012 52.7732 162.127 48.7544 164.454C45.2644 166.463 32.5734 168.367 28.9777 168.367Z" fill="black"/>
<path d="M23.584 176.193C22.8437 176.193 22.2092 176.193 21.5746 176.087C16.8155 175.664 6.0282 170.27 1.79788 158.743C-2.32668 147.427 0.634547 132.62 8.46063 126.275C13.2197 122.468 15.3349 121.093 15.3349 120.987C15.8637 120.67 16.4982 120.776 16.8155 121.304C17.1328 121.833 17.027 122.468 16.4982 122.785C16.4982 122.785 14.3831 124.16 9.83549 127.861C2.74971 133.678 -7.18981e-07 147.427 3.80728 158.002C8.0376 169.424 18.4019 173.655 21.7861 173.972C27.3913 174.395 38.7074 172.597 43.5723 169.847C44.8414 169.107 45.4759 168.367 45.5817 167.732C45.5817 166.886 44.6298 166.146 44.6298 166.146C44.2068 165.828 43.9953 165.194 44.4183 164.665C44.7356 164.242 45.3702 164.031 45.8989 164.454C46.1105 164.559 47.9083 165.934 47.8026 167.838C47.6968 169.318 46.745 170.588 44.7356 171.645C39.8707 174.395 29.9295 176.193 23.584 176.193Z" fill="black"/>
</svg>
