<svg width="300" height="300" viewBox="0 0 300 300" fill="none" xmlns="http://www.w3.org/2000/svg">
<rect width="300" height="300" rx="150" fill="#4A73FA"/>
<mask id="mask0_565_1601" style="mask-type:alpha" maskUnits="userSpaceOnUse" x="0" y="0" width="300" height="300">
<circle cx="150" cy="150" r="150" fill="#D9D9D9"/>
</mask>
<g mask="url(#mask0_565_1601)">
<path d="M252.733 110.262C247.053 110.026 232.023 107.402 225.218 106.12C218.117 99.3154 208.65 104.345 214.863 112.925C221.076 121.505 232.025 168.823 234.982 175.065C242.97 191.929 276.914 175.155 297.704 179.799C317.527 184.227 377.98 199.316 398 204.937V147.245C387.152 144.385 363.207 138.546 354.213 138.073C342.97 137.481 327.881 134.819 308.355 122.984C288.828 111.15 259.834 110.558 252.733 110.262Z" fill="#CE8361" stroke="black" stroke-width="1.12" stroke-linejoin="round"/>
<path d="M138.496 162.91C138.753 156.284 139.845 131.764 140.358 120.924C170.407 131.714 207.684 124.617 222.862 120.015C223.16 131.905 222.404 146.669 221.963 152.57C221.412 159.946 218.128 179.618 212.2 187.482C206.272 195.346 180.247 205.529 159.337 195.661C140.193 186.625 138.173 171.194 138.496 162.91Z" fill="#FFDDCA" stroke="black" stroke-width="1.12" stroke-linejoin="round"/>
<path d="M197.539 146.836C194.596 148.912 196.455 153.11 197.752 154.949C199.224 154.814 202.535 153.381 204.084 150.864C205.324 148.85 204.484 145.326 203.91 143.815C203.013 143.957 200.483 144.76 197.539 146.836Z" fill="#63B1AA" stroke="#0A524B" stroke-linejoin="round"/>
<path d="M199.086 153.332C200.183 153.429 202.019 153.063 202.019 153.063" stroke="#0A524B" stroke-width="0.591143" stroke-linejoin="round" stroke-dasharray="0.01 0.01"/>
<path d="M197.905 154.687C199.686 152.544 203.892 146.086 203.752 144.057" stroke="#0A524B" stroke-width="0.295572" stroke-linejoin="round"/>
<path d="M154.76 172.08C158.215 171.064 157.81 166.491 157.175 164.331C155.739 163.985 152.142 164.273 149.864 166.156C148.041 167.663 147.699 171.269 147.755 172.884C148.65 173.039 151.304 173.095 154.76 172.08Z" fill="#63B1AA" stroke="#0A524B" stroke-width="0.591143" stroke-linejoin="round"/>
<path d="M155.392 165.432C154.384 164.986 152.529 164.74 152.529 164.74" stroke="#0A524B" stroke-width="0.591143" stroke-linejoin="round" stroke-dasharray="0.01 0.01"/>
<path d="M156.947 164.53C154.569 165.984 148.505 170.74 147.982 172.706" stroke="#0A524B" stroke-width="0.295572" stroke-linejoin="round"/>
<path d="M199.243 174.438C194.316 173.727 194.47 169.09 195.162 166.86C205.005 165.456 208.57 170.988 209.122 173.93C207.882 174.396 204.17 175.149 199.243 174.438Z" fill="#63B1AA" stroke="#0A524B" stroke-linejoin="round"/>
<path d="M197.326 168.702C196.5 169.853 196.832 171.76 196.832 171.76" stroke="#0A524B" stroke-width="0.591143" stroke-linejoin="round" stroke-dasharray="0.01 0.01"/>
<path d="M195.516 166.96C197.838 168.635 206.553 174.016 209.039 173.6" stroke="#0A524B" stroke-width="0.295572" stroke-linejoin="round"/>
<path d="M162.051 145.405C166.485 147.667 164.844 152.007 163.469 153.893C153.7 152.048 152.11 145.661 152.536 142.698C153.86 142.658 157.616 143.142 162.051 145.405Z" fill="#63B1AA" stroke="#0A524B" stroke-width="0.591143" stroke-linejoin="round"/>
<path d="M162.014 151.453C163.168 150.629 163.469 148.718 163.469 148.718" stroke="#0A524B" stroke-width="0.591143" stroke-linejoin="round" stroke-dasharray="0.01 0.01"/>
<path d="M163.167 153.684C161.51 151.35 154.996 143.446 152.509 143.037" stroke="#0A524B" stroke-width="0.295572" stroke-linejoin="round"/>
<path d="M195.449 164.616C199.308 170.22 208.172 169.011 209.341 164.574C208.743 162.507 206.283 160.741 202.235 160.753C198.393 160.765 196.036 163.136 195.449 164.616Z" fill="#63B1AA" stroke="#0A524B" stroke-linejoin="round"/>
<path d="M195.745 164.615C198.504 165 207.688 165.465 209.34 164.278" stroke="#0A524B" stroke-width="0.295572" stroke-linejoin="round"/>
<path d="M162.474 155.925C160.629 149.375 151.849 147.661 149.311 151.483C149.21 153.633 150.969 156.098 154.804 157.392C158.445 158.621 161.442 157.136 162.474 155.925Z" fill="#63B1AA" stroke="#0A524B" stroke-width="0.591143" stroke-linejoin="round"/>
<path d="M162.194 155.831C159.707 154.575 151.164 151.173 149.217 151.764" stroke="#0A524B" stroke-width="0.295572" stroke-linejoin="round"/>
<path d="M202.11 152.459C198.666 151.002 196.462 155.844 195.79 158.447C196.795 159.818 199.953 162.099 202.898 161.852C205.255 161.654 207.544 158.309 208.395 156.661C207.735 155.868 205.554 153.916 202.11 152.459Z" fill="#63B1AA" stroke="#0A524B" stroke-linejoin="round"/>
<path d="M196.002 157.343C198.784 157.505 206.478 157.057 208.028 155.74" stroke="#0A524B" stroke-width="0.295572" stroke-linejoin="round"/>
<path d="M152.248 165.282C155.038 167.772 158.686 163.901 160.161 161.653C159.652 160.032 157.399 156.854 154.531 156.138C152.237 155.565 148.991 157.992 147.654 159.278C148.023 160.242 149.458 162.792 152.248 165.282Z" fill="#63B1AA" stroke="#0A524B" stroke-width="0.591143" stroke-linejoin="round"/>
<path d="M159.605 162.63C157.024 161.579 149.596 159.521 147.704 160.268" stroke="#0A524B" stroke-width="0.295572" stroke-linejoin="round"/>
<path d="M189.43 171.463C188.932 178.25 196.6 182.855 200.29 180.127C201.118 178.141 200.305 175.224 197.141 172.699C194.137 170.303 190.814 170.677 189.43 171.463Z" fill="#63B1AA" stroke="#0A524B" stroke-linejoin="round"/>
<path d="M190.12 173.45C189.982 174.097 189.897 175.163 189.897 175.163" stroke="#0A524B" stroke-width="0.591143" stroke-linejoin="round" stroke-dasharray="0.01 0.01"/>
<path d="M189.662 171.647C191.572 173.676 198.443 179.787 200.474 179.896" stroke="#0A524B" stroke-width="0.295572" stroke-linejoin="round"/>
<path d="M170.38 151.384C173.041 145.122 167.268 138.288 162.896 139.681C161.471 141.293 161.3 144.317 163.48 147.727C165.55 150.964 168.816 151.682 170.38 151.384Z" fill="#63B1AA" stroke="#0A524B" stroke-linejoin="round"/>
<path d="M170.369 149.281C170.708 148.714 171.132 147.731 171.132 147.731" stroke="#0A524B" stroke-width="0.591143" stroke-linejoin="round" stroke-dasharray="0.01 0.01"/>
<path d="M170.221 151.135C169.067 148.599 164.535 140.597 162.647 139.84" stroke="#0A524B" stroke-width="0.295572" stroke-linejoin="round"/>
<path d="M185.72 164.289C180.854 169.045 183.552 177.574 188.123 177.971C190.059 177.031 191.381 174.306 190.68 170.32C190.016 166.535 187.278 164.615 185.72 164.289Z" fill="#63B1AA" stroke="#0A524B" stroke-linejoin="round"/>
<path d="M186.093 168.125C185.22 168.278 184.02 169.989 184.02 169.989" stroke="#0A524B" stroke-width="0.591143" stroke-linejoin="round" stroke-dasharray="0.01 0.01"/>
<path d="M185.785 166.37C185.254 166.764 184.484 167.507 184.484 167.507" stroke="#0A524B" stroke-width="0.591143" stroke-linejoin="round" stroke-dasharray="0.01 0.01"/>
<path d="M185.771 164.58C185.86 167.365 186.963 176.494 188.414 177.92" stroke="#0A524B" stroke-width="0.295572" stroke-linejoin="round"/>
<path d="M171.578 159.371C177.718 156.44 177.915 147.496 173.717 145.645C171.581 145.911 169.451 148.063 168.828 152.063C168.236 155.859 170.208 158.56 171.578 159.371Z" fill="#63B1AA" stroke="#0A524B" stroke-linejoin="round"/>
<path d="M172.461 155.621C173.338 155.757 175.025 154.524 175.025 154.524" stroke="#0A524B" stroke-width="0.591143" stroke-linejoin="round" stroke-dasharray="0.01 0.01"/>
<path d="M172.187 157.381C172.817 157.18 173.785 156.725 173.785 156.725" stroke="#0A524B" stroke-width="0.591143" stroke-linejoin="round" stroke-dasharray="0.01 0.01"/>
<path d="M171.623 159.079C172.437 156.414 174.338 147.417 173.425 145.6" stroke="#0A524B" stroke-width="0.295572" stroke-linejoin="round"/>
<path d="M196.436 165.562C194.979 162.268 190.498 163.266 188.439 164.176C188.283 165.646 189.037 169.174 191.201 171.187C192.932 172.798 196.552 172.668 198.146 172.402C198.183 171.494 197.893 168.856 196.436 165.562Z" fill="#63B1AA" stroke="#0A524B" stroke-linejoin="round"/>
<path d="M188.666 164.377C190.417 166.545 195.923 171.938 197.94 172.2" stroke="#0A524B" stroke-width="0.295572" stroke-linejoin="round"/>
<path d="M161.845 154.711C162.162 158.298 166.725 158.8 168.968 158.602C169.59 157.261 170.014 153.679 168.616 151.075C167.497 148.991 164.028 147.947 162.433 147.685C162.106 148.532 161.529 151.123 161.845 154.711Z" fill="#63B1AA" stroke="#0A524B" stroke-linejoin="round"/>
<path d="M168.818 158.338C167.859 155.721 164.388 148.84 162.563 147.941" stroke="#0A524B" stroke-width="0.295572" stroke-linejoin="round"/>
<path d="M193.913 164.584C189.722 165.786 187.135 162.348 186.365 160.479C193.089 156.015 199.049 158.807 201.188 160.761C200.509 161.534 198.104 163.381 193.913 164.584Z" fill="#63B1AA" stroke="#0A524B" stroke-linejoin="round"/>
<path d="M186.695 160.428C189.451 160.84 199.269 161.721 200.932 160.549" stroke="#0A524B" stroke-width="0.295572" stroke-linejoin="round"/>
<path d="M163.917 156.45C168.272 156.664 169.612 160.752 169.738 162.77C161.934 164.827 157.193 160.261 155.798 157.721C156.69 157.208 159.562 156.237 163.917 156.45Z" fill="#63B1AA" stroke="#0A524B" stroke-width="0.591143" stroke-linejoin="round"/>
<path d="M169.41 162.711C166.934 161.433 157.925 157.431 155.973 158.004" stroke="#0A524B" stroke-width="0.295572" stroke-linejoin="round"/>
<path d="M190.814 155.133C197.5 153.87 199.979 145.274 196.393 142.411C194.261 142.121 191.651 143.657 190.025 147.364C188.482 150.883 189.698 153.998 190.814 155.133Z" fill="#63B1AA" stroke="#0A524B" stroke-linejoin="round"/>
<path d="M192.628 151.734C193.44 152.09 195.387 151.33 195.387 151.33" stroke="#0A524B" stroke-width="0.591143" stroke-linejoin="round" stroke-dasharray="0.01 0.01"/>
<path d="M191.912 153.364C192.572 153.331 193.625 153.139 193.625 153.139" stroke="#0A524B" stroke-width="0.591143" stroke-linejoin="round" stroke-dasharray="0.01 0.01"/>
<path d="M190.932 154.863C192.401 152.495 196.541 144.284 196.123 142.293" stroke="#0A524B" stroke-width="0.295572" stroke-linejoin="round"/>
<path d="M163.802 166.394C157.066 165.433 151.947 172.77 154.417 176.637C156.342 177.599 159.308 176.987 162.043 174.002C164.639 171.169 164.493 167.829 163.802 166.394Z" fill="#63B1AA" stroke="#0A524B" stroke-width="0.591143" stroke-linejoin="round"/>
<path d="M160.989 169.027C160.335 168.428 158.247 168.52 158.247 168.52" stroke="#0A524B" stroke-width="0.591143" stroke-linejoin="round" stroke-dasharray="0.01 0.01"/>
<path d="M162.192 167.714C161.557 167.533 160.499 167.375 160.499 167.375" stroke="#0A524B" stroke-width="0.591143" stroke-linejoin="round" stroke-dasharray="0.01 0.01"/>
<path d="M163.603 166.612C161.448 168.38 154.882 174.817 154.635 176.836" stroke="#0A524B" stroke-width="0.295572" stroke-linejoin="round"/>
<path d="M181.017 156.106C186.746 152.434 185.83 143.535 181.434 142.22C179.348 142.749 177.502 145.15 177.381 149.196C177.265 153.036 179.558 155.471 181.017 156.106Z" fill="#63B1AA" stroke="#0A524B" stroke-linejoin="round"/>
<path d="M181.428 152.274C182.314 152.301 183.835 150.868 183.835 150.868" stroke="#0A524B" stroke-width="0.591143" stroke-linejoin="round" stroke-dasharray="0.01 0.01"/>
<path d="M181.794 149.92C182.689 149.651 183.289 149.373 184.202 148.514" stroke="#0A524B" stroke-width="0.591143" stroke-linejoin="round" stroke-dasharray="0.01 0.01"/>
<path d="M181.374 154.055C181.974 153.777 182.878 153.205 182.878 153.205" stroke="#0A524B" stroke-width="0.591143" stroke-linejoin="round" stroke-dasharray="0.01 0.01"/>
<path d="M181.026 155.811C181.503 153.065 182.271 143.902 181.139 142.212" stroke="#0A524B" stroke-width="0.295572" stroke-linejoin="round"/>
<path d="M173.39 168.634C166.783 170.262 164.779 178.981 168.516 181.643C170.661 181.816 173.183 180.139 174.603 176.348C175.951 172.75 174.566 169.706 173.39 168.634Z" fill="#63B1AA" stroke="#0A524B" stroke-linejoin="round"/>
<path d="M171.765 172.128C170.935 171.817 169.032 172.683 169.032 172.683" stroke="#0A524B" stroke-width="0.591143" stroke-linejoin="round" stroke-dasharray="0.01 0.01"/>
<path d="M170.659 174.24C169.724 174.205 169.067 174.275 167.926 174.794" stroke="#0A524B" stroke-width="0.591143" stroke-linejoin="round" stroke-dasharray="0.01 0.01"/>
<path d="M172.39 170.461C171.733 170.531 170.692 170.78 170.692 170.78" stroke="#0A524B" stroke-width="0.591143" stroke-linejoin="round" stroke-dasharray="0.01 0.01"/>
<path d="M173.286 168.911C171.949 171.356 168.267 179.782 168.793 181.747" stroke="#0A524B" stroke-width="0.295572" stroke-linejoin="round"/>
<path d="M186.189 157.837C191.719 161.801 199.648 157.659 199.243 153.088C197.98 151.346 195.067 150.519 191.263 151.902C187.652 153.216 186.239 156.246 186.189 157.837Z" fill="#63B1AA" stroke="#0A524B" stroke-linejoin="round"/>
<path d="M186.466 157.737C189.193 157.164 197.991 154.487 199.142 152.811" stroke="#0A524B" stroke-width="0.295572" stroke-linejoin="round"/>
<path d="M169.053 165.327C165.097 159.791 156.256 161.155 155.164 165.612C155.798 167.668 158.289 169.391 162.335 169.308C166.177 169.229 168.493 166.817 169.053 165.327Z" fill="#63B1AA" stroke="#0A524B" stroke-width="0.591143" stroke-linejoin="round"/>
<path d="M168.758 165.333C165.992 164.996 156.801 164.691 155.17 165.907" stroke="#0A524B" stroke-width="0.295572" stroke-linejoin="round"/>
<path d="M182.441 148.88C179.108 150.494 181.035 155.254 182.415 157.432C184.052 157.571 187.772 156.702 189.573 154.358C191.013 152.483 190.197 148.625 189.608 146.931C188.608 146.908 185.774 147.266 182.441 148.88Z" fill="#63B1AA" stroke="#0A524B" stroke-linejoin="round"/>
<path d="M181.953 156.695C183.946 154.748 188.796 148.757 188.866 146.725" stroke="#0A524B" stroke-width="0.295572" stroke-linejoin="round"/>
<path d="M169.711 175.016C173.387 174.563 173.099 169.436 172.495 166.93C170.99 166.269 167.188 165.892 164.728 167.53C162.76 168.84 162.289 172.755 162.299 174.549C163.238 174.893 166.036 175.468 169.711 175.016Z" fill="#63B1AA" stroke="#0A524B" stroke-linejoin="round"/>
<path d="M172.694 167.776C170.18 168.977 163.657 173.082 162.935 174.984" stroke="#0A524B" stroke-width="0.295572" stroke-linejoin="round"/>
<path d="M176.636 163.369C174.079 161.115 176.192 159.444 177.568 158.89C183.169 158.98 184.456 164.779 183.175 167.716C178.963 168.109 176.244 165.014 176.636 163.369Z" fill="#FFDDCA" stroke="#0A524B" stroke-linejoin="round"/>
<path d="M179.879 163.173C181.572 166.131 179.033 167.031 177.552 167.111C172.28 165.219 172.932 159.315 175.093 156.949C179.206 157.936 180.782 161.742 179.879 163.173Z" fill="#FFDDCA" stroke="#0A524B" stroke-linejoin="round"/>
<path d="M176.669 160.001C178.025 161.79 179.881 161.969 180.639 161.834C185.494 160.974 183.843 157.354 182.41 155.652C179.551 153.241 178.649 155.42 178.556 156.811C177.362 157.129 175.314 158.211 176.669 160.001Z" fill="#FFDDCA"/>
<path d="M185.477 170.493C183.099 170.534 182.892 168.784 183.085 167.903C180.878 163.854 187.459 164.59 188.033 165.916C188.607 167.242 188.45 170.442 185.477 170.493Z" fill="#FFDDCA"/>
<path d="M176.669 160.001C178.025 161.79 179.881 161.969 180.639 161.834C185.494 160.974 183.843 157.354 182.41 155.652C179.551 153.241 178.649 155.42 178.556 156.811C177.362 157.129 175.314 158.211 176.669 160.001Z" stroke="#0A524B" stroke-linejoin="round"/>
<path d="M185.477 170.493C183.099 170.534 182.892 168.784 183.085 167.903C180.878 163.854 187.459 164.59 188.033 165.916C188.607 167.242 188.45 170.442 185.477 170.493Z" stroke="#0A524B" stroke-linejoin="round"/>
<path d="M178.762 166.35C178.056 164.219 176.357 163.452 175.595 163.334C170.722 162.583 171.118 166.542 171.925 168.615C173.853 171.819 175.41 170.047 175.947 168.761C177.18 168.845 179.468 168.482 178.762 166.35Z" fill="#FFDDCA"/>
<path d="M173.809 153.578C176.074 154.306 175.705 156.03 175.238 156.801C176.02 161.346 170.029 158.526 169.913 157.086C169.798 155.646 170.979 152.668 173.809 153.578Z" fill="#FFDDCA"/>
<path d="M178.762 166.35C178.056 164.219 176.357 163.452 175.595 163.334C170.722 162.583 171.118 166.542 171.925 168.615C173.853 171.819 175.41 170.047 175.947 168.761C177.18 168.845 179.468 168.482 178.762 166.35Z" stroke="#0A524B" stroke-linejoin="round"/>
<path d="M173.809 153.578C176.074 154.306 175.705 156.03 175.238 156.801C176.02 161.346 170.029 158.526 169.913 157.086C169.798 155.646 170.979 152.668 173.809 153.578Z" stroke="#0A524B" stroke-linejoin="round"/>
<path d="M180.49 161.469C180.531 157.79 183.285 158.565 184.657 159.412C188.89 165.432 183.761 166.056 180.667 165.615C176.922 164.027 178.988 162.19 180.49 161.469Z" fill="#0A524B" stroke="#0A524B" stroke-width="0.591143" stroke-linejoin="round"/>
<path d="M175.619 163.728C174.394 167.197 172.037 165.575 171.012 164.331C168.947 157.268 174.003 158.332 176.789 159.746C179.822 162.458 177.273 163.531 175.619 163.728Z" fill="#0A524B" stroke="#0A524B" stroke-width="0.591143" stroke-linejoin="round"/>
<path d="M187.808 159.535C188.471 156.282 186.023 156.026 184.717 156.305C180.659 159.392 184.683 163.679 187.202 165.437C190.501 163.499 188.981 160.695 187.808 159.535Z" fill="#FFDDCA" stroke="#0A524B" stroke-linejoin="round"/>
<path d="M168.068 163.197C166.392 166.062 168.626 167.094 169.953 167.252C174.789 165.639 172.364 160.283 170.546 157.806C166.798 158.576 167.332 161.721 168.068 163.197Z" fill="#FFDDCA" stroke="#0A524B" stroke-linejoin="round"/>
<path d="M250.07 177.728C267.23 172.961 271.372 161.456 261.313 158.497C261.313 158.497 264.271 171.811 247.407 166.485C230.543 161.16 223.442 185.124 250.07 177.728Z" fill="black" stroke="black" stroke-width="0.59172"/>
<path d="M229.36 153.837C225.336 156.914 221.075 164.513 219.596 167.965C222.259 154.059 221.766 150.632 222.555 145.775C234.685 144.888 235.277 127.21 230.839 125.138C227.289 123.482 224.034 126.815 222.851 128.689V121.588C223.738 120.405 232.614 116.854 237.348 127.21C242.082 137.565 234.389 149.991 229.36 153.837Z" fill="#FFDDCA" stroke="black" stroke-width="1.12" stroke-linejoin="round"/>
<ellipse cx="181.69" cy="120.507" rx="41.2671" ry="8.03999" transform="rotate(-0.120328 181.69 120.507)" fill="#FFCAA4" stroke="black" stroke-width="1.12" stroke-linejoin="round"/>
<path d="M218 124.025C218 124.025 203 129.5 172.5 128.025C156.5 128.525 145.5 124 145.5 124C165.569 109.202 191.455 124.026 218 124.025Z" fill="#764738"/>
<path d="M217.5 124C217.5 124 160.5 119.5 145.5 124C165.57 109.203 190.955 124.001 217.5 124Z" fill="#633D32"/>
<path d="M-116.5 248.734V318.251C-114.429 315.589 3.02696 216.485 8.35244 214.118C13.6779 211.751 26.6958 215.893 40.897 214.118C87.1287 208.339 70.2858 173.181 58.3528 161.446C81.134 155.232 77.7373 143.265 75.8085 141.337C73.7375 139.266 68.412 137.49 63.9741 141.928C45.9267 149.029 38.8034 151.765 24.3289 151.987C5.09798 152.283 -9.1033 166.78 -17.6832 172.402C-26.2632 178.023 -39.8727 189.858 -64.725 211.159C-72.8018 218.082 -101.905 239.562 -116.5 248.734Z" fill="#CE8361" stroke="black" stroke-width="1.12" stroke-linejoin="round"/>
<path d="M50.0688 184.236C46.7551 182.58 46.5184 176.051 46.8143 172.994C46.8143 172.994 48.5895 170.923 57.4653 165.006C66.3411 159.088 74.5 154 74.5 154L68.4121 198.438L57.4653 209.976L52.4357 211.751C49.7729 211.16 47.9978 203.467 50.0688 202.284C46.8143 200.509 42.0806 200.249 42.0806 194.296C42.0806 190.154 47.8991 186.8 50.0688 184.236Z" fill="black"/>
<path d="M73.1458 151.977C77.6428 152.451 81.134 158.092 82.3174 160.853C82.7119 169.335 83.5009 187.244 83.5009 191.031C83.5009 194.818 85.0788 200.301 85.8678 202.57C81.4298 201.09 65.7493 187.481 61.0155 182.451C56.2818 177.421 64.8617 176.238 66.6369 177.717C68.412 179.197 75.8085 180.676 77.2878 177.717C78.7671 174.759 78.4712 169.147 74.9209 163.526C71.7612 158.523 61.6072 166.78 57.1693 165.005C55.3942 154.946 67.5244 151.386 73.1458 151.977Z" fill="#FFDDCA" stroke="black" stroke-width="1.12" stroke-linejoin="round"/>
<path d="M83.2049 189.257C82.9682 182.629 82.3173 159.276 82.0215 148.428C112.791 156.949 150.069 147.639 164.862 141.919C166.046 153.753 168.413 178.901 168.413 184.819C168.413 192.215 167.821 204.345 162.495 212.629C153.422 226.744 124.921 234.819 105.986 225.351C87.0511 215.884 83.5008 197.541 83.2049 189.257Z" fill="#FFDDCA" stroke="black" stroke-width="1.12" stroke-linejoin="round"/>
<path d="M144.54 172.835C141.597 174.911 143.456 179.109 144.753 180.948C146.225 180.813 149.536 179.38 151.085 176.863C152.324 174.849 151.485 171.325 150.91 169.814C150.013 169.956 147.483 170.759 144.54 172.835Z" fill="#63B1AA" stroke="#0A524B" stroke-linejoin="round"/>
<path d="M146.087 179.331C147.184 179.428 149.02 179.062 149.02 179.062" stroke="#0A524B" stroke-width="0.591143" stroke-linejoin="round" stroke-dasharray="0.01 0.01"/>
<path d="M144.905 180.686C146.687 178.543 150.892 172.085 150.753 170.056" stroke="#0A524B" stroke-width="0.295572" stroke-linejoin="round"/>
<path d="M101.76 198.079C105.216 197.063 104.81 192.49 104.176 190.33C102.739 189.984 99.1427 190.272 96.8645 192.155C95.0419 193.662 94.6993 197.268 94.7559 198.883C95.6509 199.038 98.3048 199.094 101.76 198.079Z" fill="#63B1AA" stroke="#0A524B" stroke-linejoin="round"/>
<path d="M102.392 191.431C101.385 190.985 99.5293 190.739 99.5293 190.739" stroke="#0A524B" stroke-width="0.591143" stroke-linejoin="round" stroke-dasharray="0.01 0.01"/>
<path d="M103.947 190.529C101.57 191.983 95.5055 196.739 94.9829 198.705" stroke="#0A524B" stroke-width="0.295572" stroke-linejoin="round"/>
<path d="M146.244 200.437C141.316 199.726 141.47 195.089 142.163 192.859C152.005 191.455 155.57 196.987 156.122 199.93C154.882 200.395 151.171 201.148 146.244 200.437Z" fill="#63B1AA" stroke="#0A524B" stroke-linejoin="round"/>
<path d="M144.327 194.701C143.5 195.852 143.832 197.759 143.832 197.759" stroke="#0A524B" stroke-width="0.591143" stroke-linejoin="round" stroke-dasharray="0.01 0.01"/>
<path d="M142.517 192.959C144.838 194.634 153.554 200.015 156.039 199.599" stroke="#0A524B" stroke-width="0.295572" stroke-linejoin="round"/>
<path d="M109.051 171.404C113.486 173.666 111.844 178.006 110.47 179.892C100.7 178.047 99.1105 171.66 99.5369 168.697C100.861 168.657 104.617 169.141 109.051 171.404Z" fill="#63B1AA" stroke="#0A524B" stroke-linejoin="round"/>
<path d="M109.015 177.452C110.169 176.628 110.47 174.717 110.47 174.717" stroke="#0A524B" stroke-width="0.591143" stroke-linejoin="round" stroke-dasharray="0.01 0.01"/>
<path d="M110.167 179.683C108.51 177.349 101.996 169.445 99.5092 169.036" stroke="#0A524B" stroke-width="0.295572" stroke-linejoin="round"/>
<path d="M142.449 190.615C146.309 196.219 155.172 195.01 156.341 190.573C155.744 188.506 153.283 186.74 149.236 186.752C145.394 186.764 143.036 189.135 142.449 190.615Z" fill="#63B1AA" stroke="#0A524B" stroke-linejoin="round"/>
<path d="M142.745 190.614C145.505 190.999 154.689 191.464 156.34 190.277" stroke="#0A524B" stroke-width="0.295572" stroke-linejoin="round"/>
<path d="M109.475 181.924C107.629 175.374 98.8497 173.66 96.312 177.482C96.2106 179.632 97.9698 182.097 101.805 183.391C105.446 184.62 108.442 183.135 109.475 181.924Z" fill="#63B1AA" stroke="#0A524B" stroke-linejoin="round"/>
<path d="M109.195 181.83C106.707 180.574 98.1641 177.172 96.2178 177.763" stroke="#0A524B" stroke-width="0.295572" stroke-linejoin="round"/>
<path d="M149.11 178.458C145.666 177.001 143.462 181.843 142.791 184.446C143.796 185.817 146.954 188.098 149.899 187.851C152.255 187.653 154.545 184.308 155.395 182.66C154.736 181.867 152.555 179.915 149.11 178.458Z" fill="#63B1AA" stroke="#0A524B" stroke-linejoin="round"/>
<path d="M143.002 183.342C145.784 183.504 153.478 183.056 155.029 181.739" stroke="#0A524B" stroke-width="0.295572" stroke-linejoin="round"/>
<path d="M99.2486 191.281C102.039 193.772 105.687 189.9 107.162 187.652C106.653 186.031 104.4 182.853 101.532 182.137C99.2378 181.564 95.9913 183.992 94.6549 185.277C95.0235 186.241 96.4583 188.791 99.2486 191.281Z" fill="#63B1AA" stroke="#0A524B" stroke-linejoin="round"/>
<path d="M106.605 188.629C104.024 187.578 96.5969 185.521 94.7046 186.267" stroke="#0A524B" stroke-width="0.295572" stroke-linejoin="round"/>
<path d="M136.431 197.462C135.932 204.249 143.601 208.854 147.29 206.126C148.118 204.14 147.305 201.223 144.141 198.698C141.138 196.302 137.815 196.676 136.431 197.462Z" fill="#63B1AA" stroke="#0A524B" stroke-linejoin="round"/>
<path d="M137.12 199.449C136.982 200.096 136.897 201.162 136.897 201.162" stroke="#0A524B" stroke-width="0.591143" stroke-linejoin="round" stroke-dasharray="0.01 0.01"/>
<path d="M136.662 197.646C138.573 199.675 145.443 205.786 147.475 205.895" stroke="#0A524B" stroke-width="0.295572" stroke-linejoin="round"/>
<path d="M117.38 177.383C120.042 171.121 114.268 164.287 109.896 165.68C108.472 167.293 108.3 170.316 110.481 173.726C112.551 176.963 115.817 177.681 117.38 177.383Z" fill="#63B1AA" stroke="#0A524B" stroke-linejoin="round"/>
<path d="M117.37 175.28C117.708 174.713 118.133 173.73 118.133 173.73" stroke="#0A524B" stroke-width="0.591143" stroke-linejoin="round" stroke-dasharray="0.01 0.01"/>
<path d="M117.221 177.134C116.067 174.598 111.535 166.596 109.647 165.839" stroke="#0A524B" stroke-width="0.295572" stroke-linejoin="round"/>
<path d="M132.721 190.288C127.854 195.044 130.552 203.573 135.123 203.97C137.059 203.03 138.381 200.305 137.681 196.319C137.016 192.534 134.278 190.614 132.721 190.288Z" fill="#63B1AA" stroke="#0A524B" stroke-linejoin="round"/>
<path d="M133.094 194.124C132.22 194.277 131.021 195.988 131.021 195.988" stroke="#0A524B" stroke-width="0.591143" stroke-linejoin="round" stroke-dasharray="0.01 0.01"/>
<path d="M132.786 192.369C132.255 192.763 131.485 193.506 131.485 193.506" stroke="#0A524B" stroke-width="0.591143" stroke-linejoin="round" stroke-dasharray="0.01 0.01"/>
<path d="M132.772 190.579C132.861 193.364 133.964 202.493 135.415 203.919" stroke="#0A524B" stroke-width="0.295572" stroke-linejoin="round"/>
<path d="M118.578 185.37C124.719 182.439 124.916 173.495 120.717 171.644C118.582 171.91 116.452 174.062 115.828 178.062C115.237 181.858 117.209 184.559 118.578 185.37Z" fill="#63B1AA" stroke="#0A524B" stroke-linejoin="round"/>
<path d="M119.462 181.62C120.338 181.756 122.026 180.523 122.026 180.523" stroke="#0A524B" stroke-width="0.591143" stroke-linejoin="round" stroke-dasharray="0.01 0.01"/>
<path d="M119.188 183.38C119.817 183.179 120.786 182.724 120.786 182.724" stroke="#0A524B" stroke-width="0.591143" stroke-linejoin="round" stroke-dasharray="0.01 0.01"/>
<path d="M118.624 185.078C119.438 182.413 121.339 173.416 120.425 171.599" stroke="#0A524B" stroke-width="0.295572" stroke-linejoin="round"/>
<path d="M143.437 191.561C141.98 188.267 137.498 189.265 135.44 190.175C135.283 191.645 136.038 195.173 138.201 197.186C139.932 198.797 143.552 198.667 145.146 198.401C145.183 197.493 144.893 194.855 143.437 191.561Z" fill="#63B1AA" stroke="#0A524B" stroke-linejoin="round"/>
<path d="M135.667 190.376C137.418 192.544 142.923 197.937 144.94 198.199" stroke="#0A524B" stroke-width="0.295572" stroke-linejoin="round"/>
<path d="M108.846 180.71C109.162 184.297 113.726 184.799 115.968 184.601C116.59 183.26 117.014 179.678 115.616 177.074C114.497 174.99 111.028 173.946 109.434 173.684C109.106 174.531 108.529 177.122 108.846 180.71Z" fill="#63B1AA" stroke="#0A524B" stroke-linejoin="round"/>
<path d="M115.818 184.337C114.86 181.72 111.388 174.839 109.563 173.94" stroke="#0A524B" stroke-width="0.295572" stroke-linejoin="round"/>
<path d="M140.914 190.583C136.723 191.785 134.135 188.347 133.365 186.478C140.089 182.014 146.049 184.806 148.189 186.761C147.51 187.533 145.105 189.38 140.914 190.583Z" fill="#63B1AA" stroke="#0A524B" stroke-linejoin="round"/>
<path d="M133.695 186.427C136.451 186.839 146.27 187.72 147.932 186.549" stroke="#0A524B" stroke-width="0.295572" stroke-linejoin="round"/>
<path d="M110.918 182.449C115.273 182.663 116.613 186.751 116.739 188.769C108.934 190.826 104.194 186.26 102.799 183.72C103.691 183.207 106.563 182.236 110.918 182.449Z" fill="#63B1AA" stroke="#0A524B" stroke-linejoin="round"/>
<path d="M116.411 188.71C113.934 187.432 104.925 183.43 102.973 184.003" stroke="#0A524B" stroke-width="0.295572" stroke-linejoin="round"/>
<path d="M137.814 181.132C144.501 179.869 146.979 171.273 143.394 168.41C141.262 168.12 138.652 169.656 137.026 173.363C135.483 176.882 136.698 179.997 137.814 181.132Z" fill="#63B1AA" stroke="#0A524B" stroke-linejoin="round"/>
<path d="M139.628 177.733C140.44 178.089 142.387 177.329 142.387 177.329" stroke="#0A524B" stroke-width="0.591143" stroke-linejoin="round" stroke-dasharray="0.01 0.01"/>
<path d="M138.913 179.363C139.573 179.33 140.625 179.138 140.625 179.138" stroke="#0A524B" stroke-width="0.591143" stroke-linejoin="round" stroke-dasharray="0.01 0.01"/>
<path d="M137.933 180.862C139.402 178.494 143.541 170.283 143.123 168.292" stroke="#0A524B" stroke-width="0.295572" stroke-linejoin="round"/>
<path d="M110.803 192.393C104.067 191.432 98.9479 198.769 101.418 202.636C103.343 203.598 106.309 202.986 109.043 200.001C111.639 197.168 111.493 193.828 110.803 192.393Z" fill="#63B1AA" stroke="#0A524B" stroke-linejoin="round"/>
<path d="M107.989 195.026C107.336 194.427 105.248 194.519 105.248 194.519" stroke="#0A524B" stroke-width="0.591143" stroke-linejoin="round" stroke-dasharray="0.01 0.01"/>
<path d="M109.193 193.713C108.557 193.532 107.499 193.374 107.499 193.374" stroke="#0A524B" stroke-width="0.591143" stroke-linejoin="round" stroke-dasharray="0.01 0.01"/>
<path d="M110.603 192.611C108.449 194.379 101.882 200.816 101.636 202.835" stroke="#0A524B" stroke-width="0.295572" stroke-linejoin="round"/>
<path d="M128.018 182.105C133.746 178.433 132.831 169.534 128.435 168.22C126.349 168.748 124.502 171.149 124.381 175.195C124.266 179.035 126.558 181.47 128.018 182.105Z" fill="#63B1AA" stroke="#0A524B" stroke-linejoin="round"/>
<path d="M128.428 178.273C129.314 178.3 130.836 176.867 130.836 176.867" stroke="#0A524B" stroke-width="0.591143" stroke-linejoin="round" stroke-dasharray="0.01 0.01"/>
<path d="M128.795 175.919C129.69 175.65 130.29 175.372 131.203 174.513" stroke="#0A524B" stroke-width="0.591143" stroke-linejoin="round" stroke-dasharray="0.01 0.01"/>
<path d="M128.375 180.054C128.975 179.776 129.879 179.204 129.879 179.204" stroke="#0A524B" stroke-width="0.591143" stroke-linejoin="round" stroke-dasharray="0.01 0.01"/>
<path d="M128.027 181.81C128.503 179.064 129.271 169.901 128.139 168.211" stroke="#0A524B" stroke-width="0.295572" stroke-linejoin="round"/>
<path d="M120.39 194.633C113.783 196.261 111.78 204.98 115.517 207.642C117.662 207.815 120.184 206.138 121.604 202.348C122.952 198.749 121.567 195.705 120.39 194.633Z" fill="#63B1AA" stroke="#0A524B" stroke-linejoin="round"/>
<path d="M118.765 198.127C117.935 197.816 116.033 198.682 116.033 198.682" stroke="#0A524B" stroke-width="0.591143" stroke-linejoin="round" stroke-dasharray="0.01 0.01"/>
<path d="M117.659 200.239C116.725 200.204 116.068 200.274 114.926 200.793" stroke="#0A524B" stroke-width="0.591143" stroke-linejoin="round" stroke-dasharray="0.01 0.01"/>
<path d="M119.391 196.46C118.733 196.53 117.693 196.779 117.693 196.779" stroke="#0A524B" stroke-width="0.591143" stroke-linejoin="round" stroke-dasharray="0.01 0.01"/>
<path d="M120.287 194.91C118.95 197.355 115.267 205.781 115.793 207.746" stroke="#0A524B" stroke-width="0.295572" stroke-linejoin="round"/>
<path d="M133.189 183.836C138.72 187.8 146.648 183.658 146.244 179.087C144.981 177.345 142.067 176.518 138.264 177.901C134.653 179.215 133.239 182.246 133.189 183.836Z" fill="#63B1AA" stroke="#0A524B" stroke-linejoin="round"/>
<path d="M133.467 183.736C136.194 183.163 144.991 180.487 146.143 178.81" stroke="#0A524B" stroke-width="0.295572" stroke-linejoin="round"/>
<path d="M116.054 191.326C112.097 185.79 103.256 187.154 102.165 191.611C102.798 193.667 105.289 195.39 109.336 195.307C113.177 195.228 115.493 192.816 116.054 191.326Z" fill="#63B1AA" stroke="#0A524B" stroke-linejoin="round"/>
<path d="M115.758 191.332C112.992 190.995 103.802 190.69 102.171 191.906" stroke="#0A524B" stroke-width="0.295572" stroke-linejoin="round"/>
<path d="M129.442 174.879C126.108 176.493 128.035 181.253 129.415 183.431C131.052 183.57 134.773 182.701 136.573 180.357C138.014 178.482 137.197 174.624 136.609 172.93C135.608 172.907 132.775 173.265 129.442 174.879Z" fill="#63B1AA" stroke="#0A524B" stroke-linejoin="round"/>
<path d="M128.953 182.694C130.946 180.747 135.796 174.756 135.867 172.724" stroke="#0A524B" stroke-width="0.295572" stroke-linejoin="round"/>
<path d="M116.712 201.015C120.388 200.562 120.099 195.436 119.496 192.929C117.991 192.268 114.189 191.891 111.728 193.529C109.76 194.839 109.289 198.754 109.3 200.548C110.239 200.892 113.036 201.467 116.712 201.015Z" fill="#63B1AA" stroke="#0A524B" stroke-linejoin="round"/>
<path d="M119.695 193.775C117.18 194.976 110.658 199.081 109.935 200.983" stroke="#0A524B" stroke-width="0.295572" stroke-linejoin="round"/>
<path d="M123.637 189.368C121.08 187.114 123.193 185.443 124.569 184.889C130.169 184.979 131.457 190.778 130.175 193.715C125.963 194.108 123.244 191.013 123.637 189.368Z" fill="#FFDDCA" stroke="#0A524B" stroke-linejoin="round"/>
<path d="M126.88 189.172C128.573 192.13 126.034 193.03 124.553 193.11C119.281 191.218 119.933 185.314 122.093 182.948C126.207 183.935 127.782 187.741 126.88 189.172Z" fill="#FFDDCA" stroke="#0A524B" stroke-linejoin="round"/>
<path d="M123.67 186C125.025 187.789 126.881 187.968 127.64 187.833C132.495 186.973 130.843 183.353 129.411 181.651C126.552 179.24 125.65 181.419 125.556 182.81C124.362 183.128 122.314 184.21 123.67 186Z" fill="#FFDDCA"/>
<path d="M132.477 196.492C130.099 196.533 129.892 194.783 130.086 193.902C127.879 189.853 134.46 190.589 135.034 191.915C135.608 193.241 135.45 196.441 132.477 196.492Z" fill="#FFDDCA"/>
<path d="M123.67 186C125.025 187.789 126.881 187.968 127.64 187.833C132.495 186.973 130.843 183.353 129.411 181.651C126.552 179.24 125.65 181.419 125.556 182.81C124.362 183.128 122.314 184.21 123.67 186Z" stroke="#0A524B" stroke-linejoin="round"/>
<path d="M132.477 196.492C130.099 196.533 129.892 194.783 130.086 193.902C127.879 189.853 134.46 190.589 135.034 191.915C135.608 193.241 135.45 196.441 132.477 196.492Z" stroke="#0A524B" stroke-linejoin="round"/>
<path d="M125.762 192.349C125.056 190.218 123.357 189.451 122.596 189.333C117.723 188.582 118.119 192.541 118.926 194.614C120.854 197.818 122.411 196.046 122.948 194.76C124.18 194.844 126.468 194.481 125.762 192.349Z" fill="#FFDDCA"/>
<path d="M120.81 179.577C123.074 180.305 122.706 182.029 122.238 182.8C123.021 187.345 117.029 184.525 116.914 183.085C116.798 181.645 117.979 178.667 120.81 179.577Z" fill="#FFDDCA"/>
<path d="M125.762 192.349C125.056 190.218 123.357 189.451 122.596 189.333C117.723 188.582 118.119 192.541 118.926 194.614C120.854 197.818 122.411 196.046 122.948 194.76C124.18 194.844 126.468 194.481 125.762 192.349Z" stroke="#0A524B" stroke-linejoin="round"/>
<path d="M120.81 179.577C123.074 180.305 122.706 182.029 122.238 182.8C123.021 187.345 117.029 184.525 116.914 183.085C116.798 181.645 117.979 178.667 120.81 179.577Z" stroke="#0A524B" stroke-linejoin="round"/>
<path d="M127.49 187.468C127.531 183.789 130.285 184.564 131.657 185.411C135.89 191.431 130.761 192.055 127.668 191.614C123.922 190.026 125.989 188.189 127.49 187.468Z" fill="#0A524B" stroke="#0A524B" stroke-width="0.591143" stroke-linejoin="round"/>
<path d="M122.62 189.727C121.394 193.196 119.037 191.574 118.012 190.33C115.947 183.267 121.003 184.331 123.789 185.746C126.822 188.457 124.273 189.53 122.62 189.727Z" fill="#0A524B" stroke="#0A524B" stroke-width="0.591143" stroke-linejoin="round"/>
<path d="M134.809 185.534C135.472 182.282 133.024 182.025 131.717 182.304C127.66 185.391 131.683 189.678 134.202 191.436C137.502 189.498 135.981 186.694 134.809 185.534Z" fill="#FFDDCA" stroke="#0A524B" stroke-linejoin="round"/>
<path d="M115.069 189.196C113.392 192.061 115.627 193.093 116.953 193.251C121.79 191.638 119.364 186.282 117.547 183.806C113.799 184.575 114.333 187.72 115.069 189.196Z" fill="#FFDDCA" stroke="#0A524B" stroke-linejoin="round"/>
<ellipse cx="123.435" cy="144.89" rx="41.5368" ry="6.87962" transform="rotate(-4.39464 123.435 144.89)" fill="#FFCAA4" stroke="black" stroke-width="1.12" stroke-linejoin="round"/>
<path d="M160 145C160 145 154.5 149 124 151.5C94.9996 153.5 85.4908 150.218 85.4908 150.218C124 147.5 146 134.5 160 145Z" fill="#764738"/>
<path d="M160 145C160 145 152.826 140 136 145.5C119.174 151 87.9998 150 87.9998 150C117.693 146.5 146.5 134 160 145Z" fill="#633D32"/>
<path d="M49.8299 202.291C50.3033 197.794 65.3549 191.534 71.3707 191.633C75.5128 196.071 76.992 195.183 74.3293 202.291C53.9063 223.593 49.2382 207.912 49.8299 202.291Z" fill="#CE8361" stroke="black" stroke-width="1.12" stroke-linejoin="round"/>
<path d="M44.4832 189.452C53.0273 179.798 58.3797 182.685 62.2093 182.461C63.0864 183.94 66.6368 186.307 70.7772 191.335C48.2942 207.905 38.5976 196.103 44.4832 189.452Z" fill="#CE8361" stroke="black" stroke-width="1.12" stroke-linejoin="round"/>
<path d="M47.3578 176.528C42.6385 169.346 53.7699 165.498 59.9255 164.472C68.646 160.368 73.5191 160.368 76.3404 164.985C78.5975 168.679 78.3068 174.219 77.8793 176.528C75.8275 182.427 53.257 185.506 47.3578 176.528Z" fill="#CE8361" stroke="black" stroke-width="1.12" stroke-linejoin="round"/>
<path d="M77.8796 179.798C71.3706 186.899 60.3252 182.757 56.5776 181.574C75.0393 182.757 76.4003 178.615 78.1754 176.544L77.8796 179.798Z" fill="black"/>
<path d="M14.5654 177.727C20.6799 179.502 34.0922 184.236 34.0922 197.55" stroke="black" stroke-width="1.12" stroke-linejoin="round"/>
<path d="M72.2583 193.112C64.6843 199.029 54.1123 201.593 50.0688 201.988L50.6606 199.621C59.8914 199.621 67.9191 194.098 70.779 191.337L72.2583 193.112Z" fill="black"/>
<path d="M74.329 201.1C74.329 199.68 66.2422 188.083 62.1987 182.461L73.4414 193.112C77.5835 196.367 74.329 202.876 74.329 201.1Z" fill="black" stroke="black" stroke-width="0.59172"/>
<path d="M263.04 159.454C260.504 156.389 251.703 159.842 246.975 162.338C243.718 163.206 235.566 163.65 232.487 164.77C228.637 166.171 228.475 184.603 249.647 176.9C267.99 170.226 266.215 163.291 263.04 159.454Z" fill="#CE8361" stroke="black" stroke-width="1.12" stroke-linejoin="round"/>
<path d="M240.602 166.484C254.508 165.132 267.23 155.833 255.396 144.295C255.396 144.295 245.336 143.703 237.94 143.999C230.543 144.295 219.301 168.555 240.602 166.484Z" fill="black" stroke="black" stroke-width="0.59172"/>
<path d="M225.218 158.201C225.928 148.496 230.839 146.268 233.206 146.366L228.472 155.538L225.218 158.201Z" fill="black" stroke="black" stroke-width="0.59172"/>
<path d="M282.456 154.257C276.686 151.564 264.16 144.826 266.205 131.67" stroke="black" stroke-width="1.12" stroke-linejoin="round"/>
<path d="M251.265 142.292C245.45 141.692 238.033 144.372 235.274 146.368C228.768 147.254 223.147 158.201 230.543 163.526C234.836 166.617 243.44 165.486 253.428 160.314C263.415 155.143 258.534 143.042 251.265 142.292Z" fill="#CE8361" stroke="black" stroke-width="1.12" stroke-linejoin="round"/>
<path d="M250.366 144.591C256.993 138.437 251.648 133.25 248.295 131.277L222.851 142.816C224.626 143.703 242.082 152.283 250.366 144.591Z" fill="black" stroke="black" stroke-width="0.59172"/>
<path d="M246.816 130.38C243.77 128.952 231.924 126.14 226.106 125.351C225.159 125.824 223.541 127.52 222.851 128.309V140.735C223.443 145.173 242.082 149.315 248.887 143.99C255.692 138.664 251.254 132.461 246.816 130.38Z" fill="#CE8361" stroke="black" stroke-width="1.12" stroke-linejoin="round"/>
<path d="M222.555 145.775V141.633C224.212 144.236 231.727 145.873 235.277 146.367C230.543 146.603 224.823 146.465 222.555 145.775Z" fill="black" stroke="black" stroke-width="0.59172"/>
<path d="M118.661 114.326L92.8411 77.5578C91.6443 75.8535 93.1633 73.609 94.9724 74.4086L137.429 93.1733C138.364 93.5864 139.397 93.1623 139.806 92.1975L155.145 56.0547C155.897 54.282 158.326 54.6732 158.742 56.634L165.882 90.3251C166.217 91.9042 167.972 92.5803 169.044 91.543L183.059 77.9815" stroke="white" stroke-width="4" stroke-linecap="round" stroke-linejoin="round"/>
<path d="M82.9209 113.507L109.295 127.047" stroke="white" stroke-width="4" stroke-linecap="round" stroke-linejoin="round"/>
</g>
</svg>
